<svg xmlns="http://www.w3.org/2000/svg" width="101" height="33" viewBox="0 0 101 33">
    <g fill="none" fill-rule="evenodd">
        <path fill="#000" d="M.44.656h3.696c1.056 0 1.89.283 2.504.848.613.565.92 1.307.92 2.224 0 .587-.155 1.093-.464 1.52-.31.427-.72.736-1.232.928.63.16 1.128.493 1.496 1 .368.507.552 1.085.552 1.736 0 .896-.325 1.635-.976 2.216-.65.581-1.493.872-2.528.872H.44V.656zm1.568 4.96H3.96c.619 0 1.11-.168 1.472-.504.363-.336.544-.77.544-1.304 0-.544-.187-.976-.56-1.296-.373-.32-.88-.48-1.52-.48H2.008v3.584zm0 5.008h2.176c.64 0 1.155-.165 1.544-.496.39-.33.584-.768.584-1.312 0-.565-.176-1.016-.528-1.352-.352-.336-.864-.504-1.536-.504h-2.24v3.664zM15.4 12h-1.488V4.304H15.4V12zM13.576 1.392c0-.299.104-.555.312-.768.208-.213.461-.32.76-.32s.555.104.768.312c.213.208.32.467.32.776 0 .299-.107.552-.32.76-.213.208-.47.312-.768.312-.299 0-.552-.104-.76-.312a1.034 1.034 0 0 1-.312-.76zm10.4.48v2.432h1.664v1.36h-1.664v4c0 .363.083.63.248.8.165.17.44.256.824.256.224 0 .421-.021.592-.064v1.28c-.256.096-.597.144-1.024.144-.661 0-1.184-.192-1.568-.576-.384-.384-.576-.923-.576-1.616V5.664H21v-1.36h.416c.395 0 .69-.11.888-.328.197-.219.296-.504.296-.856V1.872h1.376zM32.968 12H31.48V4.304h1.44v1.024c.235-.405.565-.715.992-.928.427-.213.875-.32 1.344-.32.501 0 .96.123 1.376.368.416.245.725.608.928 1.088.533-.97 1.392-1.456 2.576-1.456.736 0 1.363.25 1.88.752.517.501.776 1.227.776 2.176V12h-1.488V7.168c0-.533-.136-.96-.408-1.28-.272-.32-.68-.48-1.224-.48-.523 0-.95.184-1.28.552-.33.368-.496.83-.496 1.384V12h-1.504V7.168c0-.533-.136-.96-.408-1.28-.272-.32-.68-.48-1.224-.48-.533 0-.965.181-1.296.544-.33.363-.496.832-.496 1.408V12zm15.744-2.064c0-.661.213-1.192.64-1.592.427-.4.992-.648 1.696-.744l2.08-.304c.395-.053.592-.245.592-.576 0-.405-.139-.736-.416-.992-.277-.256-.693-.384-1.248-.384-.512 0-.917.141-1.216.424-.299.283-.475.659-.528 1.128l-1.44-.336c.075-.736.41-1.336 1.008-1.8.597-.464 1.312-.696 2.144-.696 1.088 0 1.893.264 2.416.792.523.528.784 1.203.784 2.024v3.856c0 .459.032.88.096 1.264h-1.472a6.336 6.336 0 0 1-.08-1.04c-.213.341-.525.64-.936.896-.41.256-.925.384-1.544.384-.757 0-1.376-.227-1.856-.68-.48-.453-.72-.995-.72-1.624zm2.784 1.04c.672 0 1.21-.181 1.616-.544.405-.363.608-.939.608-1.728v-.352l-2.352.352c-.341.053-.613.176-.816.368-.203.192-.304.453-.304.784 0 .299.115.56.344.784.23.224.53.336.904.336zm14.336-6.752v1.6a4.636 4.636 0 0 0-.656-.048c-1.408 0-2.112.79-2.112 2.368V12H61.56V4.304h1.472v1.344c.47-.981 1.237-1.472 2.304-1.472.17 0 .336.016.496.048zm12.496.08l-3.28 3.248L78.392 12h-1.888l-2.512-3.392L72.92 9.68V12h-1.488V.416h1.488v7.296l3.328-3.408h2.08zm6.08 3.056h4.208c-.021-.576-.213-1.048-.576-1.416-.363-.368-.875-.552-1.536-.552-.597 0-1.088.195-1.472.584-.384.39-.592.85-.624 1.384zm4.432 2l1.296.448a3.408 3.408 0 0 1-1.248 1.752c-.608.453-1.344.68-2.208.68-1.077 0-1.992-.37-2.744-1.112-.752-.741-1.128-1.741-1.128-3 0-1.173.363-2.144 1.088-2.912.725-.768 1.59-1.152 2.592-1.152 1.163 0 2.07.365 2.72 1.096.65.73.976 1.71.976 2.936 0 .192-.01.352-.032.48H84.36c.01.683.237 1.243.68 1.68.443.437.99.656 1.64.656 1.099 0 1.819-.517 2.16-1.552zm9.28-7.488v2.432h1.664v1.36H98.12v4c0 .363.083.63.248.8.165.17.44.256.824.256.224 0 .421-.021.592-.064v1.28c-.256.096-.597.144-1.024.144-.661 0-1.184-.192-1.568-.576-.384-.384-.576-.923-.576-1.616V5.664h-1.472v-1.36h.416c.395 0 .69-.11.888-.328.197-.219.296-.504.296-.856V1.872h1.376z"/>
        <path stroke="#42BB18" stroke-linecap="square" stroke-width="2" d="M1.5 31.5h47"/>
    </g>
</svg>
