<svg width="41" height="41" viewBox="0 0 41 41" fill="none" xmlns="http://www.w3.org/2000/svg">
<path d="M39.2209 13.2532C40.2612 12.2119 40.2612 10.5246 39.2209 9.4833C38.1652 8.47828 36.5067 8.47828 35.451 9.4833L33.2686 11.6683C31.3047 10.2659 29.0474 9.32872 26.6676 8.92788V6.0341C28.1406 6.0341 29.3347 4.84001 29.3347 3.36703C29.3347 1.89404 28.1406 0.699951 26.6676 0.699951H21.3335C19.8605 0.699951 18.6664 1.89404 18.6664 3.36703C18.6664 4.84001 19.8605 6.0341 21.3335 6.0341V8.93788C18.9595 9.34635 16.7075 10.2821 14.7431 11.6763L12.5501 9.4833C11.4944 8.47828 9.83591 8.47828 8.78022 9.4833C7.73993 10.5246 7.73993 12.2119 8.78022 13.2532L10.9679 15.4409C10.4443 16.1686 9.98391 16.9398 9.59168 17.7459C9.48004 17.9613 9.49426 18.2204 9.62879 18.4223C9.76332 18.6243 9.99693 18.7372 10.2387 18.7171C10.4806 18.6971 10.6924 18.5473 10.7919 18.326C11.4108 17.0476 12.2139 15.8668 13.1756 14.8215L14.099 15.7456C14.3607 15.9983 14.7765 15.9947 15.0337 15.7375C15.2909 15.4803 15.2945 15.0644 15.0418 14.8028L14.1244 13.8846C15.216 12.8919 16.4496 12.0674 17.7843 11.4383L18.2817 12.6385C18.4225 12.9787 18.8125 13.1404 19.1528 12.9995C19.4931 12.8587 19.6547 12.4686 19.5139 12.1284L19.0138 10.9215C20.4018 10.4168 21.8584 10.1259 23.3338 10.0587V11.3683C23.3338 11.7365 23.6323 12.035 24.0006 12.035C24.3688 12.035 24.6673 11.7365 24.6673 11.3683V10.0514C26.1441 10.1168 27.6023 10.4063 28.992 10.9102L28.4872 12.1284C28.3466 12.4686 28.5084 12.8585 28.8486 12.9992C29.1887 13.1399 29.5785 12.9784 29.7194 12.6385L30.2228 11.4236C31.5598 12.0527 32.7945 12.8794 33.8854 13.876L32.9593 14.8028C32.7859 14.9702 32.7164 15.2181 32.7774 15.4512C32.8385 15.6843 33.0205 15.8664 33.2536 15.9274C33.4868 15.9884 33.7347 15.9189 33.9021 15.7456L34.8282 14.8188C35.8248 15.9097 36.6515 17.1444 37.2806 18.4813L36.0657 18.9841C35.8456 19.0752 35.6908 19.2768 35.6597 19.513C35.6286 19.7492 35.7258 19.984 35.9147 20.1291C36.1037 20.2742 36.3557 20.3074 36.5758 20.2163L37.794 19.7115C38.2978 21.1015 38.5874 22.5599 38.6528 24.0369H37.3359C36.9677 24.0369 36.6692 24.3354 36.6692 24.7036C36.6692 25.0719 36.9677 25.3704 37.3359 25.3704H38.6528C38.5874 26.8472 38.2979 28.3054 37.794 29.6951L36.5758 29.191C36.2356 29.0501 35.8455 29.2118 35.7047 29.552C35.5638 29.8923 35.7255 30.2823 36.0657 30.4232L37.2806 30.9259C36.6515 32.2629 35.8248 33.4976 34.8282 34.5885L33.9021 33.6617C33.7347 33.4883 33.4868 33.4188 33.2536 33.4798C33.0205 33.5409 32.8385 33.7229 32.7774 33.956C32.7164 34.1892 32.7859 34.4371 32.9593 34.6045L33.8854 35.5313C32.7945 36.5278 31.5598 37.3546 30.2228 37.9837L29.7194 36.7722C29.5786 36.4319 29.1886 36.2702 28.8483 36.4111C28.508 36.552 28.3464 36.942 28.4872 37.2822L28.992 38.5004C27.6021 39.0031 26.1439 39.2916 24.6673 39.3559V38.039C24.6673 37.6708 24.3688 37.3722 24.0006 37.3722C23.6323 37.3722 23.3338 37.6708 23.3338 38.039V39.3545C21.8575 39.2874 20.3999 38.9972 19.0105 38.4937L19.5139 37.2789C19.6547 36.9386 19.4931 36.5486 19.1528 36.4078C18.8125 36.2669 18.4225 36.4286 18.2817 36.7688L17.7776 37.9857C15.9021 37.1074 14.2345 35.8411 12.8848 34.2704C12.6407 34.0111 12.2359 33.9894 11.9655 34.2212C11.695 34.4529 11.6545 34.8563 11.8734 35.1372C17.4473 41.6149 27.1285 42.567 33.8575 37.2992C40.5865 32.0315 41.9862 22.4047 37.0359 15.4389L39.2209 13.2532ZM19.9999 3.36703C19.9999 2.63053 20.597 2.03349 21.3335 2.03349H26.6676C27.4041 2.03349 28.0012 2.63053 28.0012 3.36703C28.0012 4.10352 27.4041 4.70056 26.6676 4.70056H21.3335C20.597 4.70056 19.9999 4.10352 19.9999 3.36703V3.36703ZM22.667 6.0341H25.3341V8.76119C24.894 8.72452 24.45 8.70118 24.0006 8.70118C23.5512 8.70118 23.1091 8.72585 22.667 8.76385V6.0341ZM11.794 14.3821L9.72303 12.3104C9.23882 11.7843 9.25569 10.9699 9.76128 10.4644C10.2669 9.95877 11.0812 9.9419 11.6073 10.4261L13.6743 12.4931C12.9965 13.0698 12.3676 13.7016 11.794 14.3821V14.3821ZM34.3268 12.4931L36.3938 10.4261C36.9199 9.9419 37.7342 9.95877 38.2398 10.4644C38.7454 10.9699 38.7623 11.7843 38.2781 12.3104L36.2111 14.3774C35.6364 13.698 35.0062 13.0678 34.3268 12.4931V12.4931Z" fill="black"/>
<path d="M6.67188 24.7036C6.67188 25.0719 6.9704 25.3704 7.33864 25.3704H18.6737C19.042 25.3704 19.3405 25.0719 19.3405 24.7036C19.3405 24.3354 19.042 24.0369 18.6737 24.0369H7.33864C6.9704 24.0369 6.67188 24.3354 6.67188 24.7036Z" fill="#0665FF"/>
<path d="M16.6737 20.0363H5.33864C4.9704 20.0363 4.67188 20.3348 4.67188 20.703C4.67188 21.0713 4.9704 21.3698 5.33864 21.3698H16.6737C17.042 21.3698 17.3405 21.0713 17.3405 20.703C17.3405 20.3348 17.042 20.0363 16.6737 20.0363Z" fill="#0665FF"/>
<path d="M17.3405 28.7042C17.3405 28.336 17.042 28.0375 16.6737 28.0375H5.33864C4.9704 28.0375 4.67188 28.336 4.67188 28.7042C4.67188 29.0725 4.9704 29.371 5.33864 29.371H16.6737C17.042 29.371 17.3405 29.0725 17.3405 28.7042Z" fill="#0665FF"/>
<path d="M0.666769 21.3698H2.66708C3.03532 21.3698 3.33384 21.0713 3.33384 20.703C3.33384 20.3348 3.03532 20.0363 2.66708 20.0363H0.666769C0.298523 20.0363 0 20.3348 0 20.703C0 21.0713 0.298523 21.3698 0.666769 21.3698Z" fill="#0665FF"/>
<path d="M2.66677 24.0369C2.29852 24.0369 2 24.3354 2 24.7036C2 25.0719 2.29852 25.3704 2.66677 25.3704H4.66708C5.03532 25.3704 5.33384 25.0719 5.33384 24.7036C5.33384 24.3354 5.03532 24.0369 4.66708 24.0369H2.66677Z" fill="#0665FF"/>
<path d="M3.33384 28.7042C3.33384 28.336 3.03532 28.0375 2.66708 28.0375H0.666769C0.298523 28.0375 0 28.336 0 28.7042C0 29.0725 0.298523 29.371 0.666769 29.371H2.66708C3.03532 29.371 3.33384 29.0725 3.33384 28.7042Z" fill="#0665FF"/>
<path d="M19.3405 32.0381C19.3405 31.6699 19.042 31.3713 18.6737 31.3713H7.33864C6.9704 31.3713 6.67188 31.6699 6.67188 32.0381C6.67188 32.4064 6.9704 32.7049 7.33864 32.7049H18.6737C19.042 32.7049 19.3405 32.4064 19.3405 32.0381Z" fill="#0665FF"/>
<path d="M4.66708 31.3713H2.66677C2.29852 31.3713 2 31.6699 2 32.0381C2 32.4064 2.29852 32.7049 2.66677 32.7049H4.66708C5.03532 32.7049 5.33384 32.4064 5.33384 32.0381C5.33384 31.6699 5.03532 31.3713 4.66708 31.3713Z" fill="#0665FF"/>
<path d="M24.0032 14.0353C23.635 14.0353 23.3364 14.3338 23.3364 14.702V22.1312C22.036 22.4669 21.1882 23.7173 21.3574 25.0496C21.5266 26.382 22.6602 27.3806 24.0032 27.3806C25.3463 27.3806 26.4798 26.382 26.649 25.0496C26.8183 23.7173 25.9704 22.4669 24.67 22.1312V14.702C24.67 14.3338 24.3715 14.0353 24.0032 14.0353V14.0353ZM25.3367 24.7036C25.3367 25.4401 24.7397 26.0371 24.0032 26.0371C23.2667 26.0371 22.6697 25.4401 22.6697 24.7036C22.6697 23.9671 23.2667 23.37 24.0032 23.37C24.7397 23.37 25.3367 23.9671 25.3367 24.7036Z" fill="#0665FF"/>
</svg>
