<svg width="34" height="41" viewBox="0 0 34 41" fill="none" xmlns="http://www.w3.org/2000/svg">
<path d="M31.4531 2.03331H29.4531V1.36659C29.4531 0.998389 29.1547 0.699951 28.7865 0.699951C28.4183 0.699951 28.1198 0.998389 28.1198 1.36659V2.03323H20.1198V1.36659C20.1198 0.998389 19.8214 0.699951 19.4532 0.699951C19.085 0.699951 18.7866 0.998389 18.7866 1.36659V2.03323H10.7866V1.36659C10.7866 0.998389 10.4881 0.699951 10.1199 0.699951C9.75172 0.699951 9.45328 0.998389 9.45328 1.36659V2.03323H7.45328C6.34922 2.0344 5.45445 2.92917 5.45328 4.03323V16.7C5.45328 17.0682 5.75172 17.3666 6.11992 17.3666C6.48812 17.3666 6.78656 17.0681 6.78656 16.7V4.03331C6.78703 3.66534 7.08523 3.36714 7.4532 3.36667H9.4532V4.82284C8.53484 5.14753 7.98398 6.08659 8.14867 7.04667C8.31336 8.00675 9.14578 8.70847 10.1198 8.70847C11.0939 8.70847 11.9263 8.00675 12.091 7.04667C12.2557 6.08659 11.7048 5.14753 10.7865 4.82284V3.36659H18.7865V4.82276C17.8681 5.14745 17.3173 6.08651 17.482 7.04659C17.6466 8.00667 18.4791 8.70839 19.4531 8.70839C20.4272 8.70839 21.2596 8.00667 21.4243 7.04659C21.589 6.08651 21.0381 5.14745 20.1198 4.82276V3.36659H28.1198V4.82276C27.2014 5.14745 26.6505 6.08651 26.8152 7.04659C26.9799 8.00667 27.8123 8.70839 28.7864 8.70839C29.7605 8.70839 30.5929 8.00667 30.7576 7.04659C30.9223 6.08651 30.3714 5.14745 29.453 4.82276V3.36659H31.453C31.821 3.36706 32.1192 3.66526 32.1197 4.03323V38.7C32.1192 39.0679 31.821 39.3661 31.453 39.3666H7.45305C7.08508 39.3661 6.78688 39.0679 6.78641 38.7V29.3666C6.78641 28.9984 6.48797 28.7 6.11977 28.7C5.75156 28.7 5.45312 28.9984 5.45312 29.3666V38.7C5.4543 39.804 6.34906 40.6988 7.45312 40.7H31.4531C32.5572 40.6988 33.452 39.804 33.4531 38.7V4.03331C33.452 2.92925 32.5572 2.03448 31.4531 2.03331ZM10.1198 7.36659C9.75156 7.36659 9.45313 7.06815 9.45313 6.69995C9.45313 6.33175 9.75156 6.03331 10.1198 6.03331C10.488 6.03331 10.7864 6.33175 10.7864 6.69995C10.786 7.06792 10.4878 7.36612 10.1198 7.36659ZM19.4531 7.36659C19.0849 7.36659 18.7865 7.06815 18.7865 6.69995C18.7865 6.33175 19.0849 6.03331 19.4531 6.03331C19.8213 6.03331 20.1198 6.33175 20.1198 6.69995C20.1193 7.06792 19.8211 7.36612 19.4531 7.36659ZM28.7865 7.36659C28.4183 7.36659 28.1198 7.06815 28.1198 6.69995C28.1198 6.33175 28.4183 6.03331 28.7865 6.03331C29.1547 6.03331 29.4531 6.33175 29.4531 6.69995C29.4527 7.06792 29.1545 7.36612 28.7865 7.36659Z" fill="black"/>
<path d="M10.1207 14.6999C10.1363 14.6999 10.1523 14.6992 10.1679 14.6983C10.3606 14.6846 10.538 14.5879 10.6539 14.4333L12.6539 11.7666C12.7969 11.5762 12.8273 11.3239 12.7338 11.1048C12.6402 10.8858 12.437 10.7333 12.2006 10.7048C11.9641 10.6762 11.7304 10.776 11.5875 10.9665L10.0484 13.0183L9.25868 12.2286C8.99766 11.9723 8.57891 11.9742 8.32024 12.2328C8.06157 12.4914 8.05969 12.9102 8.31602 13.1712L9.64938 14.5046C9.7743 14.6297 9.94391 14.7 10.1207 14.6999Z" fill="#0665FF"/>
<path d="M8.31602 20.5045L9.64938 21.8379C9.7743 21.963 9.94391 22.0333 10.1207 22.0332C10.1363 22.0332 10.1523 22.0326 10.1679 22.0316C10.3606 22.0179 10.538 21.9212 10.6539 21.7666L12.6539 19.0999C12.8749 18.8055 12.8152 18.3876 12.5208 18.1666C12.2263 17.9457 11.8084 18.0053 11.5875 18.2998L10.0484 20.3516L9.25868 19.5619C8.99766 19.3055 8.57891 19.3075 8.32024 19.5661C8.06157 19.8248 8.05969 20.2435 8.31602 20.5045Z" fill="#0665FF"/>
<path d="M14.7916 14.0334H30.125C30.4932 14.0334 30.7916 13.7349 30.7916 13.3667C30.7916 12.9985 30.4932 12.7001 30.125 12.7001H14.7916C14.4234 12.7001 14.125 12.9985 14.125 13.3667C14.125 13.7349 14.4234 14.0334 14.7916 14.0334Z" fill="#0665FF"/>
<path d="M14.7916 21.3665H30.125C30.4932 21.3665 30.7916 21.068 30.7916 20.6998C30.7916 20.3316 30.4932 20.0332 30.125 20.0332H14.7916C14.4234 20.0332 14.125 20.3316 14.125 20.6998C14.125 21.068 14.4234 21.3665 14.7916 21.3665Z" fill="#0665FF"/>
<path d="M14.7916 28.7H30.125C30.4932 28.7 30.7916 28.4015 30.7916 28.0333C30.7916 27.6651 30.4932 27.3667 30.125 27.3667H14.7916C14.4234 27.3667 14.125 27.6651 14.125 28.0333C14.125 28.4015 14.4234 28.7 14.7916 28.7Z" fill="#0665FF"/>
<path d="M14.7916 36.0334H30.125C30.4932 36.0334 30.7916 35.7349 30.7916 35.3667C30.7916 34.9985 30.4932 34.7001 30.125 34.7001H14.7916C14.4234 34.7001 14.125 34.9985 14.125 35.3667C14.125 35.7349 14.4234 36.0334 14.7916 36.0334Z" fill="#0665FF"/>
<path d="M9.83137 28.0181L10.318 28.5047C10.486 28.675 10.7324 28.7423 10.9636 28.6809C11.1949 28.6195 11.3754 28.4389 11.4368 28.2077C11.4982 27.9764 11.431 27.73 11.2607 27.5621L10.7863 27.0877C10.7728 25.7947 10.2794 24.5529 9.402 23.6031L3.61036 17.3286C3.25372 16.9432 2.76317 16.7089 2.23926 16.6736C2.20036 16.6707 2.16309 16.6605 2.12372 16.6597H2.12341C1.70341 16.6565 1.29153 16.7759 0.938406 17.0032C0.820515 17.0803 0.710984 17.1693 0.611374 17.2688C-0.180891 18.0568 -0.20636 19.3309 0.553718 20.15L1.5527 21.2323L1.55294 21.2325L6.277 26.3501C7.20114 27.3454 8.47528 27.9432 9.83137 28.0181ZM1.53348 19.2456C1.33239 19.0278 1.27926 18.7117 1.39801 18.4401C1.51676 18.1686 1.78497 17.9929 2.08137 17.9927L2.097 17.993C2.30012 17.9962 2.49302 18.083 2.6302 18.2329L3.11817 18.7616L2.062 19.8181L1.53348 19.2456ZM4.02341 19.742L8.42216 24.5073C8.96755 25.0965 9.31692 25.8403 9.42216 26.6362C8.59067 26.4839 7.83091 26.0662 7.25676 25.4458L2.96692 20.7985L4.02341 19.742Z" fill="black"/>
</svg>
