<svg width="173" height="50" viewBox="0 0 173 50" fill="none" xmlns="http://www.w3.org/2000/svg">
<g clip-path="url(#clip0_116_36)">
<path d="M44.9331 0H52.7876V49.0908H44.9331V0ZM80.2784 33.4308C80.2784 40.9437 73.9614 41.5426 72.0822 41.5426C67.3872 41.5426 66.533 37.148 66.533 34.4971V15.7091H58.6785V34.4578C58.6785 39.1116 60.1394 42.9525 62.7 45.5131C64.9621 47.7771 68.3513 49.0142 72.0233 49.0142C74.6271 49.0142 78.3148 48.2032 80.2784 46.4104V49.0908H88.133V15.7091H80.2784V33.4308ZM103.842 3.92726H95.9875V15.7091H90.0966V23.5636H95.9875V49.0908H103.842V23.5636H109.733V15.7091H103.842V3.92726ZM134.469 39.1097C132.758 40.6472 130.5 41.4994 128.022 41.4994C122.559 41.4994 118.548 37.4877 118.548 31.9797C118.548 26.4717 122.432 22.6289 128.022 22.6289C130.457 22.6289 132.758 23.4399 134.512 24.9774L135.704 26.0024L141 20.7085L139.674 19.5126C136.558 16.6987 132.421 15.12 128.02 15.12C118.202 15.12 111.072 22.2047 111.072 31.9385C111.072 41.631 118.373 48.9691 128.02 48.9691C132.503 48.9691 136.684 47.3903 139.761 44.5312L141.041 43.3354L135.663 38.0454L134.469 39.1097ZM169.035 18.6192C166.772 16.3571 164.122 15.12 160.45 15.12C157.846 15.12 154.896 15.9309 152.933 17.7218V0H145.078V49.0908H152.933V30.7014C152.933 23.1885 158.27 22.5916 160.149 22.5916C164.844 22.5916 164.715 26.9882 164.715 29.6351V49.0908H172.569V29.6764C172.569 25.0226 171.597 21.1817 169.035 18.6192Z" fill="#17313B"/>
<path d="M127.763 26.3873C129.269 26.3873 130.714 26.9856 131.779 28.0506C132.844 29.1156 133.442 30.56 133.442 32.0661C133.442 33.5722 132.844 35.0167 131.779 36.0817C130.714 37.1466 129.269 37.7449 127.763 37.7449C126.257 37.7449 124.813 37.1466 123.748 36.0817C122.683 35.0167 122.084 33.5722 122.084 32.0661C122.084 30.56 122.683 29.1156 123.748 28.0506C124.813 26.9856 126.257 26.3873 127.763 26.3873Z" fill="#FF3D2E"/>
<path d="M33.9369 36.7612C30.9502 39.8343 26.8933 41.4994 22.6244 41.4994C13.8745 41.4994 7.51229 34.6267 7.51229 25.1934C7.51229 15.7169 13.8745 8.84421 22.6244 8.84421C26.8521 8.84421 30.8638 10.5074 33.8956 13.5393L35.0895 14.7351L40.3403 9.48436L39.1876 8.28851C34.8343 3.80553 28.9434 1.37456 22.6244 1.37456C9.73316 1.37456 0.0426331 11.6188 0.0426331 25.2346C0.0426331 38.8092 9.77635 49.0123 22.6244 49.0123C28.9866 49.0123 34.8775 46.5381 39.2308 42.0551L40.3835 40.8593L35.1759 35.5241L33.9369 36.7612Z" fill="#17313B"/>
</g>
<defs>
<clipPath id="clip0_116_36">
<rect width="172.612" height="49.0908" fill="white"/>
</clipPath>
</defs>
</svg>
