<svg width="40" height="41" viewBox="0 0 40 41" fill="none" xmlns="http://www.w3.org/2000/svg">
<path d="M15.6915 5.95998C15.9057 5.83779 16.0349 5.60734 16.0275 5.36084C16.0201 5.11435 15.8772 4.89209 15.6561 4.78301C15.4349 4.67392 15.1716 4.69584 14.9715 4.83998C14.4565 5.16819 13.9763 5.54792 13.5382 5.97331C13.3048 6.23281 13.311 6.62839 13.5525 6.88037C13.794 7.13235 14.189 7.15544 14.4582 6.93331C14.8356 6.56839 15.2488 6.24231 15.6915 5.95998Z" fill="#0665FF"/>
<path d="M12.6195 8.10673C12.4622 8.02506 12.2789 8.00939 12.11 8.06318C11.9411 8.11697 11.8006 8.2358 11.7195 8.3934C11.1209 9.50191 10.762 10.7239 10.6662 11.9801C10.6471 12.2182 10.7566 12.4485 10.9533 12.5841C11.1501 12.7197 11.4042 12.74 11.62 12.6374C11.8358 12.5348 11.9805 12.3249 11.9995 12.0867C12.0776 11.0104 12.3772 9.96182 12.8795 9.00673C13.0538 8.68613 12.9379 8.28503 12.6195 8.10673V8.10673Z" fill="#0665FF"/>
<path d="M27.7343 16.64C28.073 16.7833 28.4638 16.6252 28.6076 16.2867C29.0855 15.1514 29.3303 13.9317 29.3276 12.7C29.3276 12.3318 29.0292 12.0333 28.661 12.0333C28.2928 12.0333 27.9943 12.3318 27.9943 12.7C27.9957 13.7528 27.7872 14.7954 27.381 15.7667C27.2377 16.1054 27.3958 16.4962 27.7343 16.64Z" fill="#0665FF"/>
<path d="M37.0666 31.74L27.42 27.88C27.3115 27.1856 27.0668 26.5195 26.7 25.92C26.8734 23.9596 27.6754 22.1076 28.9866 20.64C32.2675 16.9219 32.9236 11.5689 30.6378 7.16853C28.3519 2.76821 23.5951 0.226984 18.6666 0.773333C9.20665 1.82 4.51333 13.2267 10.9733 20.5933C12.3018 22.0749 13.1176 23.945 13.3 25.9266C12.93 26.5391 12.6853 27.2189 12.58 27.9266L2.93333 31.74C1.16151 32.4488 -0.000209685 34.165 2.83882e-08 36.0733V40.0333C2.83882e-08 40.4015 0.298476 40.7 0.666666 40.7H39.3333C39.7015 40.7 39.9999 40.4015 39.9999 40.0333V36.0733C40.0002 34.165 38.8384 32.4488 37.0666 31.74V31.74ZM25.6533 33.3666L21.8066 30.5533C22.9456 30.3273 24.043 29.9271 25.06 29.3666C25.4996 29.1372 25.8718 28.7971 26.14 28.38C26.2805 30.0579 26.1157 31.7475 25.6533 33.3666V33.3666ZM20 33.0866L18.7133 31.8L20 30.86L21.2866 31.8L20 33.0866ZM13.86 28.38C14.1281 28.7971 14.5004 29.1372 14.94 29.3666C15.9585 29.9178 17.0558 30.3091 18.1933 30.5266L14.3733 33.32C13.8983 31.7192 13.7243 30.0442 13.86 28.38ZM9.42665 11.2733C10.0381 6.74597 13.4648 3.11067 17.9481 2.23301C22.4315 1.35535 26.976 3.43022 29.2494 7.39282C31.5229 11.3554 31.0204 16.3258 28 19.7533C26.3008 21.6521 25.3527 24.1054 25.3333 26.6533C25.3377 27.2909 24.9956 27.8806 24.44 28.1933C21.6892 29.7673 18.3107 29.7673 15.56 28.1933C15.0043 27.8806 14.6623 27.2909 14.6666 26.6533C14.6521 24.0925 13.7039 21.625 12 19.7133C9.95083 17.4108 9.01073 14.3275 9.42665 11.2733V11.2733ZM1.33333 36.0733C1.33365 34.7114 2.16247 33.4866 3.42666 32.98L12.46 29.3666C12.481 30.8655 12.7053 32.3547 13.1266 33.7933C13.2426 34.1836 13.54 34.4938 13.925 34.6261C14.31 34.7584 14.7353 34.6965 15.0666 34.46L17.6266 32.5933L19.2133 34.1733L16.9 39.3666H9.33332V38.0333C9.33332 37.6651 9.03484 37.3666 8.66666 37.3666C8.29847 37.3666 7.99999 37.6651 7.99999 38.0333V39.3666H1.33333V36.0733ZM18.36 39.3666L20 35.6733L21.64 39.3666H18.36ZM38.6666 39.3666H32V38.0333C32 37.6651 31.7015 37.3666 31.3333 37.3666C30.9651 37.3666 30.6666 37.6651 30.6666 38.0333V39.3666H23.1L20.7933 34.18L22.38 32.6L24.9666 34.4866C25.2974 34.7089 25.7135 34.7626 26.0899 34.6314C26.4662 34.5003 26.7589 34.1997 26.88 33.82C27.3014 32.3813 27.5256 30.8922 27.5466 29.3933L36.58 33.0066C37.8325 33.5117 38.6566 34.7227 38.6666 36.0733V39.3666Z" fill="black"/>
<path d="M39.3333 12.0333H34.6667C34.2985 12.0333 34 12.3318 34 12.7C34 13.0682 34.2985 13.3667 34.6667 13.3667H39.3333C39.7015 13.3667 40 13.0682 40 12.7C40 12.3318 39.7015 12.0333 39.3333 12.0333Z" fill="#0665FF"/>
<path d="M33.9972 7.36664C34.2638 7.36664 34.0572 7.43997 37.6705 5.27331C37.947 5.07224 38.0266 4.69461 37.8547 4.39907C37.6829 4.10352 37.3154 3.98585 37.0038 4.12664L33.6705 6.12664C33.4143 6.27853 33.2899 6.58193 33.3658 6.86994C33.4417 7.15795 33.6994 7.3607 33.9972 7.36664Z" fill="#0665FF"/>
<path d="M33.66 19.2733C37.3334 21.46 37.08 21.3666 37.3334 21.3666C37.6336 21.3666 37.8967 21.1658 37.9761 20.8763C38.0555 20.5867 37.9315 20.2799 37.6734 20.1267L34.34 18.1267C34.1342 17.977 33.8612 17.9575 33.6362 18.0765C33.4113 18.1955 33.2737 18.4321 33.2816 18.6865C33.2895 18.9408 33.4415 19.1685 33.6734 19.2733H33.66Z" fill="#0665FF"/>
<path d="M0.666666 13.3667H5.33333C5.70152 13.3667 5.99999 13.0682 5.99999 12.7C5.99999 12.3318 5.70152 12.0333 5.33333 12.0333H0.666666C0.298476 12.0333 0 12.3318 0 12.7C0 13.0682 0.298476 13.3667 0.666666 13.3667Z" fill="#0665FF"/>
<path d="M6.33711 6.12664L3.00378 4.12664C2.69225 3.98585 2.32471 4.10352 2.15289 4.39907C1.98106 4.69461 2.06063 5.07224 2.33712 5.27331L5.67044 7.27331C5.98197 7.4141 6.34951 7.29643 6.52134 7.00088C6.69317 6.70534 6.61359 6.32772 6.33711 6.12664V6.12664Z" fill="#0665FF"/>
<path d="M5.66294 18.1266L2.32961 20.1266C2.09772 20.2314 1.94572 20.4591 1.93782 20.7135C1.92993 20.9678 2.06752 21.2045 2.29247 21.3235C2.51741 21.4424 2.79047 21.423 2.99628 21.2733L6.3296 19.2733C6.60609 19.0722 6.68566 18.6946 6.51383 18.3991C6.342 18.1035 5.97447 17.9859 5.66294 18.1266V18.1266Z" fill="#0665FF"/>
</svg>
