<svg width="33" height="41" viewBox="0 0 33 41" fill="none" xmlns="http://www.w3.org/2000/svg">
<path d="M1.36367 18.9577C1.71526 19.3983 1.87402 19.9622 1.80395 20.5215L1.67887 21.5074C1.49994 23.0888 2.40235 24.594 3.88143 25.1813L4.84129 25.5744C5.3812 25.7891 5.8172 26.2043 6.05817 26.733L6.46896 27.6496C6.87755 28.538 7.62831 29.2232 8.55024 29.5492L6.39218 37.1891C6.2679 37.6338 6.3824 38.1111 6.69489 38.451C7.00738 38.791 7.47342 38.9452 7.92699 38.8587L10.9355 38.2903L13.1989 40.3472C13.4418 40.574 13.7617 40.7 14.094 40.7C14.2183 40.6999 14.3419 40.6826 14.4614 40.6485C14.909 40.5239 15.2583 40.1736 15.3816 39.7258L16.8304 34.5975L20.0524 38.2476C20.3594 38.5932 20.8233 38.7555 21.2787 38.6765C21.7341 38.5976 22.1164 38.2887 22.2891 37.86L23.4365 35.0256L26.3993 34.2384C26.8448 34.1177 27.1966 33.7757 27.3298 33.3338C27.463 32.8918 27.3589 32.4124 27.0543 32.0656L24.3932 29.0489C24.8928 28.6909 25.2901 28.2084 25.5455 27.6494L25.9563 26.7331C26.1974 26.2043 26.6335 25.7891 27.1735 25.5742L28.1328 25.1814C29.6121 24.5944 30.5146 23.089 30.3353 21.5076L30.2109 20.522V20.5213C30.1405 19.962 30.2993 19.398 30.6512 18.9575L31.2765 18.1605C32.2597 16.9122 32.2597 15.1529 31.2765 13.9045L30.6506 13.1072C30.299 12.6663 30.1404 12.1022 30.2108 11.5427L30.3352 10.5577C30.5146 8.97626 29.6121 7.47073 28.1327 6.8836L27.1726 6.49056C26.6328 6.27584 26.1968 5.86087 25.9557 5.33231L25.5449 4.41541C24.8653 2.96884 23.3348 2.12105 21.748 2.31224L20.7164 2.43125C20.1189 2.50262 19.5162 2.34887 19.0259 1.99998L18.1917 1.40228C16.8856 0.465841 15.128 0.465841 13.8218 1.40228L12.9873 2.00032C12.4973 2.34964 11.8946 2.50333 11.2971 2.43125L10.2656 2.31204C8.67856 2.11932 7.14716 2.96758 6.46869 4.41521L6.05791 5.33178C5.81681 5.86055 5.38073 6.27572 4.84075 6.49056L3.88123 6.8834C2.40202 7.47079 1.49959 8.97621 1.67867 10.5577L1.80375 11.5429C1.87386 12.1024 1.7151 12.6664 1.36347 13.1071L0.737753 13.9041C-0.245918 15.1525 -0.245918 16.9123 0.737753 18.1607L1.36367 18.9577ZM14.1007 39.3642L11.8447 37.3141C11.5357 37.0205 11.1039 36.894 10.6852 36.9744L7.67671 37.5509L9.87513 29.7664C10.0055 29.7689 10.136 29.7644 10.2659 29.7531L11.2974 29.6339C11.7657 29.5796 12.2397 29.663 12.6613 29.874L15.78 33.4076L14.1007 39.3642ZM26.0548 32.9494L23.0924 33.7366C22.6886 33.8467 22.3586 34.1378 22.1992 34.5248L21.05 37.3616L15.7387 31.3439C15.8283 31.3506 15.9174 31.3645 16.0071 31.3645C16.791 31.3648 17.5552 31.1192 18.1921 30.6622L19.0262 30.0645C19.5162 29.7149 20.1192 29.5612 20.7168 29.6336L21.7483 29.7528C22.2139 29.803 22.6849 29.7653 23.1367 29.6416L26.0548 32.9494ZM1.78747 14.7282L2.41319 13.9312C2.98583 13.2102 3.24337 12.2886 3.1275 11.3752L3.00242 10.3899C2.89869 9.40712 3.46576 8.47657 4.38674 8.11823L5.346 7.72572C6.20332 7.38154 6.89458 6.71954 7.27553 5.87791L7.68631 4.96128C8.12434 4.04233 9.10279 3.50839 10.1126 3.63726L11.1441 3.75647C12.0709 3.86703 13.0056 3.62752 13.7649 3.08485L14.5988 2.48715C15.4433 1.89299 16.5699 1.89299 17.4144 2.48715L18.2482 3.08452C19.0075 3.62804 19.9428 3.86768 20.8699 3.75627L21.9014 3.63706C22.911 3.50879 23.8891 4.04242 24.3277 4.96081L24.7384 5.87771C25.1192 6.71937 25.8104 7.38138 26.6677 7.72552L27.6269 8.11836C28.5482 8.47664 29.1153 9.40757 29.0112 10.3906L28.8868 11.3752C28.7706 12.2886 29.028 13.2101 29.6006 13.9312L30.226 14.7282C30.8383 15.4901 30.8383 16.5754 30.226 17.3373L29.6012 18.1339C29.0282 18.8545 28.7705 19.776 28.8866 20.6893L29.011 21.6755C29.115 22.6583 28.5478 23.589 27.6267 23.9471L26.6678 24.3396C25.8102 24.6837 25.1189 25.3459 24.7382 26.1878L24.3275 27.104C23.8885 28.0221 22.9107 28.5556 21.9012 28.4281L20.8699 28.3086C19.943 28.1974 19.0082 28.437 18.249 28.9802L17.4152 29.5779C16.5705 30.1718 15.4441 30.1719 14.5993 29.5782L13.7655 28.9798C13.6441 28.8962 13.5179 28.82 13.3875 28.7516C13.3776 28.7464 13.3692 28.7391 13.3591 28.7344C12.8144 28.4392 12.2049 28.284 11.5854 28.2827C11.4381 28.2827 11.2909 28.2913 11.1446 28.3085L10.1131 28.4277C9.10383 28.5538 8.12688 28.0207 7.68685 27.1036L7.27606 26.1871C6.89549 25.3453 6.20422 24.6832 5.3468 24.3392L4.38727 23.9464C3.46629 23.5881 2.89921 22.6576 3.00295 21.6748L3.12803 20.6889C3.24385 19.7755 2.98632 18.8541 2.41372 18.1332L1.78747 17.3373C1.17492 16.5754 1.17492 15.49 1.78747 14.7282V14.7282Z" fill="#0665FF"/>
<path d="M16.0062 26.0546C21.5324 26.0546 26.0124 21.5747 26.0124 16.0484C26.0124 10.5222 21.5324 6.04224 16.0062 6.04224C10.4799 6.04224 6 10.5222 6 16.0484C6.00629 21.5721 10.4825 26.0483 16.0062 26.0546ZM16.0062 7.37639C20.7956 7.37639 24.6782 11.259 24.6782 16.0484C24.6782 20.8378 20.7956 24.7204 16.0062 24.7204C11.2168 24.7204 7.33416 20.8378 7.33416 16.0484C7.33945 11.2612 11.2189 7.38169 16.0062 7.37639Z" fill="black"/>
</svg>
