<svg width="32" height="26" viewBox="0 0 32 26" fill="none" xmlns="http://www.w3.org/2000/svg">
<path fill-rule="evenodd" clip-rule="evenodd" d="M2.5 4.35059V19.3506H5V4.35059C5 3.66025 5.55967 3.10058 6.25 3.10058H29.5V0.600586H6.25C4.17896 0.600586 2.5 2.27954 2.5 4.35059Z" fill="#0665FF"/>
<path fill-rule="evenodd" clip-rule="evenodd" d="M19.5 21.8506C19.5 23.9216 21.179 25.6006 23.25 25.6006H28.25C30.321 25.6006 32 23.9216 32 21.8506V9.35059C32 7.27954 30.321 5.60059 28.25 5.60059H23.25C21.179 5.60059 19.5 7.27954 19.5 9.35059V21.8506ZM23.25 23.1006C22.5597 23.1006 22 22.5409 22 21.8506V9.35059C22 8.66026 22.5597 8.10059 23.25 8.10059H28.25C28.9403 8.10059 29.5 8.66026 29.5 9.35059V21.8506C29.5 22.5409 28.9403 23.1006 28.25 23.1006H23.25Z" fill="#0665FF"/>
<path fill-rule="evenodd" clip-rule="evenodd" d="M27 18.1006H24.5V20.6006H27V18.1006Z" fill="#0665FF"/>
<path fill-rule="evenodd" clip-rule="evenodd" d="M0 21.8506C0 23.9216 1.67896 25.6006 3.75 25.6006H17V23.1006H3.75C3.05967 23.1006 2.5 22.5409 2.5 21.8506V20.6006H17V18.1006H0V21.8506Z" fill="#0665FF"/>
</svg>
