<svg width="29" height="33" viewBox="0 0 29 33" fill="none" xmlns="http://www.w3.org/2000/svg">
<path d="M12.125 27.1004C11.4346 27.1004 10.875 26.5408 10.875 25.8504C10.875 25.16 11.4346 24.6004 12.125 24.6004C12.8154 24.6004 13.375 25.16 13.375 25.8504C13.375 26.5408 12.8154 27.1004 12.125 27.1004Z" fill="white"/>
<path d="M17.7449 22.2879L21.25 9.8504H18.6526L15.1475 22.2879H17.7449Z" fill="white"/>
<path fill-rule="evenodd" clip-rule="evenodd" d="M0.375 28.3428C0.375 30.4139 2.05389 32.0928 4.125 32.0928H20.125C22.1961 32.0928 23.875 30.4139 23.875 28.3428V24.6629H21.375V28.3428C21.375 29.0332 20.8154 29.5928 20.125 29.5928H4.125C3.43461 29.5928 2.875 29.0332 2.875 28.3428V3.84277C2.875 3.15242 3.43463 2.59277 4.125 2.59277H20.125C20.8154 2.59277 21.375 3.15242 21.375 3.84277V7.4129H23.875V3.84277C23.875 1.77175 22.1961 0.0927734 20.125 0.0927734H4.125C2.05387 0.0927734 0.375 1.77175 0.375 3.84277V28.3428Z" fill="#0665FF"/>
<path fill-rule="evenodd" clip-rule="evenodd" d="M9.625 7.6004H14.625V5.1004H9.625V7.6004Z" fill="#0665FF"/>
<path d="M12.125 27.1004C11.4346 27.1004 10.875 26.5408 10.875 25.8504C10.875 25.16 11.4346 24.6004 12.125 24.6004C12.8154 24.6004 13.375 25.16 13.375 25.8504C13.375 26.5408 12.8154 27.1004 12.125 27.1004Z" fill="#0665FF"/>
<path d="M17.7449 22.2879L21.25 9.8504H18.6526L15.1475 22.2879H17.7449Z" fill="#0665FF"/>
<path fill-rule="evenodd" clip-rule="evenodd" d="M10.9935 16.1004L14.4342 19.0226L12.8158 20.9281L7.13154 16.1004L12.8158 11.2726L14.4342 13.1781L10.9935 16.1004Z" fill="#0665FF"/>
<path fill-rule="evenodd" clip-rule="evenodd" d="M23.4342 20.9281L29.1185 16.1004L23.4342 11.2726L21.8158 13.1781L25.2565 16.1004L21.8158 19.0226L23.4342 20.9281Z" fill="#0665FF"/>
</svg>
