<svg width="64" height="64" viewBox="0 0 64 64" fill="none" xmlns="http://www.w3.org/2000/svg">
<g clip-path="url(#clip0_535_6379)">
<path d="M51.938 55.7421L49.5483 48.572C48.7132 46.0688 46.5826 44.2211 43.9854 43.7483L37.0869 42.4931V41.9584C38.2874 41.2616 39.332 40.3295 40.164 39.226H42.2482C43.9555 39.226 45.3449 37.8366 45.3449 36.1292V23.7421C45.3449 16.3429 39.3248 10.3228 31.9256 10.3228C24.5263 10.3228 18.5062 16.3429 18.5062 23.7421V30.9679C18.5062 32.9581 19.9214 34.6231 21.7981 35.0113C22.3772 37.978 24.2311 40.4884 26.7643 41.9584V42.4931L19.8647 43.7483C17.2685 44.2211 15.1369 46.0688 14.3029 48.572L13.89 49.8118L10.3741 46.2959C9.97151 45.8933 9.97151 45.2378 10.3741 44.8353L14.4515 40.7589L6.79835 33.1057L2.19035 37.7137C0.825703 39.0784 0.0742188 40.8931 0.0742188 42.8234C0.0742188 44.7537 0.825703 46.5674 2.19035 47.932L16.1413 61.883C17.506 63.2477 19.3207 64.0002 21.251 64.0002C23.1813 64.0002 24.995 63.2477 26.3276 61.914L31.3558 57.307L29.7878 55.7421H51.938ZM43.2804 36.1292C43.2804 36.699 42.8169 37.1615 42.2482 37.1615H41.38C41.6794 36.4791 41.9065 35.7597 42.0531 35.0113C42.4949 34.9194 42.9016 34.7439 43.2804 34.523V36.1292ZM42.2482 32.7455V29.1904C42.8624 29.5486 43.2804 30.2071 43.2804 30.9679C43.2804 31.7287 42.8624 32.3873 42.2482 32.7455ZM21.603 32.7455C20.9888 32.3873 20.5707 31.7287 20.5707 30.9679C20.5707 30.2071 20.9888 29.5486 21.603 29.1904V32.7455ZM21.603 25.8066V26.9855C21.2355 27.0815 20.8907 27.226 20.5707 27.4128V23.7421C20.5707 17.4815 25.6649 12.3873 31.9256 12.3873C38.1862 12.3873 43.2804 17.4815 43.2804 23.7421V27.4128C42.9604 27.226 42.6156 27.0804 42.2482 26.9855V25.8066H41.2159C38.1635 25.8066 35.2938 24.6175 33.1343 22.459L31.9256 21.2502L30.7168 22.459C28.5573 24.6175 25.6876 25.8066 22.6353 25.8066H21.603ZM23.6675 33.0324V27.8319C26.7674 27.5986 29.6577 26.3197 31.9256 24.1633C34.1934 26.3197 37.0838 27.5997 40.1836 27.8319V33.0324C40.1836 34.5375 39.7728 35.9455 39.0667 37.1615H31.9256V39.226H37.3697C35.9142 40.507 34.0118 41.2905 31.9256 41.2905C27.3723 41.2905 23.6675 37.5857 23.6675 33.0324ZM35.0224 42.8791V42.9277L31.9256 46.0244L28.8288 42.9277V42.8791C29.8074 43.1868 30.8469 43.355 31.9256 43.355C33.0043 43.355 34.0438 43.1868 35.0224 42.8791ZM16.26 49.2244C16.8556 47.4366 18.3782 46.1163 20.2332 45.7777L27.4487 44.4668L31.9256 48.9437L36.4014 44.4678L43.6159 45.7788C45.4709 46.1173 46.9934 47.4366 47.5891 49.2255L49.0745 53.6776H27.7232L23.7026 49.6569L19.235 53.6982C18.8458 54.0895 18.1656 54.0895 17.7754 53.6982L15.5209 51.4438L16.26 49.2244ZM6.79731 36.0249L11.5313 40.7589L10.4102 41.8799L5.67628 37.146L6.79731 36.0249ZM24.898 60.4255C23.9235 61.3978 22.627 61.9357 21.2489 61.9357C19.8709 61.9357 18.5743 61.3979 17.5989 60.4234L3.6479 46.4735C2.67344 45.499 2.13667 44.2025 2.13667 42.8244C2.13667 41.4453 2.67344 40.1488 3.6479 39.1744L4.21564 38.6066L8.94957 43.3406L8.91241 43.3777C7.7057 44.5855 7.7057 46.5499 8.91241 47.7576L16.3147 55.1599C16.9 55.7442 17.6773 56.0673 18.5052 56.0673C19.3331 56.0673 20.1103 55.7452 20.6574 55.196L20.7349 55.1269L25.4905 59.8825L24.898 60.4255ZM27.0141 58.4848L22.2688 53.7395L23.6324 52.507L28.3694 57.244L27.0141 58.4848Z" fill="url(#paint0_linear_535_6379)"/>
<path d="M60.8296 0H46.378C44.6707 0 43.2812 1.38942 43.2812 3.09677V11.3548C43.2812 13.0622 44.6707 14.4516 46.378 14.4516H49.1352L48.0678 20.6772L58.0291 14.4516H60.8296C62.537 14.4516 63.9264 13.0622 63.9264 11.3548V3.09677C63.9264 1.38942 62.537 0 60.8296 0ZM61.8619 11.3548C61.8619 11.9236 61.3984 12.3871 60.8296 12.3871H57.4366L50.8807 16.4841L51.5837 12.3871H46.378C45.8092 12.3871 45.3458 11.9236 45.3458 11.3548V3.09677C45.3458 2.528 45.8092 2.06452 46.378 2.06452H60.8296C61.3984 2.06452 61.8619 2.528 61.8619 3.09677V11.3548Z" fill="url(#paint1_linear_535_6379)"/>
<path d="M59.7973 4.12891H47.4102V6.19342H59.7973V4.12891Z" fill="url(#paint2_linear_535_6379)"/>
<path d="M55.6682 8.25806H47.4102V10.3226H55.6682V8.25806Z" fill="url(#paint3_linear_535_6379)"/>
<path d="M59.7969 8.25806H57.7324V10.3226H59.7969V8.25806Z" fill="url(#paint4_linear_535_6379)"/>
<path d="M31.9266 3.09668C18.4391 3.09668 6.82106 12.4262 3.80067 25.4399L1.84454 22.179L0.0742188 23.2412L3.70261 29.2871L9.74854 25.6587L8.68635 23.8884L5.88893 25.5669C8.81435 13.6618 19.5199 5.1612 31.9266 5.1612C34.6383 5.1612 37.314 5.56378 39.8791 6.35861L40.4902 4.387C37.7269 3.53023 34.8458 3.09668 31.9266 3.09668Z" fill="url(#paint5_linear_535_6379)"/>
<path d="M63.425 22.8564L57.379 19.228L53.7517 25.275L55.522 26.3372L57.3285 23.3261C58.2792 26.108 58.7654 29.018 58.7654 32.0002C58.7654 38.139 56.6389 44.1405 52.7793 48.8982L54.3824 50.1989C58.5403 45.0747 60.8299 38.6107 60.8299 32.0002C60.8299 28.8425 60.321 25.7591 59.329 22.8069L62.3628 24.6267L63.425 22.8564Z" fill="url(#paint6_linear_535_6379)"/>
</g>
<defs>
<linearGradient id="paint0_linear_535_6379" x1="26.0061" y1="10.3228" x2="26.0061" y2="64.0002" gradientUnits="userSpaceOnUse">
<stop stop-color="#0665FF"/>
<stop offset="1" stop-color="#C600E7"/>
</linearGradient>
<linearGradient id="paint1_linear_535_6379" x1="53.6038" y1="0" x2="53.6038" y2="20.6772" gradientUnits="userSpaceOnUse">
<stop stop-color="#0665FF"/>
<stop offset="1" stop-color="#C600E7"/>
</linearGradient>
<linearGradient id="paint2_linear_535_6379" x1="53.6037" y1="4.12891" x2="53.6037" y2="6.19342" gradientUnits="userSpaceOnUse">
<stop stop-color="#0665FF"/>
<stop offset="1" stop-color="#C600E7"/>
</linearGradient>
<linearGradient id="paint3_linear_535_6379" x1="51.5392" y1="8.25806" x2="51.5392" y2="10.3226" gradientUnits="userSpaceOnUse">
<stop stop-color="#0665FF"/>
<stop offset="1" stop-color="#C600E7"/>
</linearGradient>
<linearGradient id="paint4_linear_535_6379" x1="58.7647" y1="8.25806" x2="58.7647" y2="10.3226" gradientUnits="userSpaceOnUse">
<stop stop-color="#0665FF"/>
<stop offset="1" stop-color="#C600E7"/>
</linearGradient>
<linearGradient id="paint5_linear_535_6379" x1="20.2822" y1="3.09668" x2="20.2822" y2="29.2871" gradientUnits="userSpaceOnUse">
<stop stop-color="#0665FF"/>
<stop offset="1" stop-color="#C600E7"/>
</linearGradient>
<linearGradient id="paint6_linear_535_6379" x1="58.1021" y1="19.228" x2="58.1021" y2="50.1989" gradientUnits="userSpaceOnUse">
<stop stop-color="#0665FF"/>
<stop offset="1" stop-color="#C600E7"/>
</linearGradient>
<clipPath id="clip0_535_6379">
<rect width="64" height="64" fill="white"/>
</clipPath>
</defs>
</svg>
