<svg width="32" height="30" viewBox="0 0 32 30" fill="none" xmlns="http://www.w3.org/2000/svg">
<path d="M28.25 0.350586H3.75C1.68213 0.350586 0 2.03272 0 4.10059V26.1006C0 28.1685 1.68213 29.8506 3.75 29.8506H28.25C30.3179 29.8506 32 28.1685 32 26.1006V4.10059C32 2.03272 30.3179 0.350586 28.25 0.350586ZM3.75 2.85059H28.25C28.9392 2.85059 29.5 3.41138 29.5 4.10059V7.85059H2.5V4.10059C2.5 3.41138 3.06079 2.85059 3.75 2.85059ZM28.25 27.3506H3.75C3.06079 27.3506 2.5 26.7898 2.5 26.1006V10.3506H29.5V26.1006C29.5 26.7898 28.9392 27.3506 28.25 27.3506ZM4.375 5.35059C4.375 4.66016 4.93457 4.10059 5.625 4.10059C6.31543 4.10059 6.875 4.66016 6.875 5.35059C6.875 6.04102 6.31543 6.60059 5.625 6.60059C4.93457 6.60059 4.375 6.04102 4.375 5.35059ZM8.75 5.35059C8.75 4.66016 9.30957 4.10059 10 4.10059C10.6904 4.10059 11.25 4.66016 11.25 5.35059C11.25 6.04102 10.6904 6.60059 10 6.60059C9.30957 6.60059 8.75 6.04102 8.75 5.35059ZM16.2151 12.7256H18.8125L15.3074 25.1631H12.71L16.2151 12.7256ZM11.6216 16.0532L8.18091 18.9756L11.6218 21.898L10.0034 23.8032L4.31909 18.9756L10.0032 14.148L11.6216 16.0532ZM21.8716 14.148L27.5559 18.9756L21.8718 23.8032L20.2534 21.898L23.6941 18.9756L20.2532 16.0532L21.8716 14.148Z" fill="#0665FF"/>
</svg>
