<svg width="32" height="33" viewBox="0 0 32 33" fill="none" xmlns="http://www.w3.org/2000/svg">
<path d="M20.3056 16.0628L22.1872 14.1811L20.4194 12.4134L18.5378 14.295C18.1403 14.0598 17.7081 13.8771 17.25 13.7588V11.1006H14.75V13.7588C14.292 13.8771 13.8598 14.0598 13.4622 14.295L11.5806 12.4134L9.81281 14.1811L11.6944 16.0628C11.4592 16.4603 11.2766 16.8925 11.1582 17.3506H8.5V19.8506H11.1582C11.2766 20.3086 11.4592 20.7408 11.6944 21.1384L9.81281 23.02L11.5806 24.7878L13.4622 22.9061C13.8598 23.1414 14.2919 23.324 14.75 23.4423V26.1006H17.25V23.4423C17.708 23.324 18.1403 23.1414 18.5378 22.9061L20.4194 24.7878L22.1872 23.02L20.3056 21.1384C20.5408 20.7408 20.7234 20.3086 20.8417 19.8506H23.5V17.3506H20.8417C20.7234 16.8925 20.5408 16.4603 20.3056 16.0628ZM16 21.1006C14.6215 21.1006 13.5 19.9791 13.5 18.6006C13.5 17.2221 14.6215 16.1006 16 16.1006C17.3785 16.1006 18.5 17.2221 18.5 18.6006C18.5 19.9791 17.3785 21.1006 16 21.1006Z" fill="#0665FF"/>
<path d="M0 4.85059V27.3506C0 29.4216 1.67894 31.1006 3.75 31.1006H28.25C30.3211 31.1006 32 29.4216 32 27.3506V4.85059C32 2.77952 30.3211 1.10059 28.25 1.10059H3.75C1.67894 1.10059 0 2.77952 0 4.85059ZM29.5 6.10059H9.75V3.60059H28.25C28.9404 3.60059 29.5 4.16021 29.5 4.85059V6.10059ZM7.25 3.60059V6.10059H2.5V4.85059C2.5 4.16021 3.05963 3.60059 3.75 3.60059H7.25ZM2.5 27.3506V8.60059H29.5V27.3506C29.5 28.041 28.9404 28.6006 28.25 28.6006H3.75C3.05963 28.6006 2.5 28.041 2.5 27.3506Z" fill="#0665FF"/>
</svg>
