<svg width="30" height="30" viewBox="0 0 30 30" fill="none" xmlns="http://www.w3.org/2000/svg">
<path d="M15.4844 25.1616H16.4521V26.1294H15.4844V25.1616Z" fill="white"/>
<path d="M17.4199 25.1616H18.3877V26.1294H17.4199V25.1616Z" fill="white"/>
<path d="M19.3555 25.1616H20.3232V26.1294H19.3555V25.1616Z" fill="white"/>
<path d="M3.87109 25.1616H4.83884V26.1294H3.87109V25.1616Z" fill="white"/>
<path d="M5.80664 25.1616H6.77438V26.1294H5.80664V25.1616Z" fill="white"/>
<path d="M1.93555 25.1616H2.90329V26.1294H1.93555V25.1616Z" fill="white"/>
<path d="M17.4199 23.2261H18.3877V24.1938H17.4199V23.2261Z" fill="white"/>
<path d="M19.3555 23.2261H20.3232V24.1938H19.3555V23.2261Z" fill="white"/>
<path d="M5.80664 23.2261H6.77438V24.1938H5.80664V23.2261Z" fill="white"/>
<path d="M3.87109 23.2261H4.83884V24.1938H3.87109V23.2261Z" fill="white"/>
<path d="M7.74219 23.2261H8.70993V24.1938H7.74219V23.2261Z" fill="white"/>
<path d="M1.93555 23.2261H2.90329V24.1938H1.93555V23.2261Z" fill="white"/>
<path d="M13.5488 23.2261H14.5166V24.1938H13.5488V23.2261Z" fill="white"/>
<path d="M15.4844 23.2261H16.4521V24.1938H15.4844V23.2261Z" fill="white"/>
<path d="M11.6133 23.2261H12.581V24.1938H11.6133V23.2261Z" fill="white"/>
<path d="M9.67773 23.2261H10.6455V24.1938H9.67773V23.2261Z" fill="white"/>
<path d="M22.7417 17.4194C23.0089 17.4194 23.2256 17.2028 23.2256 16.9355C23.2256 16.6683 23.0089 16.4517 22.7417 16.4517C22.4744 16.4517 22.2578 16.6683 22.2578 16.9355C22.2578 17.2028 22.4744 17.4194 22.7417 17.4194Z" fill="white"/>
<path d="M20.8061 17.4194C21.0734 17.4194 21.29 17.2028 21.29 16.9355C21.29 16.6683 21.0734 16.4517 20.8061 16.4517C20.5389 16.4517 20.3223 16.6683 20.3223 16.9355C20.3223 17.2028 20.5389 17.4194 20.8061 17.4194Z" fill="white"/>
<path d="M18.8706 17.4194C19.1378 17.4194 19.3545 17.2028 19.3545 16.9355C19.3545 16.6683 19.1378 16.4517 18.8706 16.4517C18.6034 16.4517 18.3867 16.6683 18.3867 16.9355C18.3867 17.2028 18.6034 17.4194 18.8706 17.4194Z" fill="white"/>
<path d="M10.645 7.742H14.5159C15.3163 7.742 15.9676 7.09071 15.9676 6.29039V3.38716C15.9676 2.58684 15.3163 1.93555 14.5159 1.93555H10.645C9.84465 1.93555 9.19336 2.58684 9.19336 3.38716V6.29039C9.19336 7.09071 9.84465 7.742 10.645 7.742ZM12.0966 2.90329H13.0643V3.87103H12.0966V2.90329ZM10.1611 3.38716C10.1611 3.12006 10.3779 2.90329 10.645 2.90329H11.1288V4.83877H14.0321V2.90329H14.5159C14.783 2.90329 14.9998 3.12006 14.9998 3.38716V6.29039C14.9998 6.55748 14.783 6.77426 14.5159 6.77426H10.645C10.3779 6.77426 10.1611 6.55748 10.1611 6.29039V3.38716Z" fill="white"/>
<path d="M11.752 10.3027L13.6875 8.3672L14.3718 9.0515L12.4362 10.987L11.752 10.3027Z" fill="white"/>
<path d="M17.4199 12.5806H23.2264V13.5483H17.4199V12.5806Z" fill="white"/>
<path d="M17.4199 10.6455H18.3877V11.6132H17.4199V10.6455Z" fill="white"/>
<path d="M19.3555 10.6455H23.2264V11.6132H19.3555V10.6455Z" fill="white"/>
<path d="M17.4199 8.70996H23.2264V9.6777H17.4199V8.70996Z" fill="white"/>
<path d="M18.3867 7.7416H23.2254V4.83838H18.3867V7.7416ZM19.3545 5.80612H22.2577V6.77386H19.3545V5.80612Z" fill="white"/>
<path d="M1.93555 12.5806H7.742V13.5483H1.93555V12.5806Z" fill="white"/>
<path d="M1.93555 10.6455H2.90329V11.6132H1.93555V10.6455Z" fill="white"/>
<path d="M3.87109 10.6455H7.74206V11.6132H3.87109V10.6455Z" fill="white"/>
<path d="M1.93555 8.70996H7.742V9.6777H1.93555V8.70996Z" fill="white"/>
<path d="M6.77426 4.83838H1.93555V7.7416H6.77426V4.83838ZM5.80651 6.77386H2.90329V5.80612H5.80651V6.77386Z" fill="white"/>
<path d="M27.0968 21.2903H28.5484C29.3487 21.2903 30 20.639 30 19.8387C30 19.0384 29.3487 18.3871 28.5484 18.3871H25.6452C25.3781 18.3871 25.1613 18.1703 25.1613 17.9032C25.1613 17.6361 25.3781 17.4194 25.6452 17.4194H27.0968C27.8971 17.4194 28.5484 16.7681 28.5484 15.9677C28.5484 15.1674 27.8971 14.5161 27.0968 14.5161H25.1613V5.32258C25.1613 3.98855 24.076 2.90323 22.7419 2.90323H17.3327C16.4618 1.18403 14.6816 0 12.6266 0H12.5352C10.4802 0 8.7 1.18403 7.82903 2.90323H2.41935C1.08532 2.90323 0 3.98855 0 5.32258V16.9355C0 18.2695 1.08532 19.3548 2.41935 19.3548H7.25806V21.2903H1.45161C0.65129 21.2903 0 21.9416 0 22.7419V28.5484C0 29.3487 0.65129 30 1.45161 30H20.8065C21.6068 30 22.2581 29.3487 22.2581 28.5484V22.7419C22.2581 21.9416 21.6068 21.2903 20.8065 21.2903H17.9032V19.3548H22.7419C23.3937 19.3548 23.9835 19.0931 24.419 18.6726C24.676 19.081 25.1279 19.3548 25.6452 19.3548H28.5484C28.8155 19.3548 29.0323 19.5716 29.0323 19.8387C29.0323 20.1058 28.8155 20.3226 28.5484 20.3226H27.0968C26.2965 20.3226 25.6452 20.9739 25.6452 21.7742V22.3016C24.2744 22.5329 23.2258 23.7252 23.2258 25.1613V27.0968C23.2258 28.6979 24.5279 30 26.129 30C27.7302 30 29.0323 28.6979 29.0323 27.0968V25.1613C29.0323 23.7256 27.9837 22.5334 26.6129 22.3016V21.7742C26.6129 21.5071 26.8297 21.2903 27.0968 21.2903ZM25.1613 15.4839H27.0968C27.3639 15.4839 27.5806 15.7006 27.5806 15.9677C27.5806 16.2348 27.3639 16.4516 27.0968 16.4516H25.6452C25.4748 16.4516 25.3132 16.4865 25.1613 16.5406V15.4839ZM12.5347 0.967742H12.6261C15.0024 0.967742 16.9355 2.90081 16.9355 5.27661C16.9355 6.15774 16.6703 7.00548 16.169 7.72935L12.9421 12.391C12.7776 12.6281 12.3837 12.6281 12.2192 12.391L8.99226 7.72935C8.49097 7.00597 8.22581 6.15823 8.22581 5.27661C8.22581 2.90081 10.1589 0.967742 12.5347 0.967742ZM21.2903 28.5484C21.2903 28.8155 21.0735 29.0323 20.8065 29.0323H1.45161C1.18452 29.0323 0.967742 28.8155 0.967742 28.5484V28.0645H21.2903V28.5484ZM8.70968 27.0968V26.129H13.5484V27.0968H8.70968ZM20.8065 22.2581C21.0735 22.2581 21.2903 22.4748 21.2903 22.7419V27.0968H14.5161V25.1613H7.74194V27.0968H0.967742V22.7419C0.967742 22.4748 1.18452 22.2581 1.45161 22.2581H20.8065ZM8.22581 21.2903V19.3548H16.9355V21.2903H8.22581ZM24.1935 16.9355C24.1935 17.7358 23.5423 18.3871 22.7419 18.3871H2.41935C1.61903 18.3871 0.967742 17.7358 0.967742 16.9355V15.4839H24.1935V16.9355ZM24.1935 14.5161H0.967742V5.32258C0.967742 4.52226 1.61903 3.87097 2.41935 3.87097H7.45403C7.32968 4.31952 7.25806 4.78935 7.25806 5.27661C7.25806 6.35516 7.58274 7.39452 8.19629 8.28048L11.4232 12.9421C11.6865 13.3215 12.119 13.5484 12.5806 13.5484C13.0423 13.5484 13.4748 13.3215 13.7381 12.9421L16.965 8.28048C17.5785 7.39452 17.9032 6.35564 17.9032 5.27661C17.9032 4.78935 17.8316 4.31903 17.7073 3.87097H22.7419C23.5423 3.87097 24.1935 4.52226 24.1935 5.32258V14.5161ZM28.0645 27.0968C28.0645 28.1642 27.1965 29.0323 26.129 29.0323C25.0616 29.0323 24.1935 28.1642 24.1935 27.0968V26.129H28.0645V27.0968ZM28.0645 25.1613H24.1935C24.1935 24.0939 25.0616 23.2258 26.129 23.2258C27.1965 23.2258 28.0645 24.0939 28.0645 25.1613Z" fill="white"/>
</svg>
