<svg width="20" height="20" viewBox="0 0 20 20" fill="none" xmlns="http://www.w3.org/2000/svg">
<mask id="mask0_682_609" style="mask-type:luminance" maskUnits="userSpaceOnUse" x="0" y="0" width="20" height="20">
<path d="M0 0.0130787H20V20H0V0.0130787Z" fill="white"/>
</mask>
<g mask="url(#mask0_682_609)">
<path d="M0.390625 6.07667H6.51934H18.1843" stroke="#0665FF" stroke-miterlimit="10" stroke-linecap="round" stroke-linejoin="round"/>
<path d="M3.6525 4.4155C4.16406 4.4155 4.58148 3.99968 4.58148 3.48872C4.58148 2.97777 4.16406 2.56194 3.6525 2.56194C3.14207 2.56194 2.72461 2.97777 2.72461 3.48872C2.72461 3.99968 3.14207 4.4155 3.6525 4.4155Z" stroke="#0665FF" stroke-miterlimit="10" stroke-linecap="round" stroke-linejoin="round"/>
<path d="M11.717 2.56193H15.2115C15.7219 2.56193 16.1394 2.97888 16.1394 3.48871C16.1394 3.99857 15.7219 4.41548 15.2115 4.41548H11.717C11.2065 4.41548 10.7891 3.99857 10.7891 3.48871C10.7891 2.97888 11.2065 2.56193 11.717 2.56193Z" stroke="#0665FF" stroke-miterlimit="10" stroke-linecap="round" stroke-linejoin="round"/>
<path d="M7.07828 4.4155C7.58984 4.4155 8.00727 3.99968 8.00727 3.48872C8.00727 2.97777 7.58984 2.56194 7.07828 2.56194C6.56785 2.56194 6.15039 2.97777 6.15039 3.48872C6.15039 3.99968 6.56785 4.4155 7.07828 4.4155Z" stroke="#0665FF" stroke-miterlimit="10" stroke-linecap="round" stroke-linejoin="round"/>
<path d="M6.34426 9.07931L5.5625 12.3485" stroke="#0665FF" stroke-miterlimit="10" stroke-linecap="round" stroke-linejoin="round"/>
<path d="M8.14453 12.0532L9.25066 10.8123C9.29937 10.7581 9.29937 10.6697 9.25066 10.6155L8.14453 9.3746" stroke="#0665FF" stroke-miterlimit="10" stroke-linecap="round" stroke-linejoin="round"/>
<path d="M3.76184 12.0532L2.6557 10.8123C2.60695 10.7581 2.60695 10.6697 2.6557 10.6155L3.76184 9.3746" stroke="#0665FF" stroke-miterlimit="10" stroke-linecap="round" stroke-linejoin="round"/>
<path d="M15.8011 10.8046C16.2285 10.8997 16.6282 11.0678 16.9881 11.2934L17.3081 10.9749C17.4974 10.7847 17.8086 10.7847 17.999 10.9749L18.5028 11.4781C18.6932 11.6684 18.6932 11.9791 18.5028 12.1683L18.1839 12.4879C18.4087 12.844 18.5748 13.24 18.6711 13.6624H19.1195C19.3886 13.6624 19.6089 13.8825 19.6089 14.1501V14.8635C19.6089 15.1311 19.3886 15.3512 19.1195 15.3512H18.6689C18.5725 15.7715 18.4065 16.1652 18.1839 16.5191L18.5028 16.8376C18.6932 17.0278 18.6932 17.3386 18.5028 17.5277L17.999 18.0321C17.8086 18.2223 17.4974 18.2223 17.3081 18.0321L16.9881 17.7135C16.6327 17.9369 16.2373 18.1028 15.8144 18.1991V18.6525C15.8144 18.9212 15.594 19.1413 15.3261 19.1413H14.6119C14.3439 19.1413 14.1236 18.9212 14.1236 18.6525V18.198C13.7028 18.1028 13.3075 17.9358 12.9521 17.7135L12.6332 18.0321C12.4427 18.2223 12.1316 18.2223 11.9423 18.0321L11.4374 17.5277C11.248 17.3386 11.248 17.0278 11.4374 16.8376L11.7573 16.5191C11.5337 16.1652 11.3676 15.7715 11.2713 15.3512H10.8184C10.5494 15.3512 10.3301 15.1311 10.3301 14.8635V14.1501C10.3301 13.8825 10.5494 13.6624 10.8184 13.6624H11.2702C11.3654 13.2444 11.5293 12.8529 11.7496 12.5L11.4285 12.1782C11.2381 11.9891 11.2381 11.6783 11.4285 11.4881L11.9323 10.9849C12.1228 10.7946 12.4339 10.7946 12.6232 10.9849L12.941 11.3012C13.2954 11.0767 13.6895 10.9096 14.1103 10.8112V10.3611C14.1103 10.0924 14.3295 9.87228 14.5986 9.87228H15.3117C15.5807 9.87228 15.8011 10.0924 15.8011 10.3611V10.8046Z" stroke="#0665FF" stroke-miterlimit="10" stroke-linecap="round" stroke-linejoin="round"/>
<path d="M14.9692 12.4956C16.0809 12.4956 16.9822 13.3959 16.9822 14.5073C16.9822 15.6177 16.0809 16.518 14.9692 16.518C13.8564 16.518 12.9551 15.6177 12.9551 14.5073C12.9551 13.3959 13.8564 12.4956 14.9692 12.4956Z" stroke="#0665FF" stroke-miterlimit="10" stroke-linecap="round" stroke-linejoin="round"/>
<path d="M4.15754 15.3512H1.84555C1.04617 15.3512 0.390625 14.5693 0.390625 13.6149V2.60835C0.390625 1.65284 1.045 0.872023 1.84555 0.872023H3.53082H16.7294C17.53 0.872023 18.1843 1.65393 18.1843 2.60835V11.1596M10.8188 15.3512H7.64875" stroke="#0665FF" stroke-miterlimit="10" stroke-linecap="round" stroke-linejoin="round"/>
<path d="M5.90625 15.3512H5.91398" stroke="#0665FF" stroke-miterlimit="10" stroke-linecap="round" stroke-linejoin="round"/>
</g>
</svg>
