<svg width="44" height="44" viewBox="0 0 44 44" fill="none" xmlns="http://www.w3.org/2000/svg">
<path d="M6.875 43.3125L9.625 37.8125H34.375L37.125 43.3125H6.875Z" fill="#4294FF"/>
<path d="M15.125 40.5625C15.8541 40.5617 16.5531 40.2718 17.0687 39.7562C17.5843 39.2406 17.8742 38.5416 17.875 37.8125V33.6875H26.125V37.8125C26.1258 38.5416 26.4157 39.2406 26.9313 39.7562C27.4469 40.2718 28.1459 40.5617 28.875 40.5625H15.125Z" fill="#376CFB"/>
<path d="M0.6875 6.1875H43.3125V33.6875H0.6875V6.1875Z" fill="#E6ECFF"/>
<path d="M8.25 28.1875V2.0625C8.25042 1.69796 8.39542 1.34846 8.65319 1.09069C8.91096 0.832919 9.26046 0.687919 9.625 0.6875H34.375C34.7395 0.687919 35.089 0.832919 35.3468 1.09069C35.6046 1.34846 35.7496 1.69796 35.75 2.0625V28.1875H8.25Z" fill="#D0DBF7"/>
<path d="M8.25 7.5625V2.0625C8.25042 1.69796 8.39542 1.34846 8.65319 1.09069C8.91096 0.832919 9.26046 0.687919 9.625 0.6875H34.375C34.7395 0.687919 35.089 0.832919 35.3468 1.09069C35.6046 1.34846 35.7496 1.69796 35.75 2.0625V4.8125H19.3067L19.1946 5.36305C19.0663 5.98332 18.7284 6.54052 18.2377 6.94105C17.747 7.34158 17.1334 7.56102 16.5 7.5625H8.25Z" fill="#4294FF"/>
<path d="M0.6875 28.1875H43.3125V33.6875H0.6875V28.1875Z" fill="#4294FF"/>
<path d="M43.3125 5.5H38.5C38.3177 5.5 38.1428 5.57243 38.0139 5.70136C37.8849 5.8303 37.8125 6.00516 37.8125 6.1875C37.8125 6.36984 37.8849 6.5447 38.0139 6.67364C38.1428 6.80257 38.3177 6.875 38.5 6.875H42.625V27.5H36.4375V2.0625C36.4369 1.51568 36.2194 0.991419 35.8327 0.604756C35.4461 0.218092 34.9218 0.000600517 34.375 0L9.625 0C9.07818 0.000600517 8.55392 0.218092 8.16726 0.604756C7.78059 0.991419 7.5631 1.51568 7.5625 2.0625V27.5H1.375V6.875H5.5C5.68234 6.875 5.8572 6.80257 5.98614 6.67364C6.11507 6.5447 6.1875 6.36984 6.1875 6.1875C6.1875 6.00516 6.11507 5.8303 5.98614 5.70136C5.8572 5.57243 5.68234 5.5 5.5 5.5H0.6875C0.505164 5.5 0.330295 5.57243 0.201364 5.70136C0.0724328 5.8303 0 6.00516 0 6.1875L0 33.6875C0 33.8698 0.0724328 34.0447 0.201364 34.1736C0.330295 34.3026 0.505164 34.375 0.6875 34.375H17.1875V37.125H9.625C9.49732 37.125 9.37216 37.1605 9.26354 37.2276C9.15492 37.2948 9.06714 37.3908 9.01003 37.505L6.26003 43.005C6.20761 43.1098 6.18285 43.2263 6.18811 43.3434C6.19338 43.4605 6.22848 43.5742 6.2901 43.6739C6.35172 43.7736 6.4378 43.8559 6.54017 43.913C6.64254 43.9701 6.7578 44 6.875 44H37.125C37.2422 44 37.3575 43.9701 37.4598 43.913C37.5622 43.8559 37.6483 43.7736 37.7099 43.6739C37.7715 43.5742 37.8066 43.4605 37.8119 43.3434C37.8172 43.2263 37.7924 43.1098 37.74 43.005L34.99 37.505C34.9329 37.3908 34.8451 37.2948 34.7365 37.2276C34.6278 37.1605 34.5027 37.125 34.375 37.125H26.8125V34.375H43.3125C43.4948 34.375 43.6697 34.3026 43.7986 34.1736C43.9276 34.0447 44 33.8698 44 33.6875V6.1875C44 6.00516 43.9276 5.8303 43.7986 5.70136C43.6697 5.57243 43.4948 5.5 43.3125 5.5ZM9.625 1.375H34.375C34.5573 1.37516 34.7321 1.44765 34.861 1.57655C34.9899 1.70544 35.0623 1.88021 35.0625 2.0625V4.125H19.25C19.0677 4.125 18.8928 4.19743 18.7639 4.32636C18.6349 4.4553 18.5625 4.63016 18.5625 4.8125C18.5619 5.35932 18.3444 5.88358 17.9577 6.27024C17.5711 6.65691 17.0468 6.8744 16.5 6.875H8.9375V2.0625C8.93766 1.88021 9.01015 1.70544 9.13904 1.57655C9.26794 1.44765 9.44271 1.37516 9.625 1.375ZM8.9375 8.25H16.5C17.2921 8.24898 18.0596 7.97491 18.6732 7.47397C19.2868 6.97303 19.7089 6.27587 19.8683 5.5H35.0625V27.5H8.9375V8.25ZM36.0125 42.625H7.98751L10.05 38.5H17.0608C16.9196 38.901 16.6577 39.2484 16.3111 39.4946C15.9645 39.7408 15.5501 39.8737 15.125 39.875C14.9427 39.875 14.7678 39.9474 14.6389 40.0764C14.5099 40.2053 14.4375 40.3802 14.4375 40.5625C14.4375 40.7448 14.5099 40.9197 14.6389 41.0486C14.7678 41.1776 14.9427 41.25 15.125 41.25H28.875C29.0573 41.25 29.2322 41.1776 29.3611 41.0486C29.4901 40.9197 29.5625 40.7448 29.5625 40.5625C29.5625 40.3802 29.4901 40.2053 29.3611 40.0764C29.2322 39.9474 29.0573 39.875 28.875 39.875C28.4499 39.8737 28.0355 39.7408 27.6889 39.4946C27.3423 39.2484 27.0804 38.901 26.9392 38.5H33.95L36.0125 42.625ZM25.4375 37.8125C25.4367 38.5567 25.6786 39.2808 26.1266 39.875H17.8734C18.3214 39.2808 18.5633 38.5567 18.5625 37.8125V34.375H25.4375V37.8125ZM42.625 33H1.375V28.875H42.625V33Z" fill="#232328"/>
<path d="M23.375 30.25H20.625C20.4427 30.25 20.2678 30.3224 20.1389 30.4514C20.0099 30.5803 19.9375 30.7552 19.9375 30.9375C19.9375 31.1198 20.0099 31.2947 20.1389 31.4236C20.2678 31.5526 20.4427 31.625 20.625 31.625H23.375C23.5573 31.625 23.7322 31.5526 23.8611 31.4236C23.9901 31.2947 24.0625 31.1198 24.0625 30.9375C24.0625 30.7552 23.9901 30.5803 23.8611 30.4514C23.7322 30.3224 23.5573 30.25 23.375 30.25Z" fill="#232328"/>
<path d="M11 5.5C11.3797 5.5 11.6875 5.1922 11.6875 4.8125C11.6875 4.4328 11.3797 4.125 11 4.125C10.6203 4.125 10.3125 4.4328 10.3125 4.8125C10.3125 5.1922 10.6203 5.5 11 5.5Z" fill="#232328"/>
<path d="M13.75 5.5C14.1297 5.5 14.4375 5.1922 14.4375 4.8125C14.4375 4.4328 14.1297 4.125 13.75 4.125C13.3703 4.125 13.0625 4.4328 13.0625 4.8125C13.0625 5.1922 13.3703 5.5 13.75 5.5Z" fill="#232328"/>
<path d="M16.5 5.5C16.8797 5.5 17.1875 5.1922 17.1875 4.8125C17.1875 4.4328 16.8797 4.125 16.5 4.125C16.1203 4.125 15.8125 4.4328 15.8125 4.8125C15.8125 5.1922 16.1203 5.5 16.5 5.5Z" fill="#232328"/>
<path d="M24.0625 3.4375H29.5625C29.7448 3.4375 29.9197 3.36507 30.0486 3.23614C30.1776 3.1072 30.25 2.93234 30.25 2.75C30.25 2.56766 30.1776 2.3928 30.0486 2.26386C29.9197 2.13493 29.7448 2.0625 29.5625 2.0625H24.0625C23.8802 2.0625 23.7053 2.13493 23.5764 2.26386C23.4474 2.3928 23.375 2.56766 23.375 2.75C23.375 2.93234 23.4474 3.1072 23.5764 3.23614C23.7053 3.36507 23.8802 3.4375 24.0625 3.4375Z" fill="#232328"/>
<path d="M31.625 3.4375H33C33.1823 3.4375 33.3572 3.36507 33.4861 3.23614C33.6151 3.1072 33.6875 2.93234 33.6875 2.75C33.6875 2.56766 33.6151 2.3928 33.4861 2.26386C33.3572 2.13493 33.1823 2.0625 33 2.0625H31.625C31.4427 2.0625 31.2678 2.13493 31.1389 2.26386C31.0099 2.3928 30.9375 2.56766 30.9375 2.75C30.9375 2.93234 31.0099 3.1072 31.1389 3.23614C31.2678 3.36507 31.4427 3.4375 31.625 3.4375Z" fill="#232328"/>
<path d="M17.6736 13.9515C17.6098 13.8876 17.534 13.8369 17.4506 13.8024C17.3672 13.7678 17.2778 13.75 17.1875 13.75C17.0972 13.75 17.0078 13.7678 16.9244 13.8024C16.841 13.8369 16.7652 13.8876 16.7014 13.9515L13.2639 17.389C13.2001 17.4528 13.1494 17.5285 13.1148 17.6119C13.0803 17.6953 13.0625 17.7847 13.0625 17.875C13.0625 17.9653 13.0803 18.0547 13.1148 18.1381C13.1494 18.2215 13.2001 18.2973 13.2639 18.3611L16.7014 21.7986C16.8311 21.9238 17.0048 21.9931 17.185 21.9916C17.3653 21.99 17.5377 21.9177 17.6652 21.7902C17.7927 21.6627 17.865 21.4903 17.8665 21.31C17.8681 21.1298 17.7988 20.9561 17.6736 20.8265L14.7222 17.875L17.6736 14.9236C17.7374 14.8598 17.7881 14.784 17.8227 14.7006C17.8572 14.6172 17.875 14.5278 17.875 14.4375C17.875 14.3472 17.8572 14.2578 17.8227 14.1744C17.7881 14.091 17.7374 14.0153 17.6736 13.9515Z" fill="#232328"/>
<path d="M27.2986 13.9515C27.1689 13.8263 26.9952 13.757 26.815 13.7586C26.6347 13.7601 26.4623 13.8324 26.3348 13.9599C26.2073 14.0874 26.135 14.2598 26.1335 14.4401C26.1319 14.6203 26.2012 14.794 26.3264 14.9237L29.2778 17.8751L26.3264 20.8265C26.2608 20.89 26.2084 20.9658 26.1724 21.0497C26.1363 21.1336 26.1174 21.2238 26.1166 21.3151C26.1158 21.4064 26.1332 21.4969 26.1677 21.5814C26.2023 21.6659 26.2534 21.7426 26.3179 21.8072C26.3825 21.8717 26.4592 21.9228 26.5437 21.9574C26.6282 21.9919 26.7187 22.0093 26.81 22.0085C26.9013 22.0077 26.9915 21.9888 27.0754 21.9527C27.1593 21.9167 27.2351 21.8643 27.2986 21.7987L30.7361 18.3612C30.7999 18.2974 30.8506 18.2216 30.8852 18.1382C30.9197 18.0548 30.9375 17.9654 30.9375 17.8751C30.9375 17.7848 30.9197 17.6954 30.8852 17.612C30.8506 17.5286 30.7999 17.4528 30.7361 17.389L27.2986 13.9515Z" fill="#232328"/>
<path d="M23.5167 11.0147C23.3383 10.9776 23.1525 11.0126 22.9998 11.1121C22.8472 11.2116 22.7402 11.3675 22.7023 11.5458L19.9523 24.6083C19.9329 24.6969 19.9312 24.7885 19.9474 24.8778C19.9636 24.9671 19.9973 25.0523 20.0466 25.1285C20.0958 25.2046 20.1597 25.2703 20.2344 25.3217C20.3092 25.3731 20.3934 25.4092 20.4822 25.4279C20.571 25.4466 20.6626 25.4476 20.7518 25.4307C20.8409 25.4138 20.9258 25.3795 21.0016 25.3296C21.0775 25.2798 21.1426 25.2154 21.1935 25.1402C21.2443 25.0651 21.2797 24.9806 21.2977 24.8917L24.0477 11.8292C24.0853 11.6507 24.0505 11.4647 23.9509 11.312C23.8513 11.1592 23.6951 11.0523 23.5167 11.0147Z" fill="#232328"/>
</svg>
