<svg width="44" height="44" viewBox="0 0 44 44" fill="none" xmlns="http://www.w3.org/2000/svg">
<path d="M22 6.1876C22.1851 6.1876 22.3625 6.11516 22.4934 5.98623C22.6243 5.8573 22.6978 5.68243 22.6978 5.50009V0.687511C22.6978 0.505172 22.6243 0.330301 22.4934 0.201367C22.3625 0.072434 22.1851 0 22 0C21.8149 0 21.6375 0.072434 21.5066 0.201367C21.3758 0.330301 21.3022 0.505172 21.3022 0.687511V5.50009C21.3022 5.68243 21.3758 5.8573 21.5066 5.98623C21.6375 6.11516 21.8149 6.1876 22 6.1876Z" fill="#232328"/>
<path d="M15.6173 6.73069C15.6663 6.86331 15.7555 6.97786 15.8728 7.05882C15.9901 7.13977 16.1299 7.1832 16.2731 7.18321C16.3545 7.18321 16.4353 7.16899 16.5116 7.14121C16.5978 7.1104 16.6769 7.06315 16.7445 7.00217C16.8121 6.94119 16.8669 6.86767 16.9056 6.78582C16.9443 6.70398 16.9663 6.61541 16.9703 6.52518C16.9742 6.43496 16.9601 6.34485 16.9286 6.26002L16.0929 3.9988C16.0274 3.83033 15.8974 3.69396 15.7308 3.6191C15.5642 3.54425 15.3744 3.53691 15.2024 3.59867C15.0304 3.66043 14.8899 3.78634 14.8112 3.94924C14.7326 4.11215 14.722 4.29899 14.7819 4.46947L15.6173 6.73069Z" fill="#232328"/>
<path d="M5.03368 13.1428L7.14873 14.3459C7.30902 14.4371 7.49951 14.4618 7.67829 14.4145C7.85706 14.3673 8.00948 14.2521 8.102 14.0941C8.19453 13.9362 8.21959 13.7485 8.17168 13.5724C8.12376 13.3962 8.00678 13.246 7.84649 13.1549L5.73144 11.9517C5.65207 11.9066 5.56445 11.8773 5.47359 11.8655C5.38272 11.8537 5.2904 11.8597 5.20188 11.8831C5.11336 11.9064 5.03038 11.9468 4.95768 12.0017C4.88497 12.0567 4.82397 12.1253 4.77816 12.2035C4.73234 12.2817 4.70261 12.368 4.69065 12.4575C4.6787 12.5471 4.68476 12.638 4.70849 12.7253C4.73221 12.8125 4.77314 12.8942 4.82894 12.9659C4.88474 13.0375 4.95431 13.0976 5.03368 13.1428Z" fill="#232328"/>
<path d="M3.10257 25.9712C3.14346 25.9712 3.18426 25.9678 3.22454 25.9609L5.62923 25.5428C5.81151 25.5111 5.97355 25.4094 6.07969 25.26C6.18583 25.1106 6.22739 24.9257 6.19522 24.7461C6.16304 24.5665 6.05978 24.4069 5.90814 24.3023C5.75649 24.1977 5.5689 24.1567 5.38662 24.1884L2.98193 24.6064C2.81002 24.6362 2.65567 24.7283 2.54935 24.8647C2.44303 25.0011 2.39245 25.1718 2.4076 25.3432C2.42275 25.5145 2.50252 25.674 2.63117 25.7903C2.75983 25.9065 2.92802 25.971 3.10257 25.971V25.9712Z" fill="#232328"/>
<path d="M10.7016 34.1981L9.13163 36.0411C9.07094 36.11 9.02476 36.1901 8.9958 36.2768C8.96684 36.3634 8.95567 36.4549 8.96294 36.5458C8.97022 36.6368 8.99579 36.7254 9.03817 36.8065C9.08055 36.8876 9.13889 36.9596 9.20979 37.0183C9.28069 37.0769 9.36274 37.1211 9.45114 37.1482C9.53955 37.1754 9.63254 37.1849 9.72472 37.1762C9.81689 37.1676 9.90639 37.1409 9.98801 37.0979C10.0696 37.0548 10.1417 36.9961 10.2001 36.9253L11.7701 35.0823C11.8308 35.0134 11.8769 34.9333 11.9059 34.8467C11.9349 34.76 11.946 34.6685 11.9388 34.5776C11.9315 34.4866 11.9059 34.398 11.8635 34.3169C11.8212 34.2358 11.7628 34.1638 11.6919 34.1051C11.621 34.0465 11.539 34.0023 11.4506 33.9752C11.3622 33.948 11.2692 33.9385 11.177 33.9472C11.0848 33.9558 10.9953 33.9825 10.9137 34.0256C10.8321 34.0686 10.76 34.1273 10.7016 34.1981Z" fill="#232328"/>
<path d="M10.7016 9.80239C10.76 9.8732 10.8321 9.93185 10.9137 9.97493C10.9953 10.018 11.0848 10.0446 11.177 10.0533C11.2691 10.062 11.3621 10.0524 11.4505 10.0253C11.539 9.99821 11.621 9.95402 11.6919 9.89535C11.7628 9.83668 11.8211 9.76469 11.8635 9.68357C11.9059 9.60246 11.9315 9.51385 11.9387 9.4229C11.946 9.33195 11.9349 9.24049 11.9059 9.15383C11.8769 9.06718 11.8308 8.98708 11.7701 8.91818L8.63014 5.23154C8.57175 5.16074 8.49965 5.10208 8.41804 5.05901C8.33642 5.01593 8.24691 4.98929 8.15474 4.98064C8.06257 4.97199 7.96957 4.9815 7.88116 5.00861C7.79276 5.03573 7.71072 5.07991 7.63981 5.13859C7.56891 5.19726 7.51057 5.26925 7.46819 5.35036C7.42581 5.43148 7.40024 5.52009 7.39296 5.61104C7.38569 5.70198 7.39686 5.79345 7.42582 5.8801C7.45478 5.96675 7.50096 6.04686 7.56166 6.11575L10.7016 9.80239Z" fill="#232328"/>
<path d="M5.50861 19.8226C5.68309 19.8224 5.85119 19.7579 5.97976 19.6417C6.10833 19.5254 6.18805 19.366 6.20319 19.1947C6.21833 19.0234 6.1678 18.8528 6.06156 18.7164C5.95532 18.58 5.80108 18.4878 5.62926 18.458L0.819183 17.622C0.636902 17.5903 0.44931 17.6313 0.297675 17.7359C0.146039 17.8405 0.0427828 18.0001 0.0106198 18.1797C-0.0215431 18.3593 0.0200223 18.5442 0.126172 18.6936C0.232322 18.843 0.394361 18.9447 0.576642 18.9764L5.38637 19.8122C5.42674 19.8191 5.46764 19.8226 5.50861 19.8226Z" fill="#232328"/>
<path d="M7.14873 29.6551L2.91857 32.0614C2.75827 32.1525 2.6413 32.3027 2.59338 32.4789C2.54546 32.655 2.57052 32.8427 2.66305 33.0006C2.75558 33.1586 2.90799 33.2738 3.08677 33.3211C3.26554 33.3683 3.45603 33.3436 3.61633 33.2524L7.84649 30.8461C7.92586 30.801 7.99543 30.7409 8.05123 30.6692C8.10703 30.5976 8.14796 30.5158 8.17168 30.4286C8.19541 30.3414 8.20147 30.2504 8.18952 30.1609C8.17756 30.0714 8.14783 29.9851 8.10201 29.9068C8.0562 29.8286 7.9952 29.7601 7.92249 29.7051C7.84979 29.6501 7.76681 29.6098 7.67829 29.5864C7.58977 29.5631 7.49745 29.5571 7.40658 29.5689C7.31572 29.5806 7.2281 29.6099 7.14873 29.6551Z" fill="#232328"/>
<path d="M27.4887 7.14093C27.565 7.16871 27.6458 7.18293 27.7272 7.18294C27.8704 7.18292 28.0102 7.13949 28.1275 7.05854C28.2448 6.97759 28.3341 6.86304 28.3831 6.73042L29.2181 4.46947C29.278 4.29899 29.2674 4.11215 29.1888 3.94924C29.1101 3.78634 28.9696 3.66043 28.7976 3.59867C28.6255 3.53691 28.4358 3.54425 28.2692 3.6191C28.1026 3.69396 27.9725 3.83033 27.9071 3.9988L27.0717 6.25975C27.0403 6.34458 27.0261 6.43468 27.0301 6.52491C27.034 6.61513 27.056 6.7037 27.0947 6.78555C27.1334 6.8674 27.1882 6.94091 27.2558 7.0019C27.3234 7.06288 27.4025 7.11012 27.4887 7.14093Z" fill="#232328"/>
<path d="M35.8979 14.0941C35.9905 14.252 36.143 14.3672 36.3217 14.4144C36.5005 14.4616 36.6909 14.437 36.8512 14.3459L38.9663 13.1428C39.0456 13.0976 39.1152 13.0375 39.171 12.9659C39.2268 12.8942 39.2677 12.8125 39.2915 12.7253C39.3152 12.638 39.3213 12.5471 39.3093 12.4575C39.2973 12.368 39.2676 12.2817 39.2218 12.2035C39.176 12.1253 39.115 12.0567 39.0423 12.0017C38.9696 11.9468 38.8866 11.9064 38.7981 11.8831C38.7096 11.8597 38.6172 11.8537 38.5264 11.8655C38.4355 11.8773 38.3479 11.9066 38.2685 11.9517L36.1535 13.1549C36.0741 13.2 36.0045 13.2601 35.9487 13.3317C35.8929 13.4034 35.852 13.4851 35.8282 13.5723C35.8045 13.6596 35.7985 13.7505 35.8104 13.8401C35.8224 13.9296 35.8521 14.0159 35.8979 14.0941Z" fill="#232328"/>
<path d="M41.018 24.6066L38.6136 24.1887C38.4313 24.157 38.2437 24.1979 38.0921 24.3025C37.9405 24.4071 37.8372 24.5668 37.805 24.7464C37.7729 24.926 37.8144 25.1108 37.9206 25.2602C38.0267 25.4096 38.1887 25.5114 38.371 25.5431L40.7757 25.9611C40.816 25.968 40.8568 25.9715 40.8977 25.9715C41.0722 25.9714 41.2404 25.9069 41.3691 25.7907C41.4977 25.6745 41.5775 25.515 41.5926 25.3436C41.6078 25.1723 41.5572 25.0016 41.4509 24.8652C41.3446 24.7288 41.1902 24.6366 41.0183 24.6068L41.018 24.6066Z" fill="#232328"/>
<path d="M33.2984 34.1981C33.24 34.1273 33.1679 34.0686 33.0863 34.0256C33.0047 33.9825 32.9152 33.9558 32.823 33.9472C32.7308 33.9385 32.6378 33.948 32.5494 33.9752C32.461 34.0023 32.379 34.0465 32.3081 34.1051C32.2372 34.1638 32.1788 34.2358 32.1364 34.3169C32.0941 34.398 32.0685 34.4866 32.0612 34.5776C32.0539 34.6685 32.0651 34.76 32.0941 34.8467C32.123 34.9333 32.1692 35.0134 32.2299 35.0823L33.7999 36.9253C33.9199 37.0615 34.0894 37.1458 34.2719 37.16C34.4545 37.1742 34.6353 37.1171 34.7755 37.0011C34.9157 36.8851 35.004 36.7194 35.0214 36.5398C35.0387 36.3602 34.9838 36.1811 34.8683 36.0411L33.2984 34.1981Z" fill="#232328"/>
<path d="M32.7635 10.0478C32.8654 10.048 32.9662 10.0261 33.0586 9.98374C33.1511 9.94133 33.2329 9.87942 33.2984 9.80239L36.4383 6.11575C36.499 6.04686 36.5452 5.96675 36.5741 5.8801C36.6031 5.79345 36.6143 5.70198 36.607 5.61104C36.5997 5.52009 36.5741 5.43148 36.5318 5.35036C36.4894 5.26925 36.431 5.19726 36.3601 5.13859C36.2892 5.07991 36.2072 5.03573 36.1188 5.00861C36.0304 4.9815 35.9374 4.97199 35.8452 4.98064C35.753 4.98929 35.6635 5.01593 35.5819 5.05901C35.5003 5.10208 35.4282 5.16074 35.3698 5.23154L32.2299 8.91818C32.1445 9.01837 32.0899 9.14048 32.0725 9.27017C32.0551 9.39987 32.0757 9.53176 32.1317 9.65036C32.1877 9.76896 32.2769 9.86935 32.3888 9.93975C32.5007 10.0101 32.6307 10.0476 32.7635 10.0478Z" fill="#232328"/>
<path d="M43.1808 17.6219L38.3708 18.4579C38.1989 18.4877 38.0447 18.5799 37.9385 18.7163C37.8322 18.8527 37.7817 19.0233 37.7968 19.1946C37.812 19.3659 37.8917 19.5253 38.0203 19.6416C38.1488 19.7578 38.3169 19.8223 38.4914 19.8224C38.5323 19.8224 38.5731 19.819 38.6134 19.8121L43.4234 18.9762C43.6057 18.9445 43.7677 18.8428 43.8738 18.6933C43.98 18.5439 44.0216 18.3591 43.9894 18.1795C43.9572 17.9999 43.854 17.8402 43.7023 17.7356C43.5507 17.6311 43.3631 17.5901 43.1808 17.6218V17.6219Z" fill="#232328"/>
<path d="M41.0814 32.0614L36.8512 29.6551C36.7719 29.6099 36.6843 29.5806 36.5934 29.5689C36.5025 29.5571 36.4102 29.5631 36.3217 29.5864C36.2332 29.6098 36.1502 29.6501 36.0775 29.7051C36.0048 29.7601 35.9438 29.8286 35.898 29.9068C35.8522 29.9851 35.8224 30.0714 35.8105 30.1609C35.7985 30.2504 35.8046 30.3414 35.8283 30.4286C35.852 30.5158 35.893 30.5976 35.9488 30.6692C36.0045 30.7409 36.0741 30.801 36.1535 30.8461L40.3837 33.2524C40.544 33.3436 40.7344 33.3683 40.9132 33.3211C41.092 33.2738 41.2444 33.1586 41.3369 33.0006C41.4295 32.8427 41.4545 32.655 41.4066 32.4789C41.3587 32.3027 41.2417 32.1525 41.0814 32.0614Z" fill="#232328"/>
<path d="M22 7.5625C18.3001 7.56661 14.753 9.01661 12.1368 11.5944C9.52059 14.1722 8.04898 17.6672 8.0448 21.3127C8.03901 23.1573 8.41384 24.9839 9.14654 26.6814C9.87923 28.3788 10.9545 29.9119 12.307 31.1873C12.9378 31.7702 13.442 32.4732 13.7888 33.2538C14.1356 34.0344 14.3179 34.8762 14.3246 35.7283V39.188C14.3246 39.3703 14.3982 39.5452 14.529 39.6741C14.6599 39.8031 14.8373 39.8755 15.0224 39.8755H17.1715C17.338 41.0204 17.9179 42.0677 18.8048 42.8252C19.6918 43.5828 20.8262 43.9999 22 43.9999C23.1738 43.9999 24.3082 43.5828 25.1951 42.8252C26.0821 42.0677 26.662 41.0204 26.8285 39.8755H28.9776C29.1626 39.8755 29.3401 39.8031 29.471 39.6741C29.6018 39.5452 29.6753 39.3703 29.6753 39.188V35.7283C29.6821 34.8762 29.8644 34.0344 30.2112 33.2538C30.558 32.4732 31.0621 31.7702 31.693 31.1873C33.0455 29.9119 34.1208 28.3788 34.8534 26.6814C35.5861 24.9839 35.961 23.1573 35.9552 21.3127C35.951 17.6672 34.4794 14.1722 31.8632 11.5944C29.247 9.01661 25.6999 7.56661 22 7.5625ZM22 42.6255C21.1961 42.6245 20.4171 42.3504 19.7944 41.8495C19.1717 41.3485 18.7433 40.6514 18.5814 39.8755H25.4186C25.2567 40.6514 24.8283 41.3485 24.2056 41.8495C23.5829 42.3504 22.8039 42.6245 22 42.6255ZM15.7202 38.5005V36.438H28.2798V38.5005H15.7202ZM19.209 25.4378H17.4646C17.1195 25.4378 16.7823 25.337 16.4954 25.1481C16.2086 24.9593 15.985 24.6908 15.8529 24.3767C15.7209 24.0627 15.6864 23.7171 15.7537 23.3837C15.821 23.0503 15.9871 22.744 16.2311 22.5036C16.475 22.2633 16.7859 22.0996 17.1242 22.0333C17.4626 21.9669 17.8134 22.001 18.1321 22.1311C18.4509 22.2612 18.7233 22.4814 18.915 22.7641C19.1066 23.0468 19.209 23.3791 19.209 23.719V25.4378ZM23.3955 35.0629H20.6045V26.8128H23.3955V35.0629ZM30.724 30.1976C29.3496 31.4786 28.4936 33.2073 28.3147 35.0629H24.791V26.8128H26.5354C27.1564 26.8128 27.7635 26.6314 28.2799 26.2914C28.7962 25.9515 29.1987 25.4683 29.4363 24.903C29.674 24.3376 29.7362 23.7156 29.615 23.1154C29.4939 22.5153 29.1948 21.964 28.7557 21.5314C28.3166 21.0987 27.7571 20.804 27.148 20.6847C26.5389 20.5653 25.9076 20.6265 25.3338 20.8607C24.7601 21.0949 24.2697 21.4914 23.9247 22.0002C23.5797 22.509 23.3955 23.1071 23.3955 23.719V25.4378H20.6045V23.719C20.6045 23.1071 20.4203 22.509 20.0753 22.0002C19.7303 21.4914 19.2399 21.0949 18.6661 20.8607C18.0924 20.6265 17.4611 20.5653 16.852 20.6847C16.2429 20.804 15.6834 21.0987 15.2443 21.5314C14.8052 21.964 14.5061 22.5153 14.385 23.1154C14.2638 23.7156 14.326 24.3376 14.5637 24.903C14.8013 25.4683 15.2038 25.9515 15.7201 26.2914C16.2365 26.6314 16.8435 26.8128 17.4646 26.8128H19.209V35.0629H15.6853C15.5064 33.2073 14.6503 31.4786 13.276 30.1976C12.0589 29.0501 11.0913 27.6707 10.432 26.1434C9.77258 24.616 9.43521 22.9725 9.44032 21.3127C9.44032 18.0306 10.7636 14.8829 13.119 12.5621C15.4744 10.2413 18.669 8.93752 22 8.93752C25.331 8.93752 28.5256 10.2413 30.881 12.5621C33.2364 14.8829 34.5597 18.0306 34.5597 21.3127C34.5648 22.9725 34.2274 24.616 33.568 26.1434C32.9087 27.6707 31.9411 29.0501 30.724 30.1976ZM24.791 25.4378V23.719C24.791 23.3791 24.8933 23.0468 25.085 22.7641C25.2767 22.4814 25.5491 22.2612 25.8679 22.1311C26.1866 22.001 26.5374 21.9669 26.8757 22.0333C27.2141 22.0996 27.5249 22.2633 27.7689 22.5036C28.0129 22.744 28.179 23.0503 28.2463 23.3837C28.3136 23.7171 28.2791 24.0627 28.147 24.3767C28.015 24.6908 27.7914 24.9593 27.5046 25.1481C27.2177 25.337 26.8804 25.4378 26.5354 25.4378H24.791Z" fill="#232328"/>
<path d="M32.7308 18.2739C32.0536 15.9836 30.6426 13.9706 28.7085 12.5357C26.7744 11.1008 24.4211 10.3209 22 10.3125C21.8149 10.3125 21.6375 10.3849 21.5066 10.5139C21.3758 10.6428 21.3022 10.8177 21.3022 11C21.3022 11.1824 21.3758 11.3572 21.5066 11.4862C21.6375 11.6151 21.8149 11.6875 22 11.6875C24.1185 11.6948 26.1777 12.3773 27.8701 13.6329C29.5625 14.8885 30.7972 16.6499 31.3898 18.6539C31.4429 18.8268 31.563 18.9721 31.7241 19.0584C31.8851 19.1447 32.0742 19.1651 32.2503 19.1152C32.4265 19.0653 32.5757 18.949 32.6656 18.7916C32.7555 18.6342 32.7789 18.4482 32.7308 18.2739V18.2739Z" fill="#232328"/>
</svg>
