<svg width="29" height="30" viewBox="0 0 29 30" fill="none" xmlns="http://www.w3.org/2000/svg">
<path d="M14.2501 4.75754C14.1253 4.75754 14.0057 4.80713 13.9174 4.89536C13.8291 4.98366 13.7796 5.1033 13.7796 5.22813L13.7796 8.42066C13.7796 8.61419 13.8981 8.78802 14.0783 8.85872C14.2586 8.92937 14.4636 8.88266 14.5952 8.74066C14.8866 8.42649 15.2829 8.25349 15.711 8.25349C16.55 8.25349 17.2326 8.93608 17.2326 9.77508C17.2326 10.6141 16.55 11.2967 15.711 11.2967C15.2829 11.2967 14.8867 11.1237 14.5952 10.8094C14.4636 10.6675 14.2585 10.6207 14.0783 10.6914C13.8981 10.7621 13.7796 10.9359 13.7796 11.1294V13.8515H11.9573C12.0933 13.542 12.166 13.2048 12.166 12.8613C12.166 11.5033 11.0611 10.3985 9.7032 10.3985C8.34525 10.3985 7.24043 11.5033 7.24043 12.8613C7.24043 13.2048 7.31313 13.542 7.44913 13.8515H5.15607C4.89619 13.8515 4.68548 14.0622 4.68548 14.3221C4.68548 15.9795 5.1176 17.6151 5.93507 19.0522C6.75201 20.4883 7.93654 21.6958 9.36067 22.5444C9.79314 22.802 10.0313 23.2211 10.0313 23.7243V25.9418C10.0313 26.7274 10.5607 27.3912 11.2814 27.5965V27.6851C11.2814 28.9615 12.3198 30 13.5963 30H14.9042C16.1806 30 17.219 28.9615 17.219 27.6851V27.5965C17.9397 27.3913 18.4692 26.7274 18.4692 25.9418V23.7243C18.4692 23.2211 18.7073 22.802 19.1397 22.5443C20.5382 21.7112 21.7095 20.5267 22.5269 19.1192C23.3696 17.6681 23.815 16.0093 23.815 14.322C23.8149 9.04819 19.5242 4.75754 14.2501 4.75754ZM15.711 12.2379C17.0689 12.2379 18.1737 11.1331 18.1737 9.77514C18.1737 8.41713 17.069 7.31237 15.711 7.31237C15.3675 7.31237 15.0303 7.38501 14.7208 7.52107V5.71142C19.102 5.94819 22.6239 9.47049 22.8607 13.8516H20.1517C19.9582 13.8516 19.7844 13.9701 19.7137 14.1503C19.643 14.3305 19.6898 14.5356 19.8317 14.6672C20.1459 14.9586 20.319 15.3549 20.319 15.783C20.319 16.622 19.6364 17.3046 18.7974 17.3046C17.9584 17.3046 17.2758 16.622 17.2758 15.783C17.2758 15.3549 17.4488 14.9586 17.763 14.6672C17.9049 14.5356 17.9517 14.3305 17.881 14.1503C17.8103 13.9701 17.6365 13.8516 17.443 13.8516H14.7209V12.0293C15.0303 12.1653 15.3674 12.2379 15.711 12.2379ZM9.84231 21.736C7.37731 20.2672 5.79742 17.638 5.6396 14.7928H8.34866C8.54225 14.7928 8.71602 14.6743 8.78672 14.4941C8.85743 14.314 8.81061 14.1088 8.66866 13.9772C8.35449 13.6858 8.18149 13.2896 8.18149 12.8614C8.18149 12.0224 8.86408 11.3398 9.70308 11.3398C10.5421 11.3398 11.2247 12.0224 11.2247 12.8614C11.2247 13.2895 11.0517 13.6858 10.7375 13.9772C10.5956 14.1088 10.5487 14.3139 10.6194 14.4941C10.6901 14.6743 10.864 14.7928 11.0575 14.7928H13.7796V16.6152C13.47 16.4792 13.1328 16.4064 12.7894 16.4064C11.4314 16.4064 10.3266 17.5112 10.3266 18.8692C10.3266 20.2272 11.4314 21.332 12.7894 21.332C13.1328 21.332 13.4701 21.2593 13.7796 21.1233V24.5579H10.9724V23.7244C10.9724 22.8886 10.5605 22.1638 9.84231 21.736ZM14.9041 29.0589H13.5961C12.8387 29.0589 12.2225 28.4426 12.2225 27.6851V27.6625H16.2777V27.6851C16.2777 28.4426 15.6616 29.0589 14.9041 29.0589ZM16.7483 26.7214H11.7519C11.3221 26.7214 10.9724 26.3718 10.9724 25.9419V25.4991H17.5279V25.9419C17.5279 26.3717 17.1782 26.7214 16.7483 26.7214ZM18.6579 21.736C17.9398 22.1639 17.5279 22.8886 17.5279 23.7245V24.5579H14.7208V20.2237C14.7208 20.0302 14.6023 19.8563 14.4221 19.7856C14.2419 19.715 14.0368 19.7617 13.9052 19.9037C13.6138 20.2179 13.2176 20.3909 12.7894 20.3909C11.9504 20.3909 11.2678 19.7083 11.2678 18.8693C11.2678 18.0303 11.9504 17.3477 12.7894 17.3477C13.2175 17.3477 13.6137 17.5207 13.9052 17.8349C14.0369 17.9769 14.242 18.0237 14.4221 17.953C14.6023 17.8823 14.7208 17.7084 14.7208 17.5149V14.7929H16.5432C16.4072 15.1023 16.3345 15.4396 16.3345 15.783C16.3345 17.141 17.4393 18.2458 18.7973 18.2458C20.1553 18.2458 21.26 17.141 21.26 15.783C21.26 15.4396 21.1873 15.1023 21.0513 14.7929H22.8596C22.7018 17.638 21.1229 20.2672 18.6579 21.736ZM23.7335 8.7749C23.6036 8.54984 23.6807 8.26202 23.9058 8.13207L25.9482 6.95284C26.1733 6.82278 26.4611 6.90001 26.5911 7.12507C26.721 7.35013 26.6439 7.63796 26.4188 7.7679L24.3763 8.94713C24.3022 8.98996 24.2213 9.01025 24.1415 9.01025C23.9789 9.01025 23.8207 8.92584 23.7335 8.7749ZM28.5363 14.2598C28.5363 14.5197 28.3256 14.7304 28.0657 14.7304L25.7073 14.7304C25.4474 14.7304 25.2367 14.5197 25.2367 14.2599C25.2367 14 25.4474 13.7893 25.7073 13.7893L28.0657 13.7892C28.3256 13.7892 28.5362 13.9999 28.5363 14.2598ZM26.5911 21.3752C26.5039 21.5262 26.3458 21.6106 26.1831 21.6106C26.1033 21.6106 26.0224 21.5902 25.9483 21.5475L23.9058 20.3682C23.6808 20.2383 23.6036 19.9505 23.7336 19.7254C23.8635 19.5003 24.1513 19.4232 24.3764 19.5532L26.4189 20.7324C26.6439 20.8623 26.721 21.1502 26.5911 21.3752ZM13.7796 2.82906V0.470648C13.7796 0.210765 13.9903 5.88264e-05 14.2501 5.88264e-05C14.51 5.88264e-05 14.7207 0.210765 14.7207 0.470648V2.82906C14.7207 3.08895 14.51 3.29965 14.2501 3.29965C13.9903 3.29965 13.7796 3.08895 13.7796 2.82906ZM2.82906 14.7207H0.470589C0.210706 14.7207 0 14.51 0 14.2501C0 13.9903 0.210706 13.7796 0.470589 13.7796H2.82906C3.08895 13.7796 3.29965 13.9903 3.29965 14.2501C3.29965 14.51 3.08895 14.7207 2.82906 14.7207ZM4.76677 19.7254C4.89672 19.9505 4.8196 20.2383 4.59454 20.3682L2.55206 21.5475C2.47795 21.5903 2.39706 21.6106 2.31724 21.6106C2.15459 21.6106 1.99642 21.5262 1.90924 21.3752C1.7793 21.1502 1.85642 20.8623 2.08147 20.7324L4.12395 19.5532C4.34901 19.4231 4.63677 19.5003 4.76677 19.7254ZM19.5531 4.12389L20.7323 2.08142C20.8623 1.85636 21.1501 1.77924 21.3752 1.90918C21.6002 2.03912 21.6773 2.32695 21.5474 2.55201L20.3682 4.59448C20.281 4.74542 20.1228 4.82983 19.9602 4.82983C19.8803 4.82983 19.7995 4.80948 19.7253 4.76672C19.5003 4.63677 19.4232 4.34901 19.5531 4.12389ZM0.470589 10.0353H3.6633C3.85689 10.0353 4.03065 9.91678 4.10136 9.73661C4.17207 9.55649 4.12524 9.35131 3.9833 9.21972C3.66912 8.92831 3.49612 8.53208 3.49612 8.10396C3.49612 7.2649 4.17871 6.58237 5.01772 6.58237C5.85672 6.58237 6.53931 7.26496 6.53931 8.10396C6.53931 8.53202 6.36631 8.92831 6.05213 9.21972C5.91019 9.35131 5.86336 9.55643 5.93407 9.73661C6.00478 9.91678 6.1786 10.0353 6.37213 10.0353H9.56478C9.82467 10.0353 10.0354 9.82461 10.0354 9.56472V7.27178C10.3449 7.40778 10.6821 7.48049 11.0256 7.48049C12.3835 7.48049 13.4883 6.37572 13.4883 5.01772C13.4883 3.65971 12.3836 2.55495 11.0256 2.55495C10.682 2.55495 10.3448 2.62759 10.0354 2.76365V0.470589C10.0354 0.210706 9.82467 0 9.56478 0C4.29077 0 5.87913e-05 4.29066 5.87913e-05 9.56472C-3.23156e-08 9.82461 0.210706 10.0353 0.470589 10.0353ZM9.09419 0.953884L9.09425 3.66324C9.09425 3.85683 9.21278 4.0306 9.39296 4.1013C9.57319 4.17201 9.77825 4.12518 9.90984 3.98324C10.2013 3.66907 10.5975 3.49607 11.0256 3.49607C11.8646 3.49607 12.5472 4.17866 12.5472 5.01766C12.5472 5.85666 11.8646 6.53925 11.0256 6.53925C10.5976 6.53925 10.2013 6.36625 9.90984 6.05201C9.7782 5.91007 9.57314 5.86336 9.39296 5.93395C9.21278 6.00466 9.09425 6.17848 9.09425 6.37201V9.09414H7.27184C7.40784 8.78467 7.48054 8.44743 7.48054 8.10396C7.48054 6.74595 6.37578 5.64119 5.01777 5.64119C3.65983 5.64119 2.555 6.74595 2.555 8.10396C2.555 8.44743 2.62771 8.78467 2.76371 9.09414H0.953884C1.19065 4.71289 4.71295 1.19059 9.09419 0.953884Z" fill="white"/>
</svg>
