<svg width="388" height="149" viewBox="0 0 388 149" fill="none" xmlns="http://www.w3.org/2000/svg">
<path d="M0.150757 129.509L27.0241 110.248V122.279H322.002C350.221 122.279 373.18 99.3381 373.18 71.141C373.18 42.9439 350.221 20.0031 322.002 20.0031H261.569C259.37 22.9095 255.896 24.7966 251.967 24.7966C245.318 24.7966 239.935 19.4102 239.935 12.773C239.935 6.13588 245.325 0.749512 251.967 0.749512C255.896 0.749512 259.37 2.63655 261.569 5.54302H322.002C358.202 5.54302 387.651 34.9692 387.651 71.141C387.651 107.313 358.202 136.739 322.002 136.739H27.0241V148.77L0.150757 129.509Z" fill="url(#paint0_linear_710_4697)"/>
<defs>
<linearGradient id="paint0_linear_710_4697" x1="251.613" y1="74.756" x2="374.251" y2="74.756" gradientUnits="userSpaceOnUse">
<stop stop-color="#8DCCFF"/>
<stop offset="1" stop-color="#42A5F5"/>
</linearGradient>
</defs>
</svg>
