<svg width="388" height="149" viewBox="0 0 388 149" fill="none" xmlns="http://www.w3.org/2000/svg">
<path d="M65.6495 4.7935H302.082C304.282 1.88704 307.755 0 311.684 0C318.333 0 323.717 5.38636 323.717 12.0235C323.717 18.6607 318.326 24.047 311.684 24.047C307.755 24.047 304.282 22.16 302.082 19.2535H65.6495C37.4303 19.2535 14.4714 42.1944 14.4714 70.3915C14.4714 98.5886 37.4303 121.529 65.6495 121.529H360.627V109.499L387.501 128.759L360.627 148.02V135.989H65.6495C29.4493 135.997 0 106.57 0 70.3987C0 34.2269 29.4493 4.7935 65.6495 4.7935Z" fill="url(#paint0_linear_710_4701)"/>
<defs>
<linearGradient id="paint0_linear_710_4701" x1="5.22417" y1="74.0137" x2="153.911" y2="74.0137" gradientUnits="userSpaceOnUse">
<stop stop-color="#17B1FF"/>
<stop offset="1" stop-color="#7CD2ED"/>
</linearGradient>
</defs>
</svg>
