<?xml version="1.0" encoding="UTF-8"?>
<svg width="138px" height="33px" viewBox="0 0 138 33" version="1.1" xmlns="http://www.w3.org/2000/svg" xmlns:xlink="http://www.w3.org/1999/xlink">
    <!-- Generator: Sketch 52.6 (67491) - http://www.bohemiancoding.com/sketch -->
    <title>freshclinics-title</title>
    <desc>Created with Sketch.</desc>
    <g id="Page-1" stroke="none" stroke-width="1" fill="none" fill-rule="evenodd">
        <g id="Artboard" transform="translate(-1526.000000, -879.000000)">
            <g id="freshclinics-title" transform="translate(1525.000000, 875.000000)">
                <path d="M2.568,15.696 L1,15.696 L1,4.352 L7.896,4.352 L7.896,5.808 L2.568,5.808 L2.568,9.456 L7.4,9.456 L7.4,10.928 L2.568,10.928 L2.568,15.696 Z M17.528,7.92 L17.528,9.52 C17.3107456,9.48848845 17.0915273,9.47244809 16.872,9.472 C15.464,9.472 14.76,10.262 14.76,11.84 L14.76,15.696 L13.256,15.696 L13.256,8 L14.728,8 L14.728,9.344 C15.198,8.363 15.965,7.872 17.032,7.872 C17.202,7.872 17.368,7.888 17.528,7.92 Z M24.024,11.056 L28.232,11.056 C28.211,10.48 28.019,10.008 27.656,9.64 C27.293,9.272 26.781,9.088 26.12,9.088 C25.523,9.088 25.032,9.283 24.648,9.672 C24.264,10.062 24.056,10.522 24.024,11.056 Z M28.456,13.056 L29.752,13.504 C29.5360445,14.2074136 29.0982279,14.8220407 28.504,15.256 C27.896,15.709 27.16,15.936 26.296,15.936 C25.219,15.936 24.304,15.566 23.552,14.824 C22.8,14.083 22.424,13.083 22.424,11.824 C22.424,10.651 22.787,9.68 23.512,8.912 C24.237,8.144 25.102,7.76 26.104,7.76 C27.267,7.76 28.174,8.125 28.824,8.856 C29.474,9.586 29.8,10.566 29.8,11.792 C29.8,11.984 29.79,12.144 29.768,12.272 L23.976,12.272 C23.986,12.955 24.213,13.515 24.656,13.952 C25.099,14.389 25.646,14.608 26.296,14.608 C27.395,14.608 28.115,14.091 28.456,13.056 Z M35,13.696 L36.36,13.216 C36.4049922,13.6162042 36.5992499,13.9847224 36.904,14.248 C37.214,14.52 37.629,14.656 38.152,14.656 C38.557,14.656 38.877,14.557 39.112,14.36 C39.3358917,14.1850601 39.4659256,13.9161262 39.464,13.632 C39.464,13.12 39.134,12.789 38.472,12.64 L37.16,12.352 C36.563,12.224 36.093,11.968 35.752,11.584 C35.411,11.2 35.24,10.736 35.24,10.192 C35.24,9.531 35.51,8.96 36.048,8.48 C36.587,8 37.229,7.76 37.976,7.76 C38.466,7.76 38.904,7.832 39.288,7.976 C39.672,8.12 39.971,8.309 40.184,8.544 C40.397,8.779 40.557,8.997 40.664,9.2 C40.771,9.403 40.851,9.61 40.904,9.824 L39.576,10.32 C39.5542323,10.1905467 39.5166163,10.0642643 39.464,9.944 C39.3972137,9.79896052 39.3140026,9.66206488 39.216,9.536 C39.0881998,9.37478182 38.9197572,9.25052088 38.728,9.176 C38.4890392,9.08052423 38.2332645,9.03426711 37.976,9.04 C37.603,9.04 37.296,9.141 37.056,9.344 C36.816,9.547 36.696,9.787 36.696,10.064 C36.696,10.554 36.989,10.864 37.576,10.992 L38.824,11.264 C39.507,11.414 40.032,11.688 40.4,12.088 C40.768,12.488 40.952,12.976 40.952,13.552 C40.952,14.16 40.704,14.709 40.208,15.2 C39.712,15.69 39.021,15.936 38.136,15.936 C37.186,15.936 36.446,15.699 35.912,15.224 C35.379,14.749 35.075,14.24 35,13.696 Z M48.456,11.168 L48.456,15.696 L46.952,15.696 L46.952,4.112 L48.456,4.112 L48.456,8.896 C48.968,8.149 49.746,7.776 50.792,7.776 C51.677,7.776 52.357,8.059 52.832,8.624 C53.307,9.189 53.544,9.92 53.544,10.816 L53.544,15.696 L52.04,15.696 L52.04,11.072 C52.04,9.782 51.443,9.136 50.248,9.136 C49.693,9.136 49.261,9.326 48.952,9.704 C48.642,10.083 48.477,10.571 48.456,11.168 Z M73.016,15.936 C71.469,15.936 70.144,15.403 69.04,14.336 C67.936,13.269 67.384,11.829 67.384,10.016 C67.384,8.8 67.661,7.733 68.216,6.816 C68.771,5.899 69.469,5.219 70.312,4.776 C71.1450309,4.33571346 72.0737825,4.10764723 73.016,4.112 C74.296,4.112 75.376,4.435 76.256,5.08 C77.136,5.725 77.72,6.603 78.008,7.712 L76.552,8.224 C76.339,7.371 75.928,6.712 75.32,6.248 C74.712,5.784 73.944,5.552 73.016,5.552 C71.906,5.552 70.957,5.944 70.168,6.728 C69.378,7.512 68.984,8.608 68.984,10.016 C68.984,11.424 69.379,12.523 70.168,13.312 C70.958,14.102 71.907,14.496 73.016,14.496 C73.944,14.496 74.717,14.248 75.336,13.752 C75.955,13.256 76.386,12.597 76.632,11.776 L78.024,12.288 C77.714,13.387 77.12,14.269 76.24,14.936 C75.36,15.603 74.285,15.936 73.016,15.936 Z M85.288,15.696 L83.784,15.696 L83.784,4.112 L85.288,4.112 L85.288,15.696 Z M93.336,15.696 L91.848,15.696 L91.848,8 L93.336,8 L93.336,15.696 Z M91.512,5.088 C91.512,4.789 91.616,4.533 91.824,4.32 C92.032,4.107 92.285,4 92.584,4 C92.883,4 93.139,4.104 93.352,4.312 C93.565,4.52 93.672,4.779 93.672,5.088 C93.672,5.387 93.565,5.64 93.352,5.848 C93.139,6.056 92.882,6.16 92.584,6.16 C92.285,6.16 92.032,6.056 91.824,5.848 C91.619503,5.64862724 91.5065768,5.37355056 91.512,5.088 Z M101.4,11.248 L101.4,15.696 L99.896,15.696 L99.896,8 L101.368,8 L101.368,9.104 C101.88,8.219 102.669,7.776 103.736,7.776 C104.621,7.776 105.301,8.059 105.776,8.624 C106.251,9.189 106.488,9.92 106.488,10.816 L106.488,15.696 L104.984,15.696 L104.984,11.072 C104.984,9.782 104.387,9.136 103.192,9.136 C102.627,9.136 102.187,9.336 101.872,9.736 C101.557,10.136 101.4,10.64 101.4,11.248 Z M114.376,15.696 L112.888,15.696 L112.888,8 L114.376,8 L114.376,15.696 Z M112.552,5.088 C112.552,4.789 112.656,4.533 112.864,4.32 C113.072,4.107 113.325,4 113.624,4 C113.923,4 114.179,4.104 114.392,4.312 C114.605,4.52 114.712,4.779 114.712,5.088 C114.712,5.387 114.605,5.64 114.392,5.848 C114.179,6.056 113.922,6.16 113.624,6.16 C113.325,6.16 113.072,6.056 112.864,5.848 C112.659503,5.64862724 112.546577,5.37355056 112.552,5.088 Z M124.168,9.152 C123.518,9.152 122.965,9.387 122.512,9.856 C122.059,10.326 121.832,10.986 121.832,11.84 C121.832,12.683 122.059,13.344 122.512,13.824 C122.965,14.304 123.522,14.544 124.184,14.544 C124.824,14.544 125.312,14.384 125.648,14.064 C125.984,13.744 126.211,13.376 126.328,12.96 L127.656,13.536 C127.443,14.176 127.04,14.736 126.448,15.216 C125.856,15.696 125.101,15.936 124.184,15.936 C123.064,15.936 122.136,15.546 121.4,14.768 C120.664,13.989 120.296,13.013 120.296,11.84 C120.296,10.645 120.664,9.667 121.4,8.904 C122.136,8.141 123.059,7.76 124.168,7.76 C125.107,7.76 125.867,8 126.448,8.48 C127.029,8.96 127.411,9.536 127.592,10.208 L126.232,10.784 C126.119823,10.3448423 125.887055,9.94581216 125.56,9.632 C125.23,9.312 124.765,9.152 124.168,9.152 Z M132.696,13.696 L134.056,13.216 C134.100992,13.6162042 134.29525,13.9847224 134.6,14.248 C134.91,14.52 135.325,14.656 135.848,14.656 C136.253,14.656 136.573,14.557 136.808,14.36 C137.031892,14.1850601 137.161926,13.9161262 137.16,13.632 C137.16,13.12 136.83,12.789 136.168,12.64 L134.856,12.352 C134.259,12.224 133.789,11.968 133.448,11.584 C133.107,11.2 132.936,10.736 132.936,10.192 C132.936,9.531 133.206,8.96 133.744,8.48 C134.283,8 134.925,7.76 135.672,7.76 C136.162,7.76 136.6,7.832 136.984,7.976 C137.368,8.12 137.667,8.309 137.88,8.544 C138.093,8.779 138.253,8.997 138.36,9.2 C138.467,9.403 138.547,9.61 138.6,9.824 L137.272,10.32 C137.250232,10.1905467 137.212616,10.0642643 137.16,9.944 C137.093214,9.79896052 137.010003,9.66206488 136.912,9.536 C136.7842,9.37478182 136.615757,9.25052088 136.424,9.176 C136.185039,9.08052423 135.929265,9.03426711 135.672,9.04 C135.299,9.04 134.992,9.141 134.752,9.344 C134.512,9.547 134.392,9.787 134.392,10.064 C134.392,10.554 134.685,10.864 135.272,10.992 L136.52,11.264 C137.203,11.414 137.728,11.688 138.096,12.088 C138.464,12.488 138.648,12.976 138.648,13.552 C138.648,14.16 138.4,14.709 137.904,15.2 C137.408,15.69 136.717,15.936 135.832,15.936 C134.882,15.936 134.142,15.699 133.608,15.224 C133.075,14.749 132.771,14.24 132.696,13.696 Z" id="Shape" fill="#000000" fill-rule="nonzero"></path>
                <path d="M2.5,35.5 L49.5,35.5" id="Path" stroke="#37AB91" stroke-width="2" stroke-linecap="square"></path>
            </g>
        </g>
    </g>
</svg>