<?xml version="1.0" encoding="UTF-8"?>
<svg width="56px" height="34px" viewBox="0 0 56 34" version="1.1" xmlns="http://www.w3.org/2000/svg" xmlns:xlink="http://www.w3.org/1999/xlink">
    <!-- Generator: Sketch 57.1 (83088) - https://sketch.com -->
    <title>frut</title>
    <desc>Created with Sketch.</desc>
    <defs>
        <path d="M3.384,18 L1.62,18 L1.62,5.238 L9.378,5.238 L9.378,6.876 L3.384,6.876 L3.384,10.98 L8.82,10.98 L8.82,12.636 L3.384,12.636 L3.384,18 Z M15.714,9.252 L15.714,11.052 C15.4619987,11.0159998 15.2160012,10.998 14.976,10.998 C13.3919921,10.998 12.6,11.8859911 12.6,13.662 L12.6,18 L10.908,18 L10.908,9.342 L12.564,9.342 L12.564,10.854 C13.0920026,9.74999448 13.955994,9.198 15.156,9.198 C15.348001,9.198 15.5339991,9.21599982 15.714,9.252 Z M23.31,16.956 C23.0819989,17.3880022 22.7340023,17.7149989 22.266,17.937 C21.7979977,18.1590011 21.2940027,18.27 20.754,18.27 C19.7699951,18.27 18.9840029,17.9430033 18.396,17.289 C17.8079971,16.6349967 17.514,15.804005 17.514,14.796 L17.514,9.342 L19.206,9.342 L19.206,14.544 C19.206,15.1920032 19.3649984,15.7259979 19.683,16.146 C20.0010016,16.5660021 20.4959966,16.776 21.168,16.776 C21.8400034,16.776 22.3499983,16.575002 22.698,16.173 C23.0460017,15.770998 23.22,15.2340034 23.22,14.562 L23.22,9.342 L24.912,9.342 L24.912,16.398 C24.912,16.9620028 24.9419997,17.4959975 25.002,18 L23.382,18 C23.3339998,17.7359987 23.31,17.3880022 23.31,16.956 Z M30.06,6.606 L30.06,9.342 L31.932,9.342 L31.932,10.872 L30.06,10.872 L30.06,15.372 C30.06,15.780002 30.1529991,16.079999 30.339,16.272 C30.5250009,16.464001 30.8339978,16.56 31.266,16.56 C31.5180013,16.56 31.739999,16.5360002 31.932,16.488 L31.932,17.928 C31.6439986,18.0360005 31.2600024,18.09 30.78,18.09 C30.0359963,18.09 29.4480022,17.8740022 29.016,17.442 C28.5839978,17.0099978 28.368,16.4040039 28.368,15.624 L28.368,10.872 L26.712,10.872 L26.712,9.342 L27.18,9.342 C27.6240022,9.342 27.9569989,9.21900123 28.179,8.973 C28.4010011,8.72699877 28.512,8.40600198 28.512,8.01 L28.512,6.606 L30.06,6.606 Z" id="path-1"></path>
    </defs>
    <g id="Services" stroke="none" stroke-width="1" fill="none" fill-rule="evenodd">
        <g id="Mobile-App-Development-Company" transform="translate(-799.000000, -7964.000000)">
            <g id="frut" transform="translate(800.000000, 7959.000000)">
                <g id="Frut" fill="#000000" fill-rule="nonzero">
                    <g>
                        <use xlink:href="#path-1"></use>
                        <use xlink:href="#path-1"></use>
                    </g>
                </g>
                <path d="M0.5,37.5 L53.5,37.5" id="Line-2" stroke="#00578B" stroke-width="2" stroke-linecap="square"></path>
            </g>
        </g>
    </g>
</svg>