<svg width="21" height="20" viewBox="0 0 21 20" fill="none" xmlns="http://www.w3.org/2000/svg">
<path fill-rule="evenodd" clip-rule="evenodd" d="M20.2141 0.956882C20.2141 0.703202 20.1132 0.459729 19.9336 0.28026C19.754 0.100792 19.5104 0 19.2565 0H0.957508C0.703662 0 0.460029 0.100792 0.280443 0.28026C0.100857 0.459729 0 0.703202 0 0.956882V19.03C0 19.2837 0.100857 19.5272 0.280443 19.7067C0.460029 19.8861 0.703662 19.9869 0.957508 19.9869H19.2565C19.5104 19.9869 19.754 19.8861 19.9336 19.7067C20.1132 19.5272 20.2141 19.2837 20.2141 19.03V0.956882ZM19.5757 0.956882V19.03C19.5757 19.1145 19.5421 19.1957 19.4823 19.2554C19.4223 19.3154 19.3412 19.349 19.2565 19.349H0.957508C0.872822 19.349 0.791753 19.3154 0.731749 19.2554C0.671958 19.1957 0.638339 19.1145 0.638339 19.03V0.956882C0.638339 0.872464 0.671958 0.791235 0.731749 0.731483C0.791753 0.671518 0.872822 0.637921 0.957508 0.637921H19.2565C19.3412 0.637921 19.4223 0.671518 19.4823 0.731483C19.5421 0.791235 19.5757 0.872464 19.5757 0.956882Z" fill="#0665FF"/>
<path fill-rule="evenodd" clip-rule="evenodd" d="M2.78592 2.8498H19.8949C20.0711 2.8498 20.2141 2.70681 20.2141 2.53063C20.2141 2.35445 20.0711 2.21146 19.8949 2.21146H2.78592C2.60974 2.21146 2.46675 2.35445 2.46675 2.53063C2.46675 2.70681 2.60974 2.8498 2.78592 2.8498ZM0.319169 2.8498H1.58627C1.76245 2.8498 1.90544 2.70681 1.90544 2.53063C1.90544 2.35445 1.76245 2.21146 1.58627 2.21146H0.319169C0.142988 2.21146 0 2.35445 0 2.53063C0 2.70681 0.142988 2.8498 0.319169 2.8498Z" fill="#0665FF"/>
<path fill-rule="evenodd" clip-rule="evenodd" d="M17.2528 1.74407H18.4624C18.6386 1.74407 18.7816 1.60108 18.7816 1.4249C18.7816 1.24872 18.6386 1.10573 18.4624 1.10573H17.2528C17.0766 1.10573 16.9336 1.24872 16.9336 1.4249C16.9336 1.60108 17.0766 1.74407 17.2528 1.74407Z" fill="#0665FF"/>
<path fill-rule="evenodd" clip-rule="evenodd" d="M14.6922 1.74407H15.9019C16.078 1.74407 16.221 1.60108 16.221 1.4249C16.221 1.24872 16.078 1.10573 15.9019 1.10573H14.6922C14.516 1.10573 14.373 1.24872 14.373 1.4249C14.373 1.60108 14.516 1.74407 14.6922 1.74407Z" fill="#0665FF"/>
<path fill-rule="evenodd" clip-rule="evenodd" d="M17.3906 11.661V15.604C17.3906 15.78 17.5336 15.9229 17.7098 15.9229C17.886 15.9229 18.029 15.78 18.029 15.604V11.661C18.029 11.4851 17.886 11.342 17.7098 11.342C17.5336 11.342 17.3906 11.4851 17.3906 11.661ZM17.3906 4.29045V9.75488C17.3906 9.93094 17.5336 10.0738 17.7098 10.0738C17.886 10.0738 18.029 9.93094 18.029 9.75488V4.29045C18.029 4.11438 17.886 3.97149 17.7098 3.97149C17.5336 3.97149 17.3906 4.11438 17.3906 4.29045Z" fill="#0665FF"/>
<path fill-rule="evenodd" clip-rule="evenodd" d="M17.7093 9.50821C17.0267 9.50821 16.4727 10.0621 16.4727 10.7441C16.4727 11.4262 17.0267 11.9799 17.7093 11.9799C18.3919 11.9799 18.946 11.4262 18.946 10.7441C18.946 10.0621 18.3919 9.50821 17.7093 9.50821ZM17.7093 10.1461C18.0396 10.1461 18.3077 10.4141 18.3077 10.7441C18.3077 11.0741 18.0396 11.342 17.7093 11.342C17.3791 11.342 17.111 11.0741 17.111 10.7441C17.111 10.4141 17.3791 10.1461 17.7093 10.1461Z" fill="#0665FF"/>
<path fill-rule="evenodd" clip-rule="evenodd" d="M9.8228 4.2628C9.8228 4.06547 9.74429 3.87622 9.60471 3.73652C9.46491 3.59702 9.27554 3.51856 9.07808 3.51856C7.70267 3.51856 3.3875 3.51856 2.01231 3.51856C1.81485 3.51856 1.62526 3.59702 1.48568 3.73652C1.34609 3.87622 1.26758 4.06547 1.26758 4.2628V8.13073C1.26758 8.32806 1.34609 8.51731 1.48568 8.65701C1.62526 8.79651 1.81485 8.87497 2.01231 8.87497H9.07808C9.27554 8.87497 9.46491 8.79651 9.60471 8.65701C9.74429 8.51731 9.8228 8.32806 9.8228 8.13073V4.2628ZM9.18447 4.2628V8.13073C9.18447 8.15901 9.17319 8.18601 9.15319 8.20579C9.13319 8.22578 9.10616 8.23705 9.07808 8.23705H2.01231C1.98401 8.23705 1.95698 8.22578 1.93698 8.20579C1.91719 8.18601 1.90592 8.15901 1.90592 8.13073V4.2628C1.90592 4.23452 1.91719 4.20751 1.93698 4.18753C1.95698 4.16775 1.98401 4.15648 2.01231 4.15648H9.07808C9.10616 4.15648 9.13319 4.16775 9.15319 4.18753C9.17319 4.20751 9.18447 4.23452 9.18447 4.2628Z" fill="#0665FF"/>
<path fill-rule="evenodd" clip-rule="evenodd" d="M2.01398 8.67275L9.40296 4.26875C9.55425 4.17859 9.60382 3.98254 9.5136 3.83135C9.42339 3.68017 9.2272 3.63062 9.07592 3.72078L1.68694 8.12478C1.53565 8.21494 1.48607 8.41099 1.57629 8.56218C1.66651 8.71336 1.86269 8.76291 2.01398 8.67275Z" fill="#0665FF"/>
<path fill-rule="evenodd" clip-rule="evenodd" d="M9.40296 8.12478L2.01398 3.72078C1.86269 3.63062 1.66651 3.68017 1.57629 3.83135C1.48607 3.98254 1.53565 4.17859 1.68694 4.26875L9.07592 8.67275C9.2272 8.76291 9.42339 8.71336 9.5136 8.56218C9.60382 8.41099 9.55425 8.21494 9.40296 8.12478Z" fill="#0665FF"/>
<path fill-rule="evenodd" clip-rule="evenodd" d="M2.56851 9.56754C1.85038 9.56754 1.26758 10.15 1.26758 10.8676C1.26758 11.5851 1.85038 12.1675 2.56851 12.1675C3.28643 12.1675 3.86945 11.5851 3.86945 10.8676C3.86945 10.15 3.28643 9.56754 2.56851 9.56754ZM2.56851 10.2055C2.93407 10.2055 3.23111 10.5021 3.23111 10.8676C3.23111 11.2329 2.93407 11.5296 2.56851 11.5296C2.20274 11.5296 1.90592 11.2329 1.90592 10.8676C1.90592 10.5021 2.20274 10.2055 2.56851 10.2055Z" fill="#0665FF"/>
<path fill-rule="evenodd" clip-rule="evenodd" d="M11.8361 3.51856C11.1182 3.51856 10.5352 4.10119 10.5352 4.81864C10.5352 5.53609 11.1182 6.11873 11.8361 6.11873C12.554 6.11873 13.137 5.53609 13.137 4.81864C13.137 4.10119 12.554 3.51856 11.8361 3.51856ZM11.8361 4.15648C12.2019 4.15648 12.4987 4.45311 12.4987 4.81864C12.4987 5.18417 12.2019 5.4808 11.8361 5.4808C11.4703 5.4808 11.1735 5.18417 11.1735 4.81864C11.1735 4.45311 11.4703 4.15648 11.8361 4.15648Z" fill="#0665FF"/>
<path fill-rule="evenodd" clip-rule="evenodd" d="M2.56851 12.8609C1.85038 12.8609 1.26758 13.4435 1.26758 14.161C1.26758 14.8787 1.85038 15.4611 2.56851 15.4611C3.28643 15.4611 3.86945 14.8787 3.86945 14.161C3.86945 13.4435 3.28643 12.8609 2.56851 12.8609ZM2.56851 13.4988C2.93407 13.4988 3.23111 13.7957 3.23111 14.161C3.23111 14.5265 2.93407 14.8232 2.56851 14.8232C2.20274 14.8232 1.90592 14.5265 1.90592 14.161C1.90592 13.7957 2.20274 13.4988 2.56851 13.4988Z" fill="#0665FF"/>
<path fill-rule="evenodd" clip-rule="evenodd" d="M2.56851 16.1545C1.85038 16.1545 1.26758 16.7369 1.26758 17.4546C1.26758 18.172 1.85038 18.7547 2.56851 18.7547C3.28643 18.7547 3.86945 18.172 3.86945 17.4546C3.86945 16.7369 3.28643 16.1545 2.56851 16.1545ZM2.56851 16.7924C2.93407 16.7924 3.23111 17.0891 3.23111 17.4546C3.23111 17.8199 2.93407 18.1168 2.56851 18.1168C2.20274 18.1168 1.90592 17.8199 1.90592 17.4546C1.90592 17.0891 2.20274 16.7924 2.56851 16.7924Z" fill="#0665FF"/>
<path fill-rule="evenodd" clip-rule="evenodd" d="M5.4012 10.588H7.47516C7.65134 10.588 7.79433 10.4448 7.79433 10.2688C7.79433 10.0926 7.65134 9.94966 7.47516 9.94966H5.4012C5.22523 9.94966 5.08203 10.0926 5.08203 10.2688C5.08203 10.4448 5.22523 10.588 5.4012 10.588Z" fill="#0665FF"/>
<path fill-rule="evenodd" clip-rule="evenodd" d="M5.4012 13.8814H8.79014C8.96632 13.8814 9.10931 13.7384 9.10931 13.5622C9.10931 13.386 8.96632 13.243 8.79014 13.243H5.4012C5.22523 13.243 5.08203 13.386 5.08203 13.5622C5.08203 13.7384 5.22523 13.8814 5.4012 13.8814Z" fill="#0665FF"/>
<path fill-rule="evenodd" clip-rule="evenodd" d="M8.46118 17.175H9.99979C10.176 17.175 10.319 17.032 10.319 16.8558C10.319 16.6796 10.176 16.5366 9.99979 16.5366H8.46118C8.285 16.5366 8.14201 16.6796 8.14201 16.8558C8.14201 17.032 8.285 17.175 8.46118 17.175ZM5.4012 17.175H7.39963C7.57581 17.175 7.71879 17.032 7.71879 16.8558C7.71879 16.6796 7.57581 16.5366 7.39963 16.5366H5.4012C5.22523 16.5366 5.08203 16.6796 5.08203 16.8558C5.08203 17.032 5.22523 17.175 5.4012 17.175Z" fill="#0665FF"/>
<path fill-rule="evenodd" clip-rule="evenodd" d="M5.4012 11.7858H12.1793C12.3553 11.7858 12.4985 11.6428 12.4985 11.4666C12.4985 11.2907 12.3553 11.1475 12.1793 11.1475H5.4012C5.22523 11.1475 5.08203 11.2907 5.08203 11.4666C5.08203 11.6428 5.22523 11.7858 5.4012 11.7858Z" fill="#0665FF"/>
<path fill-rule="evenodd" clip-rule="evenodd" d="M14.9033 7.49727H16.1825C16.3587 7.49727 16.5017 7.35428 16.5017 7.1781C16.5017 7.00192 16.3587 6.85893 16.1825 6.85893H14.9033C14.7271 6.85893 14.5841 7.00192 14.5841 7.1781C14.5841 7.35428 14.7271 7.49727 14.9033 7.49727ZM10.8543 7.49727H13.6754C13.8515 7.49727 13.9945 7.35428 13.9945 7.1781C13.9945 7.00192 13.8515 6.85893 13.6754 6.85893H10.8543C10.6781 6.85893 10.5352 7.00192 10.5352 7.1781C10.5352 7.35428 10.6781 7.49727 10.8543 7.49727Z" fill="#0665FF"/>
<path fill-rule="evenodd" clip-rule="evenodd" d="M10.8543 8.87539H16.1825C16.3587 8.87539 16.5017 8.7324 16.5017 8.55622C16.5017 8.38004 16.3587 8.23705 16.1825 8.23705H10.8543C10.6781 8.23705 10.5352 8.38004 10.5352 8.55622C10.5352 8.7324 10.6781 8.87539 10.8543 8.87539Z" fill="#0665FF"/>
<path fill-rule="evenodd" clip-rule="evenodd" d="M5.4012 15.0794H12.1793C12.3553 15.0794 12.4985 14.9364 12.4985 14.7602C12.4985 14.584 12.3553 14.441 12.1793 14.441H5.4012C5.22523 14.441 5.08203 14.584 5.08203 14.7602C5.08203 14.9364 5.22523 15.0794 5.4012 15.0794Z" fill="#0665FF"/>
<path fill-rule="evenodd" clip-rule="evenodd" d="M5.4012 18.373H12.1793C12.3553 18.373 12.4985 18.23 12.4985 18.0538C12.4985 17.8776 12.3553 17.7346 12.1793 17.7346H5.4012C5.22523 17.7346 5.08203 17.8776 5.08203 18.0538C5.08203 18.23 5.22523 18.373 5.4012 18.373Z" fill="#0665FF"/>
</svg>
