<svg xmlns="http://www.w3.org/2000/svg" width="122" height="35" viewBox="0 0 122 35">
    <g fill="none" fill-rule="evenodd">
        <path fill="#000" d="M7.368 12.04H.44V.696h1.568v9.872h5.36v1.472zm5.2-2.064c0-.661.213-1.192.64-1.592.427-.4.992-.648 1.696-.744l2.08-.304c.395-.053.592-.245.592-.576 0-.405-.139-.736-.416-.992-.277-.256-.693-.384-1.248-.384-.512 0-.917.141-1.216.424-.299.283-.475.659-.528 1.128l-1.44-.336c.075-.736.41-1.336 1.008-1.8.597-.464 1.312-.696 2.144-.696 1.088 0 1.893.264 2.416.792.523.528.784 1.203.784 2.024v3.856c0 .459.032.88.096 1.264h-1.472a6.336 6.336 0 0 1-.08-1.04c-.213.341-.525.64-.936.896-.41.256-.925.384-1.544.384-.757 0-1.376-.227-1.856-.68-.48-.453-.72-.995-.72-1.624zm2.784 1.04c.672 0 1.21-.181 1.616-.544.405-.363.608-.939.608-1.728v-.352l-2.352.352c-.341.053-.613.176-.816.368-.203.192-.304.453-.304.784 0 .299.115.56.344.784.23.224.53.336.904.336zm14.336-6.752v1.6a4.636 4.636 0 0 0-.656-.048c-1.408 0-2.112.79-2.112 2.368v3.856h-1.504V4.344h1.472v1.344c.47-.981 1.237-1.472 2.304-1.472.17 0 .336.016.496.048zm4.96 8.192l1.456-.336c.053.544.272.995.656 1.352.384.357.864.536 1.44.536 1.568 0 2.352-.832 2.352-2.496v-1.104c-.192.373-.493.677-.904.912-.41.235-.893.352-1.448.352-1.024 0-1.87-.35-2.536-1.048-.667-.699-1-1.592-1-2.68 0-1.056.33-1.944.992-2.664.661-.72 1.51-1.08 2.544-1.08 1.173 0 1.963.405 2.368 1.216V4.344h1.488v7.12c0 .512-.067.99-.2 1.432a3.77 3.77 0 0 1-.632 1.224c-.288.373-.69.667-1.208.88-.517.213-1.123.32-1.816.32-.95 0-1.755-.27-2.416-.808-.661-.539-1.04-1.224-1.136-2.056zm3.776-2.048c.65 0 1.179-.227 1.584-.68.405-.453.608-1.048.608-1.784s-.203-1.33-.608-1.784c-.405-.453-.933-.68-1.584-.68-.661 0-1.197.224-1.608.672-.41.448-.616 1.045-.616 1.792 0 .757.2 1.357.6 1.8.4.443.941.664 1.624.664zm13.328.528c.672 0 1.24-.243 1.704-.728.464-.485.696-1.16.696-2.024 0-.853-.232-1.523-.696-2.008a2.267 2.267 0 0 0-1.704-.728c-.672 0-1.24.243-1.704.728-.464.485-.696 1.155-.696 2.008 0 .864.232 1.539.696 2.024a2.267 2.267 0 0 0 1.704.728zm0-6.832c1.141 0 2.083.387 2.824 1.16.741.773 1.112 1.747 1.112 2.92 0 1.184-.368 2.163-1.104 2.936-.736.773-1.68 1.16-2.832 1.16s-2.096-.387-2.832-1.16c-.736-.773-1.104-1.752-1.104-2.936 0-1.173.37-2.147 1.112-2.92.741-.773 1.683-1.16 2.824-1.16zm19.584 7.936h-1.568V.696h6.896v1.456h-5.328V5.8h4.832v1.472h-4.832v4.768zm12.496 0h-1.488V4.344h1.488v7.696zM82.008 1.432c0-.299.104-.555.312-.768.208-.213.461-.32.76-.32s.555.104.768.312c.213.208.32.467.32.776 0 .299-.107.552-.32.76-.213.208-.47.312-.768.312-.299 0-.552-.104-.76-.312a1.034 1.034 0 0 1-.312-.76zm9.888 10.608h-1.504V.456h1.504V12.04zm8.048 0h-1.488V4.344h1.44v1.024c.235-.405.565-.715.992-.928.427-.213.875-.32 1.344-.32.501 0 .96.123 1.376.368.416.245.725.608.928 1.088.533-.97 1.392-1.456 2.576-1.456.736 0 1.363.25 1.88.752.517.501.776 1.227.776 2.176v4.992h-1.488V7.208c0-.533-.136-.96-.408-1.28-.272-.32-.68-.48-1.224-.48-.523 0-.95.184-1.28.552-.33.368-.496.83-.496 1.384v4.656h-1.504V7.208c0-.533-.136-.96-.408-1.28-.272-.32-.68-.48-1.224-.48-.533 0-.965.181-1.296.544-.33.363-.496.832-.496 1.408v4.64zm15.504-2l1.36-.48a1.6 1.6 0 0 0 .544 1.032c.31.272.725.408 1.248.408.405 0 .725-.099.96-.296a.916.916 0 0 0 .352-.728c0-.512-.33-.843-.992-.992l-1.312-.288c-.597-.128-1.067-.384-1.408-.768-.341-.384-.512-.848-.512-1.392 0-.661.27-1.232.808-1.712.539-.48 1.181-.72 1.928-.72.49 0 .928.072 1.312.216.384.144.683.333.896.568.213.235.373.453.48.656.107.203.187.41.24.624l-1.328.496a1.6 1.6 0 0 0-.112-.376 2.087 2.087 0 0 0-.248-.408 1.158 1.158 0 0 0-.488-.36 1.912 1.912 0 0 0-.752-.136c-.373 0-.68.101-.92.304-.24.203-.36.443-.36.72 0 .49.293.8.88.928l1.248.272c.683.15 1.208.424 1.576.824.368.4.552.888.552 1.464 0 .608-.248 1.157-.744 1.648-.496.49-1.187.736-2.072.736-.95 0-1.69-.237-2.224-.712-.533-.475-.837-.984-.912-1.528z"/>
        <path stroke="#BE202F" stroke-linecap="square" stroke-width="2" d="M1.5 33.5h54"/>
    </g>
</svg>
