<svg width="543" height="149" viewBox="0 0 543 149" fill="none" xmlns="http://www.w3.org/2000/svg">
<path d="M0.150789 128.996L0.0241699 109.735V121.766H477.002C505.221 121.766 528.18 98.8253 528.18 70.621C528.18 42.4167 505.221 19.483 477.002 19.483H416.569C414.37 22.3895 410.897 24.2765 406.968 24.2765C400.318 24.2765 394.935 18.8902 394.935 12.253C394.935 5.61586 400.325 0.229492 406.968 0.229492C410.897 0.229492 414.37 2.11653 416.569 5.023H477.002C513.202 5.023 542.651 34.4492 542.651 70.621C542.651 106.793 513.202 136.226 477.002 136.226H0.0241699V148.257L0.150789 128.996Z" fill="url(#paint0_linear_710_5450)"/>
<defs>
<linearGradient id="paint0_linear_710_5450" x1="352.153" y1="74.2396" x2="523.886" y2="74.2396" gradientUnits="userSpaceOnUse">
<stop stop-color="#8DCCFF"/>
<stop offset="1" stop-color="#42A5F5"/>
</linearGradient>
</defs>
</svg>
