<svg width="44" height="44" viewBox="0 0 44 44" fill="none" xmlns="http://www.w3.org/2000/svg">
<path d="M37.5833 29.3334V15.5834C37.5833 14.8541 37.2936 14.1546 36.7779 13.6389C36.2621 13.1231 35.5627 12.8334 34.8333 12.8334H20.4612C19.8148 12.8334 19.1799 12.6625 18.6208 12.3381C18.0617 12.0137 17.5983 11.5472 17.2776 10.986L15.4585 7.80238C15.2179 7.38144 14.8704 7.03157 14.4511 6.78824C14.0318 6.5449 13.5556 6.41674 13.0707 6.41675H3.66666C2.93732 6.41675 2.23785 6.70648 1.72212 7.2222C1.2064 7.73793 0.916664 8.4374 0.916664 9.16675V29.3334C0.916664 30.0628 1.2064 30.7622 1.72212 31.278C2.23785 31.7937 2.93732 32.0834 3.66666 32.0834H40.3333C39.604 32.0834 38.9045 31.7937 38.3888 31.278C37.8731 30.7622 37.5833 30.0628 37.5833 29.3334Z" fill="#E6ECFF"/>
<path d="M43.0833 3.66675V29.3334C43.0833 30.0628 42.7936 30.7622 42.2779 31.278C41.7622 31.7937 41.0627 32.0834 40.3333 32.0834C39.604 32.0834 38.9045 31.7937 38.3888 31.278C37.8731 30.7622 37.5833 30.0628 37.5833 29.3334V15.5834C37.5833 14.8541 37.2936 14.1546 36.7779 13.6389C36.2622 13.1231 35.5627 12.8334 34.8333 12.8334H20.4612C19.8148 12.8334 19.1799 12.6625 18.6208 12.3381C18.0617 12.0137 17.5983 11.5472 17.2776 10.986L15.4585 7.80238C15.218 7.38144 14.8704 7.03157 14.4511 6.78824C14.0318 6.5449 13.5556 6.41674 13.0708 6.41675H5.5V3.66675C5.5 2.9374 5.78973 2.23793 6.30546 1.7222C6.82118 1.20648 7.52065 0.916748 8.25 0.916748H40.3333C41.0627 0.916748 41.7622 1.20648 42.2779 1.7222C42.7936 2.23793 43.0833 2.9374 43.0833 3.66675Z" fill="#376CFB"/>
<path d="M19.25 43.0833C25.3251 43.0833 30.25 38.1584 30.25 32.0833C30.25 26.0081 25.3251 21.0833 19.25 21.0833C13.1749 21.0833 8.25 26.0081 8.25 32.0833C8.25 38.1584 13.1749 43.0833 19.25 43.0833Z" fill="#E6ECFF"/>
<path d="M23.1016 38.5C22.4163 38.4981 21.7594 38.2264 21.2731 37.7435L19.3736 35.8439L18.9049 35.9254C18.606 35.9775 18.3032 36.0038 17.9998 36.0042C17.0047 36.0081 16.0305 35.7175 15.2002 35.169C14.144 34.4903 13.3732 33.448 13.0336 32.2393C12.6941 31.0306 12.8094 29.7394 13.3577 28.61L16.7978 32.0502C17.123 32.3687 17.5601 32.547 18.0152 32.547C18.4704 32.547 18.9075 32.3687 19.2327 32.0502C19.3927 31.8904 19.5196 31.7006 19.6062 31.4917C19.6928 31.2828 19.7373 31.0589 19.7373 30.8327C19.7373 30.6066 19.6928 30.3827 19.6062 30.1738C19.5196 29.9649 19.3927 29.7751 19.2327 29.6153L15.7932 26.1751C16.4858 25.838 17.2462 25.6634 18.0164 25.6648C18.7693 25.6646 19.5131 25.8293 20.1955 26.1472C20.878 26.4651 21.4826 26.9285 21.9669 27.505C22.4511 28.0814 22.8033 28.7569 22.9987 29.484C23.1941 30.211 23.228 30.9721 23.098 31.7136L23.0174 32.1811L24.8232 33.9869C25.3179 34.4551 25.6142 35.0952 25.6512 35.7753C25.6882 36.4554 25.463 37.1238 25.022 37.6429C24.7881 37.9051 24.5028 38.1165 24.1838 38.2639C23.8648 38.4112 23.5189 38.4914 23.1676 38.4995L23.1016 38.5Z" fill="#376CFB"/>
<path d="M40.3333 0H8.25C7.27785 0.00101915 6.34581 0.387655 5.6584 1.07507C4.97099 1.76248 4.58435 2.69452 4.58333 3.66667V5.5H3.66667C2.69452 5.50102 1.76248 5.88766 1.07507 6.57507C0.387655 7.26248 0.00101915 8.19452 0 9.16667L0 29.3333C0.00101915 30.3055 0.387655 31.2375 1.07507 31.9249C1.76248 32.6123 2.69452 32.999 3.66667 33H4.58333C4.82645 33 5.05961 32.9034 5.23151 32.7315C5.40342 32.5596 5.5 32.3265 5.5 32.0833C5.5 31.8402 5.40342 31.6071 5.23151 31.4352C5.05961 31.2632 4.82645 31.1667 4.58333 31.1667H3.66667C3.18061 31.1661 2.71462 30.9728 2.37092 30.6291C2.02722 30.2854 1.83389 29.8194 1.83333 29.3333V9.16667C1.83389 8.68061 2.02722 8.21462 2.37092 7.87092C2.71462 7.52723 3.18061 7.33389 3.66667 7.33333H13.0717C13.3942 7.33359 13.711 7.41908 13.9898 7.58115C14.2687 7.74322 14.4998 7.97611 14.6597 8.25623L16.4823 11.4351C16.8823 12.1374 17.461 12.7214 18.1595 13.128C18.8581 13.5345 19.6517 13.7491 20.46 13.75H34.8333C35.3194 13.7506 35.7854 13.9439 36.1291 14.2876C36.4728 14.6313 36.6661 15.0973 36.6667 15.5833V29.3333C36.6659 29.9772 36.8356 30.6097 37.1586 31.1667H33.9167C33.6736 31.1667 33.4404 31.2632 33.2685 31.4352C33.0966 31.6071 33 31.8402 33 32.0833C33 32.3265 33.0966 32.5596 33.2685 32.7315C33.4404 32.9034 33.6736 33 33.9167 33H40.3333C41.3055 32.999 42.2375 32.6123 42.9249 31.9249C43.6123 31.2375 43.999 30.3055 44 29.3333V3.66667C43.999 2.69452 43.6123 1.76248 42.9249 1.07507C42.2375 0.387655 41.3055 0.00101915 40.3333 0V0ZM42.1667 29.3333C42.1667 29.8196 41.9735 30.2859 41.6297 30.6297C41.2859 30.9735 40.8196 31.1667 40.3333 31.1667C39.8471 31.1667 39.3808 30.9735 39.037 30.6297C38.6932 30.2859 38.5 29.8196 38.5 29.3333V15.5833C38.499 14.6112 38.1123 13.6791 37.4249 12.9917C36.7375 12.3043 35.8055 11.9177 34.8333 11.9167H20.46C19.9751 11.916 19.4991 11.787 19.0802 11.5428C18.6613 11.2987 18.3144 10.948 18.0748 10.5265L16.2511 7.34672C15.9308 6.78614 15.468 6.32013 14.9097 5.99585C14.3514 5.67157 13.7173 5.50051 13.0717 5.5H6.41667V3.66667C6.41722 3.18061 6.61056 2.71462 6.95425 2.37092C7.29795 2.02722 7.76394 1.83389 8.25 1.83333H40.3333C40.8194 1.83389 41.2854 2.02722 41.6291 2.37092C41.9728 2.71462 42.1661 3.18061 42.1667 3.66667V29.3333Z" fill="#232328"/>
<path d="M19.25 20.1667C16.8931 20.1667 14.5891 20.8656 12.6295 22.1751C10.6698 23.4845 9.14238 25.3456 8.24044 27.5231C7.33849 29.7006 7.1025 32.0966 7.56231 34.4082C8.02212 36.7198 9.15707 38.8432 10.8236 40.5098C12.4902 42.1763 14.6136 43.3113 16.9252 43.7711C19.2368 44.2309 21.6328 43.9949 23.8103 43.093C25.9878 42.191 27.8489 40.6636 29.1583 38.704C30.4678 36.7443 31.1667 34.4403 31.1667 32.0834C31.1631 28.924 29.9065 25.895 27.6724 23.661C25.4384 21.427 22.4094 20.1703 19.25 20.1667ZM19.25 42.1667C17.2557 42.1667 15.3062 41.5754 13.648 40.4674C11.9898 39.3594 10.6974 37.7846 9.93422 35.9421C9.17103 34.0997 8.97135 32.0722 9.36042 30.1163C9.74948 28.1603 10.7098 26.3636 12.12 24.9534C13.5302 23.5432 15.3269 22.5829 17.2828 22.1938C19.2388 21.8048 21.2662 22.0044 23.1087 22.7676C24.9512 23.5308 26.526 24.8232 27.634 26.4814C28.742 28.1396 29.3333 30.0891 29.3333 32.0834C29.3303 34.7568 28.267 37.3197 26.3766 39.2101C24.4863 41.1004 21.9233 42.1637 19.25 42.1667Z" fill="#232328"/>
<path d="M23.9838 31.8684C24.1763 30.7693 24.0622 29.6384 23.6539 28.6C23.2457 27.5615 22.559 26.6557 21.6695 25.982C20.78 25.3084 19.722 24.8929 18.6118 24.7814C17.5015 24.6698 16.382 24.8665 15.3763 25.3497C15.2446 25.4134 15.1301 25.5077 15.0423 25.6247C14.9545 25.7417 14.896 25.878 14.8716 26.0222C14.8472 26.1664 14.8577 26.3144 14.9022 26.4537C14.9467 26.5931 15.0239 26.7197 15.1274 26.8232L18.5676 30.2633C18.6425 30.338 18.7018 30.4268 18.7424 30.5245C18.7829 30.6222 18.8037 30.7269 18.8037 30.8327C18.8037 30.9384 18.7829 31.0431 18.7424 31.1408C18.7018 31.2385 18.6425 31.3273 18.5676 31.402C18.4143 31.5485 18.2104 31.6303 17.9983 31.6303C17.7862 31.6303 17.5823 31.5485 17.4289 31.402L13.9883 27.9618C13.885 27.8583 13.7584 27.781 13.619 27.7365C13.4797 27.692 13.3317 27.6814 13.1875 27.7058C13.0433 27.7302 12.907 27.7887 12.79 27.8766C12.6731 27.9644 12.5788 28.079 12.5152 28.2107C12.032 29.2179 11.8356 30.3389 11.9476 31.4504C12.0597 32.562 12.4759 33.6211 13.1506 34.5116C13.8252 35.4021 14.7322 36.0894 15.7719 36.4982C16.8116 36.907 17.9439 37.0213 19.0443 36.8287L20.6073 38.3916C21.2652 39.0468 22.1555 39.4153 23.084 39.4166C23.1145 39.4166 23.1445 39.4166 23.1749 39.4157C23.6506 39.4046 24.1189 39.2959 24.5508 39.0963C24.9828 38.8967 25.3691 38.6106 25.6859 38.2555C26.2843 37.5621 26.5938 36.6656 26.5506 35.7507C26.5075 34.8358 26.115 33.9723 25.4541 33.3383L23.9838 31.8684ZM24.3235 37.0292C24.1725 37.1986 23.9884 37.335 23.7825 37.4302C23.5766 37.5254 23.3533 37.5772 23.1266 37.5824C22.8998 37.593 22.6735 37.555 22.4626 37.4711C22.2517 37.3871 22.0612 37.259 21.9037 37.0955L19.9863 35.1779C19.9012 35.0927 19.8002 35.0251 19.689 34.979C19.5778 34.9329 19.4586 34.9093 19.3382 34.9094C19.2584 34.9092 19.1789 34.9197 19.1019 34.9407C18.4309 35.1209 17.7261 35.1342 17.0489 34.9792C16.3717 34.8243 15.7427 34.5058 15.217 34.0518C14.6912 33.5977 14.2846 33.0218 14.0327 32.3744C13.7808 31.7269 13.6913 31.0277 13.7719 30.3377L16.132 32.6983C16.6347 33.1783 17.303 33.4462 17.9981 33.4462C18.6931 33.4462 19.3614 33.1783 19.8641 32.6983C20.1091 32.4533 20.3035 32.1625 20.4361 31.8424C20.5687 31.5224 20.637 31.1793 20.637 30.8328C20.637 30.4864 20.5687 30.1433 20.4361 29.8232C20.3035 29.5032 20.1091 29.2124 19.8641 28.9674L17.5083 26.6108C18.1965 26.5302 18.894 26.6194 19.5397 26.8707C20.1854 27.122 20.7597 27.5277 21.2124 28.0523C21.6651 28.5768 21.9823 29.2043 22.1364 29.8799C22.2904 30.5554 22.2766 31.2585 22.0962 31.9274C22.0551 32.0827 22.0555 32.246 22.0973 32.401C22.1391 32.5561 22.2209 32.6974 22.3345 32.8109L24.1587 34.6344C24.4822 34.9398 24.6788 35.3558 24.7093 35.7996C24.7399 36.2434 24.6021 36.6824 24.3235 37.0291V37.0292Z" fill="#232328"/>
</svg>
