<svg xmlns="http://www.w3.org/2000/svg" width="16" height="21" viewBox="0 0 16 21">
    <path fill="#CCD0D2" fill-rule="nonzero" d="M10.974 3.11c.77-.825 1.29-1.969 1.148-3.11-1.11.04-2.454.651-3.25 1.475-.713.73-1.338 1.896-1.171 3.014 1.237.084 2.501-.557 3.273-1.38zm2.361 7.879c-.023-2.558 2.026-3.787 2.116-3.846-1.151-1.737-2.945-1.975-3.584-2.001-1.528-.16-2.979.925-3.754.925-.773 0-1.967-.904-3.234-.88-1.666.027-3.2.997-4.055 2.534-1.73 3.092-.444 7.673 1.242 10.181.824 1.228 1.805 2.605 3.094 2.555 1.244-.05 1.713-.827 3.213-.827 1.502 0 1.922.827 3.236.803 1.336-.025 2.182-1.252 2.999-2.484.945-1.424 1.335-2.802 1.358-2.872-.03-.017-2.603-1.03-2.63-4.088z"/>
</svg>
