<svg width="388" height="149" viewBox="0 0 388 149" fill="none" xmlns="http://www.w3.org/2000/svg">
<path d="M65.6495 5.27984H126.082C128.282 2.37337 131.755 0.486328 135.684 0.486328C142.333 0.486328 147.717 5.8727 147.717 12.5099C147.717 19.147 142.326 24.5334 135.684 24.5334C131.755 24.5334 128.282 22.6463 126.082 19.7399H65.6495C37.4303 19.7399 14.4714 42.6807 14.4714 70.8778C14.4714 99.0749 37.4303 122.016 65.6495 122.016H360.627V109.985L387.501 129.246L360.627 148.507V136.476H65.6495C29.4493 136.483 0 107.057 0 70.885C0 34.7132 29.4493 5.28705 65.6495 5.28705V5.27984Z" fill="url(#paint0_linear_710_4698)"/>
<defs>
<linearGradient id="paint0_linear_710_4698" x1="5.22417" y1="74.5" x2="153.911" y2="74.5" gradientUnits="userSpaceOnUse">
<stop stop-color="#17B1FF"/>
<stop offset="1" stop-color="#7CD2ED"/>
</linearGradient>
</defs>
</svg>
