<svg width="18" height="20" viewBox="0 0 18 20" fill="none" xmlns="http://www.w3.org/2000/svg">
<path d="M3.97266 6.51513L4.61488 7.08599C4.72527 7.18411 4.89648 7.16395 4.98109 7.04298L5.94187 5.66884" stroke="#0665FF" stroke-miterlimit="10" stroke-linecap="round" stroke-linejoin="round"/>
<path d="M3.97266 10.792L4.61488 11.3629C4.72527 11.461 4.89648 11.4409 4.98109 11.3199L5.94187 9.9457" stroke="#0665FF" stroke-miterlimit="10" stroke-linecap="round" stroke-linejoin="round"/>
<path d="M3.97266 15.0114L4.61488 15.5823C4.72527 15.6804 4.89648 15.6603 4.98109 15.5393L5.94187 14.1652" stroke="#0665FF" stroke-miterlimit="10" stroke-linecap="round" stroke-linejoin="round"/>
<path d="M7.64062 5.82361H11.7809" stroke="#0665FF" stroke-miterlimit="10" stroke-linecap="round" stroke-linejoin="round"/>
<path d="M7.64062 7.12476H11.7809" stroke="#0665FF" stroke-miterlimit="10" stroke-linecap="round" stroke-linejoin="round"/>
<path d="M7.64062 10.0067H11.7809" stroke="#0665FF" stroke-miterlimit="10" stroke-linecap="round" stroke-linejoin="round"/>
<path d="M7.64062 11.3078H9.71074" stroke="#0665FF" stroke-miterlimit="10" stroke-linecap="round" stroke-linejoin="round"/>
<path d="M15.0339 5.65405V3.27487C15.0339 2.91924 14.7454 2.63099 14.3896 2.63099H11.1191" stroke="#0665FF" stroke-miterlimit="10" stroke-linecap="round" stroke-linejoin="round"/>
<path d="M4.63352 2.63096H1.36301C1.00723 2.63096 0.71875 2.91924 0.71875 3.27483V19.0634C0.71875 19.4191 1.00723 19.7073 1.36301 19.7073H14.3891C14.7449 19.7073 15.0334 19.4191 15.0334 19.0634V11.6039" stroke="#0665FF" stroke-miterlimit="10" stroke-linecap="round" stroke-linejoin="round"/>
<path d="M9.15164 1.22936C9.15164 0.719386 8.73793 0.305985 8.22766 0.305985H7.52309C7.01277 0.305985 6.5991 0.719386 6.5991 1.22936C6.5991 1.48806 6.38922 1.69781 6.13035 1.69781H5.56656C5.05086 1.69781 4.63281 2.11558 4.63281 2.63095V3.12117C4.63281 3.36582 4.83125 3.56409 5.07602 3.56409H10.6747C10.9195 3.56409 11.1179 3.36582 11.1179 3.12117V2.63095C11.1179 2.11558 10.6999 1.69781 10.1842 1.69781H9.62039C9.36148 1.69781 9.15164 1.48806 9.15164 1.22936Z" stroke="#0665FF" stroke-miterlimit="10" stroke-linecap="round" stroke-linejoin="round"/>
<path d="M2.11328 2.63097V17.7042C2.11328 17.9388 2.30355 18.1289 2.53828 18.1289H6.89992" stroke="#0665FF" stroke-miterlimit="10" stroke-linecap="round" stroke-linejoin="round"/>
<path d="M13.6387 7.39729V2.63096" stroke="#0665FF" stroke-miterlimit="10" stroke-linecap="round" stroke-linejoin="round"/>
<path d="M9.36465 18.1201L8.14844 18.1289H13.2135C13.4482 18.1289 13.6385 17.9388 13.6385 17.7042V13.3394" stroke="#0665FF" stroke-miterlimit="10" stroke-linecap="round" stroke-linejoin="round"/>
<path d="M14.6036 7.72812L7.95691 16.0157L6.90035 18.136C6.81453 18.3083 6.86046 18.517 7.0107 18.6373C7.16093 18.7577 7.3748 18.757 7.52433 18.6358L9.36503 17.1436L16.0117 8.85597" stroke="#0665FF" stroke-miterlimit="10" stroke-linecap="round" stroke-linejoin="round"/>
<path d="M9.3827 17.1384L7.9668 16.0036" stroke="#0665FF" stroke-miterlimit="10" stroke-linecap="round" stroke-linejoin="round"/>
<path d="M16.9435 6.25225C16.5546 5.94078 15.9868 6.00332 15.6751 6.39193L14.6035 7.72813L16.0116 8.85594L17.0832 7.51975C17.3949 7.13117 17.3323 6.56369 16.9435 6.25225Z" stroke="#0665FF" stroke-miterlimit="10" stroke-linecap="round" stroke-linejoin="round"/>
</svg>
