<svg width="44" height="44" viewBox="0 0 44 44" fill="none" xmlns="http://www.w3.org/2000/svg">
<path d="M29.8069 0.709717H2.83913C3.40378 0.709717 3.94531 0.934025 4.34458 1.3333C4.74385 1.73257 4.96816 2.27409 4.96816 2.83875V43.2904H26.2585L31.9359 37.6129V2.83875C31.9359 2.27409 31.7116 1.73257 31.3123 1.3333C30.913 0.934025 30.3715 0.709717 29.8069 0.709717Z" fill="#E6ECFF"/>
<path d="M2.83914 0.709717C2.27448 0.709717 1.73296 0.934025 1.33369 1.3333C0.934414 1.73257 0.710106 2.27409 0.710106 2.83875V19.1613H4.96817V2.83875C4.96817 2.27409 4.74386 1.73257 4.34459 1.3333C3.94532 0.934025 3.40379 0.709717 2.83914 0.709717Z" fill="#D0DBF7"/>
<path d="M43.2907 10.8153C43.2921 11.2114 43.2144 11.6037 43.062 11.9693C42.9097 12.3349 42.6859 12.6664 42.4036 12.9443L40.8353 14.5127L22.0004 33.3546L16.323 34.774H16.3159L17.7424 29.0966L36.5843 10.2617L38.1527 8.69335C38.5737 8.27414 39.1094 7.9888 39.6922 7.87322C40.275 7.75764 40.879 7.81699 41.4281 8.04379C41.9773 8.27058 42.4471 8.65471 42.7786 9.14785C43.11 9.64099 43.2882 10.2211 43.2907 10.8153Z" fill="#4294FF"/>
<path d="M43.2907 10.8153C43.2921 11.2114 43.2144 11.6037 43.062 11.9693C42.9097 12.3349 42.6858 12.6664 42.4036 12.9443L40.8353 14.5127L36.5843 10.2617L38.1527 8.69335C38.5737 8.27414 39.1094 7.9888 39.6922 7.87322C40.275 7.75764 40.879 7.81699 41.4281 8.04379C41.9773 8.27058 42.4471 8.65471 42.7786 9.14785C43.11 9.64099 43.2882 10.2211 43.2907 10.8153Z" fill="#376CFB"/>
<path d="M22.0004 33.3547L16.323 34.7741H16.3159L17.7424 29.0967L22.0004 33.3547Z" fill="#376CFB"/>
<path d="M31.9359 37.613H26.2585V43.2905L31.9359 37.613Z" fill="#D0DBF7"/>
<path d="M31.9355 26.2581C31.7473 26.2581 31.5668 26.3328 31.4337 26.4659C31.3006 26.599 31.2258 26.7795 31.2258 26.9677V36.9032H26.2581C26.0698 36.9032 25.8893 36.978 25.7562 37.1111C25.6232 37.2442 25.5484 37.4247 25.5484 37.6129V42.5806H5.67742V2.83871C5.67289 2.34095 5.54184 1.85253 5.29661 1.41935H29.8064C30.1828 1.41979 30.5435 1.56946 30.8096 1.83555C31.0757 2.10164 31.2254 2.46241 31.2258 2.83871V11.3548C31.2258 11.5431 31.3006 11.7236 31.4337 11.8567C31.5668 11.9897 31.7473 12.0645 31.9355 12.0645C32.1237 12.0645 32.3042 11.9897 32.4373 11.8567C32.5704 11.7236 32.6452 11.5431 32.6452 11.3548V2.83871C32.6444 2.08608 32.345 1.3645 31.8128 0.83231C31.2807 0.30012 30.5591 0.00078902 29.8064 0H2.83871C2.08608 0.00078902 1.3645 0.30012 0.83231 0.83231C0.30012 1.3645 0.00078902 2.08608 0 2.83871V19.1613C0 19.3495 0.0747693 19.53 0.20786 19.6631C0.34095 19.7962 0.521459 19.871 0.709677 19.871H4.25806V43.2903C4.25806 43.4785 4.33283 43.659 4.46592 43.7921C4.59901 43.9252 4.77952 44 4.96774 44H26.2581C26.4462 43.9996 26.6266 43.9249 26.7598 43.7921L32.4372 38.1146C32.5634 37.9771 32.637 37.7994 32.6452 37.6129V26.9677C32.6452 26.7795 32.5704 26.599 32.4373 26.4659C32.3042 26.3328 32.1237 26.2581 31.9355 26.2581ZM1.41935 18.4516V2.83871C1.41935 2.46227 1.56889 2.10125 1.83507 1.83507C2.10125 1.56889 2.46227 1.41935 2.83871 1.41935C3.21515 1.41935 3.57616 1.56889 3.84234 1.83507C4.10853 2.10125 4.25806 2.46227 4.25806 2.83871V18.4516H1.41935ZM26.9677 41.5771V38.3226H30.2222L26.9677 41.5771Z" fill="#232328"/>
<path d="M27.6774 4.25806H9.22581C9.03759 4.25806 8.85708 4.33283 8.72399 4.46592C8.5909 4.59901 8.51613 4.77952 8.51613 4.96773C8.51613 5.15595 8.5909 5.33646 8.72399 5.46955C8.85708 5.60264 9.03759 5.67741 9.22581 5.67741H27.6774C27.8656 5.67741 28.0461 5.60264 28.1792 5.46955C28.3123 5.33646 28.3871 5.15595 28.3871 4.96773C28.3871 4.77952 28.3123 4.59901 28.1792 4.46592C28.0461 4.33283 27.8656 4.25806 27.6774 4.25806Z" fill="#232328"/>
<path d="M27.6774 8.51611H9.22581C9.03759 8.51611 8.85708 8.59088 8.72399 8.72397C8.5909 8.85706 8.51613 9.03757 8.51613 9.22579C8.51613 9.41401 8.5909 9.59452 8.72399 9.72761C8.85708 9.8607 9.03759 9.93547 9.22581 9.93547H27.6774C27.8656 9.93547 28.0461 9.8607 28.1792 9.72761C28.3123 9.59452 28.3871 9.41401 28.3871 9.22579C28.3871 9.03757 28.3123 8.85706 28.1792 8.72397C28.0461 8.59088 27.8656 8.51611 27.6774 8.51611Z" fill="#232328"/>
<path d="M28.3871 13.4838C28.3871 13.2956 28.3123 13.1151 28.1792 12.982C28.0461 12.8489 27.8656 12.7742 27.6774 12.7742H9.22581C9.03759 12.7742 8.85708 12.8489 8.72399 12.982C8.5909 13.1151 8.51613 13.2956 8.51613 13.4838C8.51613 13.6721 8.5909 13.8526 8.72399 13.9857C8.85708 14.1188 9.03759 14.1935 9.22581 14.1935H27.6774C27.8656 14.1935 28.0461 14.1188 28.1792 13.9857C28.3123 13.8526 28.3871 13.6721 28.3871 13.4838Z" fill="#232328"/>
<path d="M26.2581 17.7419C26.2581 17.5537 26.1833 17.3732 26.0502 17.2401C25.9171 17.107 25.7366 17.0322 25.5484 17.0322H9.22581C9.03759 17.0322 8.85708 17.107 8.72399 17.2401C8.5909 17.3732 8.51613 17.5537 8.51613 17.7419C8.51613 17.9301 8.5909 18.1106 8.72399 18.2437C8.85708 18.3768 9.03759 18.4516 9.22581 18.4516H25.5484C25.7366 18.4516 25.9171 18.3768 26.0502 18.2437C26.1833 18.1106 26.2581 17.9301 26.2581 17.7419Z" fill="#232328"/>
<path d="M22 22C22 21.8117 21.9252 21.6312 21.7921 21.4981C21.659 21.3651 21.4785 21.2903 21.2903 21.2903H9.22581C9.03759 21.2903 8.85708 21.3651 8.72399 21.4981C8.5909 21.6312 8.51613 21.8117 8.51613 22C8.51613 22.1882 8.5909 22.3687 8.72399 22.5018C8.85708 22.6349 9.03759 22.7096 9.22581 22.7096H21.2903C21.4785 22.7096 21.659 22.6349 21.7921 22.5018C21.9252 22.3687 22 22.1882 22 22Z" fill="#232328"/>
<path d="M17.7419 26.258C17.7419 26.0698 17.6672 25.8893 17.5341 25.7562C17.401 25.6231 17.2205 25.5483 17.0323 25.5483H9.22581C9.03759 25.5483 8.85708 25.6231 8.72399 25.7562C8.5909 25.8893 8.51613 26.0698 8.51613 26.258C8.51613 26.4462 8.5909 26.6267 8.72399 26.7598C8.85708 26.8929 9.03759 26.9677 9.22581 26.9677H17.0323C17.2205 26.9677 17.401 26.8929 17.5341 26.7598C17.6672 26.6267 17.7419 26.4462 17.7419 26.258Z" fill="#232328"/>
<path d="M14.1935 29.8064H9.22581C9.03759 29.8064 8.85708 29.8812 8.72399 30.0143C8.5909 30.1473 8.51613 30.3279 8.51613 30.5161C8.51613 30.7043 8.5909 30.8848 8.72399 31.0179C8.85708 31.151 9.03759 31.2258 9.22581 31.2258H14.1935C14.3818 31.2258 14.5623 31.151 14.6954 31.0179C14.8285 30.8848 14.9032 30.7043 14.9032 30.5161C14.9032 30.3279 14.8285 30.1473 14.6954 30.0143C14.5623 29.8812 14.3818 29.8064 14.1935 29.8064Z" fill="#232328"/>
<path d="M9.22581 35.4841H14.1935C14.3818 35.4841 14.5623 35.4093 14.6954 35.2762C14.8285 35.1431 14.9032 34.9626 14.9032 34.7744C14.9032 34.5862 14.8285 34.4056 14.6954 34.2726C14.5623 34.1395 14.3818 34.0647 14.1935 34.0647H9.22581C9.03759 34.0647 8.85708 34.1395 8.72399 34.2726C8.5909 34.4056 8.51613 34.5862 8.51613 34.7744C8.51613 34.9626 8.5909 35.1431 8.72399 35.2762C8.85708 35.4093 9.03759 35.4841 9.22581 35.4841Z" fill="#232328"/>
<path d="M9.22581 39.7419H23.4194C23.6076 39.7419 23.7881 39.6671 23.9212 39.534C24.0543 39.4009 24.129 39.2204 24.129 39.0322C24.129 38.844 24.0543 38.6635 23.9212 38.5304C23.7881 38.3973 23.6076 38.3225 23.4194 38.3225H9.22581C9.03759 38.3225 8.85708 38.3973 8.72399 38.5304C8.5909 38.6635 8.51613 38.844 8.51613 39.0322C8.51613 39.2204 8.5909 39.4009 8.72399 39.534C8.85708 39.6671 9.03759 39.7419 9.22581 39.7419Z" fill="#232328"/>
<path d="M42.9102 8.18617C42.2118 7.48973 41.2657 7.09863 40.2794 7.09863C39.2931 7.09863 38.347 7.48973 37.6486 8.18617L17.2402 28.5949C17.1538 28.6894 17.0899 28.8021 17.0534 28.9248L15.634 34.6022C15.6044 34.7211 15.606 34.8456 15.6388 34.9637C15.6715 35.0818 15.7343 35.1894 15.8209 35.276C15.9076 35.3626 16.0152 35.4253 16.1333 35.458C16.2514 35.4907 16.3759 35.4922 16.4948 35.4625L22.1722 34.0431C22.2943 34.0056 22.4067 33.942 22.5017 33.8567L42.9102 13.4477C43.256 13.1024 43.5303 12.6923 43.7174 12.2409C43.9045 11.7895 44.0009 11.3056 44.0009 10.8169C44.0009 10.3283 43.9045 9.84441 43.7174 9.393C43.5303 8.94159 43.256 8.5315 42.9102 8.18617ZM21.9999 32.351L18.7456 29.0967L36.5482 11.2936L39.8027 14.5483L21.9999 32.351ZM18.1265 30.4846L20.6119 32.97L17.298 33.799L18.1265 30.4846ZM41.9069 12.4442L40.8069 13.5442L37.5517 10.2902L38.6521 9.18979C39.0845 8.76191 39.6687 8.52261 40.277 8.52419C40.8852 8.52578 41.4682 8.76812 41.8983 9.19825C42.3284 9.62838 42.5707 10.2113 42.5723 10.8196C42.5739 11.4279 42.3346 12.012 41.9067 12.4444L41.9069 12.4442Z" fill="#232328"/>
</svg>
