<svg width="70" height="123" viewBox="0 0 70 123" fill="none" xmlns="http://www.w3.org/2000/svg">
<g opacity="0.4">
<path d="M1.90002 3.9C0.800024 3.9 0 3 0 1.9C0 0.900002 0.800024 0 1.90002 0C3.00002 0 3.79999 0.900002 3.79999 1.9C3.79999 3 3.00002 3.9 1.90002 3.9Z" fill="black"/>
<path d="M1.90002 18.5C0.800024 18.5 0 17.6 0 16.5C0 15.5 0.800024 14.6 1.90002 14.6C3.00002 14.6 3.79999 15.5 3.79999 16.5C3.79999 17.6 3.00002 18.5 1.90002 18.5Z" fill="black"/>
<path d="M1.90002 33.1C0.800024 33.1 0 32.2 0 31.1C0 30.1 0.800024 29.2 1.90002 29.2C3.00002 29.2 3.79999 30.1 3.79999 31.1C3.79999 32.2 3.00002 33.1 1.90002 33.1Z" fill="black"/>
<path d="M1.90002 47.7C0.800024 47.7 0 46.8 0 45.7C0 44.7 0.800024 43.8 1.90002 43.8C3.00002 43.8 3.79999 44.7 3.79999 45.7C3.79999 46.8 3.00002 47.7 1.90002 47.7Z" fill="black"/>
<path d="M1.90002 62.3C0.800024 62.3 0 61.4 0 60.3C0 59.3 0.800024 58.4 1.90002 58.4C3.00002 58.4 3.79999 59.3 3.79999 60.3C3.79999 61.4 3.00002 62.3 1.90002 62.3Z" fill="black"/>
<path d="M1.90002 76.9C0.800024 76.9 0 76 0 75C0 73.9 0.800024 73 1.90002 73C3.00002 73 3.79999 73.9 3.79999 75C3.79999 76 3.00002 76.9 1.90002 76.9Z" fill="black"/>
<path d="M1.90002 91.5C0.800024 91.5 0 90.6 0 89.6C0 88.5 0.800024 87.6 1.90002 87.6C3.00002 87.6 3.79999 88.5 3.79999 89.6C3.79999 90.6 3.00002 91.5 1.90002 91.5Z" fill="black"/>
<path d="M1.90002 106.1C0.800024 106.1 0 105.2 0 104.2C0 103.1 0.800024 102.2 1.90002 102.2C3.00002 102.2 3.79999 103.1 3.79999 104.2C3.79999 105.2 3.00002 106.1 1.90002 106.1Z" fill="black"/>
<path d="M1.90002 120.7C0.800024 120.7 0 119.8 0 118.8C0 117.7 0.800024 116.8 1.90002 116.8C3.00002 116.8 3.79999 117.7 3.79999 118.8C3.79999 119.8 3.00002 120.7 1.90002 120.7Z" fill="black"/>
<path d="M23.7998 3.9C22.6998 3.9 21.7998 3 21.7998 1.9C21.7998 0.900002 22.6998 0 23.7998 0C24.7998 0 25.6998 0.900002 25.6998 1.9C25.6998 3 24.7998 3.9 23.7998 3.9Z" fill="black"/>
<path d="M23.7998 18.5C22.6998 18.5 21.7998 17.6 21.7998 16.5C21.7998 15.5 22.6998 14.6 23.7998 14.6C24.7998 14.6 25.6998 15.5 25.6998 16.5C25.6998 17.6 24.7998 18.5 23.7998 18.5Z" fill="black"/>
<path d="M23.7998 33.1C22.6998 33.1 21.7998 32.2 21.7998 31.1C21.7998 30.1 22.6998 29.2 23.7998 29.2C24.7998 29.2 25.6998 30.1 25.6998 31.1C25.6998 32.2 24.7998 33.1 23.7998 33.1Z" fill="black"/>
<path d="M23.7998 47.7C22.6998 47.7 21.7998 46.8 21.7998 45.7C21.7998 44.7 22.6998 43.8 23.7998 43.8C24.7998 43.8 25.6998 44.7 25.6998 45.7C25.6998 46.8 24.7998 47.7 23.7998 47.7Z" fill="black"/>
<path d="M23.7998 62.3C22.6998 62.3 21.7998 61.4 21.7998 60.3C21.7998 59.3 22.6998 58.4 23.7998 58.4C24.7998 58.4 25.6998 59.3 25.6998 60.3C25.6998 61.4 24.7998 62.3 23.7998 62.3Z" fill="black"/>
<path d="M23.7998 76.9C22.6998 76.9 21.7998 76 21.7998 75C21.7998 73.9 22.6998 73 23.7998 73C24.7998 73 25.6998 73.9 25.6998 75C25.6998 76 24.7998 76.9 23.7998 76.9Z" fill="black"/>
<path d="M23.7998 91.5C22.6998 91.5 21.7998 90.6 21.7998 89.6C21.7998 88.5 22.6998 87.6 23.7998 87.6C24.7998 87.6 25.6998 88.5 25.6998 89.6C25.6998 90.6 24.7998 91.5 23.7998 91.5Z" fill="black"/>
<path d="M23.7998 106.1C22.6998 106.1 21.7998 105.2 21.7998 104.2C21.7998 103.1 22.6998 102.2 23.7998 102.2C24.7998 102.2 25.6998 103.1 25.6998 104.2C25.6998 105.2 24.7998 106.1 23.7998 106.1Z" fill="black"/>
<path d="M23.7998 120.7C22.6998 120.7 21.7998 119.8 21.7998 118.8C21.7998 117.7 22.6998 116.8 23.7998 116.8C24.7998 116.8 25.6998 117.7 25.6998 118.8C25.6998 119.8 24.7998 120.7 23.7998 120.7Z" fill="black"/>
<path d="M45.6002 3.9C44.6002 3.9 43.7002 3 43.7002 1.9C43.7002 0.900002 44.6002 0 45.6002 0C46.7002 0 47.6002 0.900002 47.6002 1.9C47.6002 3 46.7002 3.9 45.6002 3.9Z" fill="black"/>
<path d="M45.6002 18.5C44.6002 18.5 43.7002 17.6 43.7002 16.5C43.7002 15.5 44.6002 14.6 45.6002 14.6C46.7002 14.6 47.6002 15.5 47.6002 16.5C47.6002 17.6 46.7002 18.5 45.6002 18.5Z" fill="black"/>
<path d="M45.6002 33.1C44.6002 33.1 43.7002 32.2 43.7002 31.1C43.7002 30.1 44.6002 29.2 45.6002 29.2C46.7002 29.2 47.6002 30.1 47.6002 31.1C47.6002 32.2 46.7002 33.1 45.6002 33.1Z" fill="black"/>
<path d="M45.6002 47.7C44.6002 47.7 43.7002 46.8 43.7002 45.7C43.7002 44.7 44.6002 43.8 45.6002 43.8C46.7002 43.8 47.6002 44.7 47.6002 45.7C47.6002 46.8 46.7002 47.7 45.6002 47.7Z" fill="black"/>
<path d="M45.6002 62.3C44.6002 62.3 43.7002 61.4 43.7002 60.3C43.7002 59.3 44.6002 58.4 45.6002 58.4C46.7002 58.4 47.6002 59.3 47.6002 60.3C47.6002 61.4 46.7002 62.3 45.6002 62.3Z" fill="black"/>
<path d="M45.6002 76.9C44.6002 76.9 43.7002 76 43.7002 75C43.7002 73.9 44.6002 73 45.6002 73C46.7002 73 47.6002 73.9 47.6002 75C47.6002 76 46.7002 76.9 45.6002 76.9Z" fill="black"/>
<path d="M45.6002 91.5C44.6002 91.5 43.7002 90.6 43.7002 89.6C43.7002 88.5 44.6002 87.6 45.6002 87.6C46.7002 87.6 47.6002 88.5 47.6002 89.6C47.6002 90.6 46.7002 91.5 45.6002 91.5Z" fill="black"/>
<path d="M45.6002 106.1C44.6002 106.1 43.7002 105.2 43.7002 104.2C43.7002 103.1 44.6002 102.2 45.6002 102.2C46.7002 102.2 47.6002 103.1 47.6002 104.2C47.6002 105.2 46.7002 106.1 45.6002 106.1Z" fill="black"/>
<path d="M45.6002 120.7C44.6002 120.7 43.7002 119.8 43.7002 118.8C43.7002 117.7 44.6002 116.8 45.6002 116.8C46.7002 116.8 47.6002 117.7 47.6002 118.8C47.6002 119.8 46.7002 120.7 45.6002 120.7Z" fill="black"/>
<path d="M67.4996 3.9C66.3996 3.9 65.5996 3 65.5996 1.9C65.5996 0.900002 66.3996 0 67.4996 0C68.5996 0 69.3996 0.900002 69.3996 1.9C69.3996 3 68.5996 3.9 67.4996 3.9Z" fill="black"/>
<path d="M67.4996 18.5C66.3996 18.5 65.5996 17.6 65.5996 16.5C65.5996 15.5 66.3996 14.6 67.4996 14.6C68.5996 14.6 69.3996 15.5 69.3996 16.5C69.3996 17.6 68.5996 18.5 67.4996 18.5Z" fill="black"/>
<path d="M67.4996 33.1C66.3996 33.1 65.5996 32.2 65.5996 31.1C65.5996 30.1 66.3996 29.2 67.4996 29.2C68.5996 29.2 69.3996 30.1 69.3996 31.1C69.3996 32.2 68.5996 33.1 67.4996 33.1Z" fill="black"/>
<path d="M67.4996 47.7C66.3996 47.7 65.5996 46.8 65.5996 45.7C65.5996 44.7 66.3996 43.8 67.4996 43.8C68.5996 43.8 69.3996 44.7 69.3996 45.7C69.3996 46.8 68.5996 47.7 67.4996 47.7Z" fill="black"/>
<path d="M67.4996 62.3C66.3996 62.3 65.5996 61.4 65.5996 60.3C65.5996 59.3 66.3996 58.4 67.4996 58.4C68.5996 58.4 69.3996 59.3 69.3996 60.3C69.3996 61.4 68.5996 62.3 67.4996 62.3Z" fill="black"/>
<path d="M67.4996 76.9C66.3996 76.9 65.5996 76 65.5996 75C65.5996 73.9 66.3996 73 67.4996 73C68.5996 73 69.3996 73.9 69.3996 75C69.3996 76 68.5996 76.9 67.4996 76.9Z" fill="black"/>
<path d="M67.4996 91.5C66.3996 91.5 65.5996 90.6 65.5996 89.6C65.5996 88.5 66.3996 87.6 67.4996 87.6C68.5996 87.6 69.3996 88.5 69.3996 89.6C69.3996 90.6 68.5996 91.5 67.4996 91.5Z" fill="black"/>
<path d="M67.4996 106.1C66.3996 106.1 65.5996 105.2 65.5996 104.2C65.5996 103.1 66.3996 102.2 67.4996 102.2C68.5996 102.2 69.3996 103.1 69.3996 104.2C69.3996 105.2 68.5996 106.1 67.4996 106.1Z" fill="black"/>
<path d="M67.4996 120.7C66.3996 120.7 65.5996 119.8 65.5996 118.8C65.5996 117.7 66.3996 116.8 67.4996 116.8C68.5996 116.8 69.3996 117.7 69.3996 118.8C69.3996 119.8 68.5996 120.7 67.4996 120.7Z" fill="black"/>
</g>
</svg>
