<svg width="20" height="20" viewBox="0 0 20 20" fill="none" xmlns="http://www.w3.org/2000/svg">
<mask id="mask0_682_583" style="mask-type:luminance" maskUnits="userSpaceOnUse" x="0" y="0" width="20" height="20">
<path d="M0 0.0130787H20V20H0V0.0130787Z" fill="white"/>
</mask>
<g mask="url(#mask0_682_583)">
<path d="M13.4453 5.93862H17.2027C17.7216 5.93862 18.1421 6.35893 18.1421 6.87738V17.8298" stroke="#0665FF" stroke-miterlimit="10" stroke-linecap="round" stroke-linejoin="round"/>
<path d="M1.85938 17.8298V6.87738C1.85938 6.35893 2.27996 5.93862 2.79875 5.93862H6.55633" stroke="#0665FF" stroke-miterlimit="10" stroke-linecap="round" stroke-linejoin="round"/>
<path d="M5.61629 17.829H19.707V18.4552C19.707 18.8011 19.4266 19.0815 19.0807 19.0815H0.919218C0.57332 19.0815 0.292969 18.8011 0.292969 18.4552V17.829H4.36352" stroke="#0665FF" stroke-miterlimit="10" stroke-linecap="round" stroke-linejoin="round"/>
<path d="M11.0121 10.3196C11.7547 9.16077 12.1924 7.76243 12.1924 6.25154C12.1924 4.14499 11.345 2.25458 10.0005 0.931817C8.65609 2.25458 7.80859 4.14499 7.80859 6.25154C7.80859 7.76243 8.24629 9.16077 8.98887 10.3196H11.0121Z" stroke="#0665FF" stroke-miterlimit="10" stroke-linecap="round" stroke-linejoin="round"/>
<path d="M11.2531 11.5713H8.74805L9.06117 10.3188H10.94L11.2531 11.5713Z" stroke="#0665FF" stroke-miterlimit="10" stroke-linecap="round" stroke-linejoin="round"/>
<path d="M7.80785 7.81618L6.45992 9.43262C6.31926 9.60134 6.24219 9.81397 6.24219 10.0336V10.9454L8.47262 9.68773" stroke="#0665FF" stroke-miterlimit="10" stroke-linecap="round" stroke-linejoin="round"/>
<path d="M12.1921 7.81618L13.54 9.43262C13.6807 9.60134 13.7578 9.81397 13.7578 10.0336V10.9454L11.5273 9.68773" stroke="#0665FF" stroke-miterlimit="10" stroke-linecap="round" stroke-linejoin="round"/>
<path d="M8.43359 3.43523H11.5649" stroke="#0665FF" stroke-miterlimit="10" stroke-linecap="round" stroke-linejoin="round"/>
<path d="M16.4833 17.8298C16.5425 17.6314 16.5753 17.4216 16.5753 17.2039C16.5753 15.9942 15.5939 15.0135 14.3834 15.0135C14.1321 15.0135 13.8916 15.0578 13.6668 15.1356C13.4562 14.5201 12.8787 14.0747 12.1914 14.0747C11.8082 14.0747 11.4617 14.2177 11.1896 14.4462C11.2265 14.3281 11.2521 14.205 11.2521 14.0747C11.2521 13.3834 10.6913 12.823 9.99957 12.823C9.30781 12.823 8.74703 13.3834 8.74703 14.0747C8.74703 14.205 8.77258 14.3281 8.80953 14.4462C8.53738 14.2177 8.1909 14.0747 7.80766 14.0747C7.12035 14.0747 6.54293 14.5201 6.3323 15.1356C6.10746 15.0578 5.86703 15.0135 5.61574 15.0135C4.4052 15.0135 3.42383 15.9942 3.42383 17.2039C3.42383 17.4216 3.45668 17.6314 3.51578 17.8298" stroke="#0665FF" stroke-miterlimit="10" stroke-linecap="round" stroke-linejoin="round"/>
<path d="M10.9393 5.93862C10.9393 6.45707 10.5188 6.87738 9.99996 6.87738C9.48113 6.87738 9.06055 6.45707 9.06055 5.93862C9.06055 5.42017 9.48113 4.99986 9.99996 4.99986C10.5188 4.99986 10.9393 5.42017 10.9393 5.93862Z" stroke="#0665FF" stroke-miterlimit="10" stroke-linecap="round" stroke-linejoin="round"/>
</g>
</svg>
