<?xml version="1.0" encoding="utf-8"?>
<!-- Generator: Adobe Illustrator 23.1.0, SVG Export Plug-In . SVG Version: 6.00 Build 0)  -->
<svg version="1.1" id="Layer_1" xmlns="http://www.w3.org/2000/svg" xmlns:xlink="http://www.w3.org/1999/xlink" x="0px" y="0px"
	 viewBox="0 0 67 73" style="enable-background:new 0 0 67 73;" xml:space="preserve">
<style type="text/css">
	.st0{fill:none;stroke:#FFFFFF;}
	.st1{fill:#FFFFFF;stroke:#0C323C;stroke-width:5;}
	.st2{fill:none;stroke:#667A7E;stroke-width:4;}
	.st3{fill:#0C323C;}
	.st4{fill:none;stroke:#667A7E;stroke-linecap:square;}
	.st5{fill:#FFFFFF;}
	.st6{fill:#FF1515;}
	.st7{fill-rule:evenodd;clip-rule:evenodd;fill:#0F0B0B;}
	.st8{fill-rule:evenodd;clip-rule:evenodd;fill:#FFFFFF;}
</style>
<path class="st0" d="M33.2,0.6l33.2,17.5v35.7L33.2,72L0.6,53.8V18.2L33.2,0.6z"/>
<path class="st1" d="M33.6,6L5.6,21v30.4L33.6,67l28.5-15.6V21L33.6,6L33.6,6z"/>
<path class="st2" d="M33.6,5.4L5.1,20.7v31l28.4,15.9l29-15.9v-31L33.6,5.4z"/>
<path class="st3" d="M3.1,26.3H7v20H3.1V26.3z"/>
<path class="st3" d="M6.3,28.2h55.1v16.3H6.3V28.2z"/>
<path class="st4" d="M11.3,26.3h45.1 M11.3,46.3h45.1"/>
<path class="st3" d="M60.6,26.3h3.9v20h-3.9L60.6,26.3z"/>
<g>
	<path class="st5" d="M26.5,31.9h1.5V41h-1.5V31.9z M33,38.1c0,1.4-1.2,1.5-1.5,1.5c-0.9,0-1-0.8-1-1.3v-3.5H29v3.5
		c0,0.9,0.3,1.6,0.7,2c0.4,0.4,1,0.6,1.7,0.6c0.5,0,1.2-0.2,1.5-0.5V41h1.5v-6.2H33V38.1z M37.3,32.7h-1.5v2.2h-1.1v1.5h1.1V41h1.5
		v-4.7h1.1v-1.5h-1.1V32.7z M43,39.2c-0.3,0.3-0.8,0.4-1.2,0.4c-1,0-1.8-0.7-1.8-1.8c0-1,0.7-1.7,1.8-1.7c0.5,0,0.9,0.2,1.2,0.4
		l0.2,0.2l1-1L44,35.5c-0.6-0.5-1.4-0.8-2.2-0.8c-1.8,0-3.1,1.3-3.1,3.1c0,1.8,1.3,3.1,3.1,3.1c0.8,0,1.6-0.3,2.2-0.8l0.2-0.2l-1-1
		C43.2,39,43,39.2,43,39.2z M49.4,35.4c-0.4-0.4-0.9-0.6-1.6-0.6c-0.5,0-1,0.2-1.4,0.5v-3.3H45V41h1.5v-3.4c0-1.4,1-1.5,1.3-1.5
		c0.9,0,0.8,0.8,0.8,1.3V41H50v-3.6C50,36.6,49.9,35.8,49.4,35.4"/>
	<path class="st6" d="M41.8,36.8c0.6,0,1.1,0.4,1.1,1s-0.4,1.1-1,1.1c0,0,0,0-0.1,0c-0.6,0-1-0.5-1-1.1
		C40.8,37.3,41.2,36.8,41.8,36.8"/>
	<path class="st5" d="M24.4,38.7c-0.5,0.6-1.3,0.9-2.1,0.9c-1.6,0-2.8-1.3-2.8-3c0-1.8,1.2-3,2.8-3c0.8,0,1.5,0.3,2.1,0.9l0.2,0.2
		l1-1l-0.2-0.2c-0.8-0.8-1.9-1.3-3.1-1.3c-2.4,0-4.2,1.9-4.2,4.4c0,2.5,1.8,4.4,4.2,4.4c1.2,0,2.3-0.5,3.1-1.3l0.2-0.2l-1-1
		L24.4,38.7L24.4,38.7z"/>
</g>
<path class="st7" d="M31.4,16.3h-0.4V14h-0.8v-0.4h2V14h-0.8V16.3z M35.1,14.9c0,0.4-0.1,0.8-0.3,1c-0.2,0.2-0.5,0.4-0.9,0.4
	c-0.4,0-0.7-0.1-0.9-0.4c-0.2-0.2-0.3-0.6-0.3-1s0.1-0.8,0.3-1c0.2-0.2,0.5-0.4,0.9-0.4c0.4,0,0.7,0.1,0.9,0.4
	C35,14.2,35.1,14.5,35.1,14.9z M33.1,14.9c0,0.3,0.1,0.6,0.2,0.8c0.1,0.2,0.3,0.3,0.6,0.3c0.3,0,0.5-0.1,0.6-0.3
	c0.1-0.2,0.2-0.4,0.2-0.8c0-0.3-0.1-0.6-0.2-0.7c-0.1-0.2-0.3-0.3-0.6-0.3c-0.3,0-0.5,0.1-0.6,0.3C33.1,14.4,33.1,14.6,33.1,14.9z
	 M37.7,14.4c0,0.3-0.1,0.5-0.3,0.6c-0.2,0.1-0.4,0.2-0.8,0.2h-0.3v1H36v-2.7h0.8c0.3,0,0.6,0.1,0.8,0.2S37.7,14.1,37.7,14.4
	L37.7,14.4z M36.4,14.9h0.2c0.2,0,0.4,0,0.5-0.1c0.1-0.1,0.2-0.2,0.2-0.4c0-0.2,0-0.3-0.1-0.3C37,14,36.9,14,36.7,14h-0.3L36.4,14.9
	L36.4,14.9z M18.2,20.4c0,0.2-0.1,0.4-0.1,0.6l-0.4,1.6h-0.5l-0.3-1.3l-0.4-1.3h0.4l0.4,1.6c0.1,0.2,0.1,0.5,0.1,0.7
	c0-0.2,0.1-0.4,0.1-0.7l0.4-1.6h0.4l0.4,1.6c0,0.1,0.1,0.4,0.1,0.7c0-0.2,0.1-0.4,0.1-0.7l0.4-1.6h0.4l-0.7,2.7h-0.5l-0.5-1.6
	C18.2,20.8,18.2,20.6,18.2,20.4C18.2,20.4,18.2,20.4,18.2,20.4z M22.1,22.5h-1.5v-2.7h1.5v0.4H21V21h1v0.4h-1v0.8h1.1
	C22.1,22.2,22.1,22.5,22.1,22.5z M22.9,19.9h0.8c0.4,0,0.6,0.1,0.8,0.2c0.2,0.1,0.2,0.3,0.2,0.5c0,0.2,0,0.3-0.1,0.4
	c-0.1,0.1-0.2,0.2-0.3,0.2v0c0.2,0,0.3,0.1,0.4,0.2c0.1,0.1,0.1,0.3,0.1,0.4c0,0.2-0.1,0.4-0.3,0.6c-0.2,0.1-0.4,0.2-0.7,0.2h-1
	C22.9,22.5,22.9,19.9,22.9,19.9z M23.3,21h0.4c0.2,0,0.3,0,0.4-0.1c0.1-0.1,0.1-0.2,0.1-0.3c0-0.1,0-0.2-0.1-0.3
	c-0.1-0.1-0.2-0.1-0.4-0.1h-0.4C23.3,20.2,23.3,21,23.3,21z M23.3,21.3v0.9h0.5c0.2,0,0.3,0,0.4-0.1c0.1-0.1,0.1-0.2,0.1-0.3
	c0-0.1,0-0.2-0.1-0.3c-0.1-0.1-0.2-0.1-0.4-0.1H23.3z M29,21.2c0,0.4-0.1,0.8-0.4,1c-0.2,0.2-0.6,0.4-1.1,0.4h-0.8v-2.7h0.8
	c0.4,0,0.8,0.1,1,0.3S29,20.8,29,21.2z M28.6,21.2c0-0.6-0.3-1-0.9-1h-0.4v1.9h0.3C28.3,22.2,28.6,21.8,28.6,21.2z M31.4,22.5h-1.5
	v-2.7h1.5v0.4h-1.1V21h1v0.4h-1v0.8h1.1C31.4,22.2,31.4,22.5,31.4,22.5z M33.7,19.9h0.5l-0.9,2.7h-0.5l-0.9-2.7h0.5l0.6,1.7
	c0,0.1,0.1,0.2,0.1,0.3s0.1,0.2,0.1,0.3c0-0.1,0-0.2,0.1-0.3s0.1-0.2,0.1-0.3C33.2,21.5,33.8,19.9,33.7,19.9z M36.3,22.5h-1.5v-2.7
	h1.5v0.4h-1.1V21h1v0.4h-1v0.8h1.1L36.3,22.5L36.3,22.5z M37.2,22.5v-2.7h0.4v2.3h1.1v0.4C38.7,22.5,37.2,22.5,37.2,22.5z
	 M41.7,21.2c0,0.4-0.1,0.8-0.3,1c-0.2,0.2-0.5,0.4-0.9,0.4c-0.4,0-0.7-0.1-0.9-0.4c-0.2-0.2-0.3-0.6-0.3-1c0-0.4,0.1-0.8,0.3-1
	c0.2-0.2,0.5-0.4,0.9-0.4c0.4,0,0.7,0.1,0.9,0.4C41.6,20.4,41.7,20.8,41.7,21.2z M39.7,21.2c0,0.3,0.1,0.6,0.2,0.8
	c0.1,0.2,0.3,0.3,0.6,0.3c0.3,0,0.5-0.1,0.6-0.3c0.1-0.2,0.2-0.4,0.2-0.8c0-0.3-0.1-0.6-0.2-0.7c-0.1-0.2-0.3-0.3-0.6-0.3
	c-0.3,0-0.5,0.1-0.6,0.3C39.8,20.6,39.7,20.9,39.7,21.2z M44.4,20.7c0,0.3-0.1,0.5-0.3,0.6c-0.2,0.1-0.4,0.2-0.8,0.2H43v1h-0.4v-2.7
	h0.8c0.3,0,0.6,0.1,0.8,0.2C44.3,20.2,44.4,20.4,44.4,20.7L44.4,20.7z M43,21.2h0.2c0.2,0,0.4,0,0.5-0.1s0.2-0.2,0.2-0.4
	c0-0.2,0-0.3-0.1-0.3c-0.1-0.1-0.2-0.1-0.4-0.1H43C43,20.2,43,21.2,43,21.2z M46.7,22.5h-1.5v-2.7h1.5v0.4h-1.1V21h1v0.4h-1v0.8h1.1
	L46.7,22.5L46.7,22.5z M47.9,21.1h0.3c0.2,0,0.4,0,0.4-0.1c0.1-0.1,0.1-0.2,0.1-0.3c0-0.2,0-0.3-0.1-0.3c-0.1-0.1-0.2-0.1-0.4-0.1
	h-0.3L47.9,21.1L47.9,21.1z M47.9,21.5v1.1h-0.4v-2.7h0.8c0.3,0,0.6,0.1,0.8,0.2s0.2,0.3,0.2,0.6c0,0.3-0.2,0.6-0.5,0.7l0.8,1.2H49
	l-0.6-1.1L47.9,21.5L47.9,21.5z M51.7,21.8c0,0.2-0.1,0.4-0.3,0.6c-0.2,0.1-0.4,0.2-0.7,0.2c-0.3,0-0.6,0-0.7-0.1V22
	c0.1,0.1,0.3,0.1,0.4,0.1c0.1,0,0.3,0,0.4,0c0.2,0,0.3,0,0.4-0.1c0.1-0.1,0.1-0.2,0.1-0.3c0-0.1,0-0.2-0.1-0.3
	c-0.1-0.1-0.2-0.2-0.5-0.2c-0.2-0.1-0.4-0.2-0.5-0.3C50,20.9,50,20.7,50,20.5c0-0.2,0.1-0.4,0.2-0.5s0.4-0.2,0.6-0.2
	c0.3,0,0.5,0.1,0.8,0.2l-0.1,0.4c-0.2-0.1-0.5-0.1-0.6-0.1c-0.1,0-0.2,0-0.3,0.1c-0.1,0.1-0.1,0.2-0.1,0.2c0,0.1,0,0.1,0,0.2
	c0,0.1,0.1,0.1,0.1,0.1c0.1,0,0.2,0.1,0.4,0.2c0.2,0.1,0.3,0.2,0.4,0.2c0.1,0.1,0.2,0.2,0.2,0.2C51.7,21.6,51.7,21.7,51.7,21.8
	L51.7,21.8z M31,55.7h-1.8v-0.3l0.7-0.7c0.2-0.2,0.3-0.4,0.4-0.4c0.1-0.1,0.1-0.2,0.1-0.2c0-0.1,0-0.2,0-0.2c0-0.1,0-0.2-0.1-0.3
	c-0.1-0.1-0.2-0.1-0.3-0.1c-0.1,0-0.2,0-0.3,0.1c-0.1,0.1-0.2,0.1-0.3,0.2l-0.2-0.3c0.1-0.1,0.3-0.2,0.4-0.3
	c0.1-0.1,0.3-0.1,0.5-0.1c0.2,0,0.4,0.1,0.6,0.2c0.2,0.1,0.2,0.3,0.2,0.5c0,0.1,0,0.2-0.1,0.3c0,0.1-0.1,0.2-0.2,0.3
	c-0.1,0.2-0.3,0.3-0.4,0.5l-0.5,0.5v0H31L31,55.7L31,55.7z M33.4,54.4c0,0.5-0.1,0.8-0.2,1c-0.2,0.2-0.4,0.3-0.7,0.3
	c-0.3,0-0.5-0.1-0.7-0.3c-0.2-0.2-0.2-0.6-0.2-1c0-0.5,0.1-0.8,0.2-1c0.1-0.2,0.4-0.3,0.7-0.3c0.3,0,0.5,0.1,0.7,0.4
	S33.4,53.9,33.4,54.4z M32,54.4c0,0.4,0,0.6,0.1,0.8c0.1,0.2,0.2,0.2,0.4,0.2c0.2,0,0.3-0.1,0.4-0.2c0.1-0.2,0.1-0.4,0.1-0.8
	s0-0.6-0.1-0.8c-0.1-0.2-0.2-0.2-0.4-0.2c-0.2,0-0.3,0.1-0.4,0.2S32,54,32,54.4z M35.2,55.7h-0.4V54c0-0.2,0-0.4,0-0.5
	c0,0-0.1,0.1-0.1,0.1c0,0-0.2,0.1-0.4,0.3l-0.2-0.3l0.8-0.6h0.4C35.2,53,35.2,55.7,35.2,55.7z M37.3,53c0.3,0,0.5,0.1,0.6,0.2
	c0.1,0.1,0.2,0.3,0.2,0.5c0,0.3-0.2,0.5-0.5,0.7c0.2,0.1,0.4,0.2,0.4,0.3c0.1,0.1,0.1,0.2,0.1,0.4c0,0.2-0.1,0.4-0.2,0.5
	c-0.2,0.1-0.4,0.2-0.7,0.2c-0.3,0-0.5-0.1-0.7-0.2c-0.2-0.1-0.2-0.3-0.2-0.5c0-0.2,0-0.3,0.1-0.4c0.1-0.1,0.2-0.2,0.4-0.3
	c-0.1-0.1-0.3-0.2-0.3-0.3c-0.1-0.1-0.1-0.2-0.1-0.4c0-0.2,0.1-0.3,0.2-0.5C36.8,53.1,37,53,37.3,53z M36.8,55c0,0.1,0,0.2,0.1,0.3
	c0.1,0.1,0.2,0.1,0.4,0.1c0.2,0,0.3,0,0.4-0.1c0.1-0.1,0.1-0.2,0.1-0.3c0-0.1,0-0.2-0.1-0.3c-0.1-0.1-0.2-0.2-0.4-0.2l-0.1,0
	c-0.1,0.1-0.3,0.1-0.3,0.2C36.8,54.8,36.8,54.9,36.8,55z M37.3,53.3c-0.1,0-0.2,0-0.3,0.1c-0.1,0.1-0.1,0.2-0.1,0.2
	c0,0.1,0,0.1,0,0.2c0,0,0.1,0.1,0.1,0.1c0.1,0,0.1,0.1,0.3,0.1c0.1,0,0.2-0.1,0.3-0.2c0.1-0.1,0.1-0.2,0.1-0.2c0-0.1,0-0.2-0.1-0.2
	C37.5,53.4,37.4,53.3,37.3,53.3L37.3,53.3z"/>
<rect x="16" y="19.5" class="st8" width="9.3" height="3.6"/>
<g>
	<path d="M19.8,22.6l-0.3-0.8h-1.2L18,22.6h-0.4l1.1-2.7h0.4l1.1,2.7H19.8z M18.9,20.2l-0.5,1.2h0.9L18.9,20.2z"/>
	<path d="M21.6,21.5H21v1.1h-0.4v-2.7h1c0.2,0,0.5,0.1,0.6,0.2c0.2,0.2,0.2,0.3,0.2,0.6c0,0.2-0.1,0.4-0.2,0.6
		C22.1,21.4,21.9,21.5,21.6,21.5z M21,21.1h0.5c0.2,0,0.3,0,0.4-0.1c0.1-0.1,0.1-0.2,0.1-0.3c0-0.1,0-0.3-0.1-0.3
		c-0.1-0.1-0.2-0.1-0.4-0.1H21V21.1z"/>
	<path d="M23.9,21.5h-0.6v1.1h-0.4v-2.7h1c0.2,0,0.5,0.1,0.6,0.2c0.2,0.2,0.2,0.3,0.2,0.6c0,0.2-0.1,0.4-0.2,0.6
		C24.4,21.4,24.2,21.5,23.9,21.5z M23.3,21.1h0.5c0.2,0,0.3,0,0.4-0.1c0.1-0.1,0.1-0.2,0.1-0.3c0-0.1,0-0.3-0.1-0.3
		c-0.1-0.1-0.2-0.1-0.4-0.1h-0.5V21.1z"/>
</g>
</svg>
