<?xml version="1.0" encoding="UTF-8"?>
<svg width="120px" height="33px" viewBox="0 0 120 33" version="1.1" xmlns="http://www.w3.org/2000/svg" xmlns:xlink="http://www.w3.org/1999/xlink">
    <!-- Generator: Sketch 61.2 (89653) - https://sketch.com -->
    <title>Technology-Deloitte-Icon-Colorful</title>
    <desc>Created with Sketch.</desc>
    <g id="Homepage" stroke="none" stroke-width="1" fill="none" fill-rule="evenodd">
        <g id="Homepage12" transform="translate(-192.000000, -1317.000000)">
            <g id="clients" transform="translate(77.000000, 751.000000)">
                <g id="Group-10" transform="translate(0.000000, 182.000000)">
                    <g id="Group-19">
                        <g id="Group-21">
                            <g id="Group-3" transform="translate(0.000000, 361.000000)">
                                <g id="Technology-Deloitte-Icon-Colorful" transform="translate(115.000000, 23.000000)">
                                    <path d="M8.74535104,13.3741176 C10.9290323,13.3741176 12.6674763,13.9893738 13.9596205,15.2198861 C15.2528273,16.4493359 15.8988994,18.134649 15.8988994,20.2747628 C15.8988994,22.8080455 15.1210626,24.756888 13.5664516,26.1212903 C12.010778,27.4867552 9.78565465,28.1689564 6.89214421,28.1689564 C4.37905123,28.1689564 2.34944972,27.7609108 0.804402277,26.9437571 L0.804402277,22.8027324 C1.61836812,23.2373435 2.56622391,23.5911954 3.64796964,23.865351 C4.72865275,24.1395066 5.7540797,24.2765844 6.72212524,24.2765844 C9.63688805,24.2765844 11.0937381,23.076888 11.0937381,20.6785579 C11.0937381,18.3939279 9.58481973,17.2505503 6.56698292,17.2505503 C6.02185958,17.2505503 5.41935484,17.3058065 4.76053131,17.4141935 C4.10170778,17.5225806 3.56508539,17.6384061 3.15278937,17.7627324 L1.25282732,16.7394307 L2.1029222,5.18557875 L14.3549146,5.18557875 L14.3549146,9.24903226 L6.28963947,9.24903226 L5.87203036,13.6992789 L6.41396584,13.5908918 C7.04091082,13.4463757 7.81874763,13.3741176 8.74535104,13.3741176 Z M34.2535104,16.5226565 C34.2535104,20.4819734 33.6063757,23.4126755 32.3142315,25.3158254 C31.0210247,27.2179127 29.03074,28.1689564 26.342315,28.1689564 C23.7367742,28.1689564 21.773055,27.1870968 20.4490323,25.222315 C19.1250095,23.2575332 18.4640607,20.3576471 18.4640607,16.5226565 C18.4640607,12.5208349 19.106945,9.57206831 20.3948387,7.6742315 C21.6827324,5.77745731 23.6645161,4.8285389 26.3433776,4.8285389 C28.9489184,4.8285389 30.9190133,5.82102467 32.251537,7.8059962 C33.586186,9.79203036 34.2535104,12.6972296 34.2535104,16.5226565 L34.2535104,16.5226565 Z M23.2065275,16.5226565 C23.2065275,19.3035294 23.4456167,21.2959393 23.9248577,22.5009488 C24.4030361,23.7048956 25.2106262,24.3074004 26.3433776,24.3074004 C27.4548767,24.3074004 28.2582163,23.6974573 28.7533966,22.4775712 C29.2475142,21.257685 29.4951044,19.2727135 29.4951044,16.5226565 C29.4951044,13.7407211 29.2443264,11.7429981 28.7448956,10.528425 C28.2454649,9.31385199 27.4453131,8.70603416 26.3433776,8.70603416 C25.2201898,8.70603416 24.4168501,9.31385199 23.932296,10.528425 C23.4488046,11.7429981 23.2065275,13.7407211 23.2065275,16.5215939 L23.2065275,16.5226565 Z" id="Shape" fill="#6DC314" fill-rule="nonzero"></path>
                                    <g id="Group" transform="translate(43.922201, 0.000000)" fill-rule="nonzero">
                                        <path d="M71.4770398,11.7663757 C71.4770398,10.7090702 72.3664516,9.851537 73.4620114,9.851537 C74.5565085,9.851537 75.4459203,10.7090702 75.4459203,11.7663757 C75.4459203,12.8247438 74.5575712,13.682277 73.4620114,13.682277 C72.3664516,13.682277 71.4770398,12.8247438 71.4770398,11.7663757" id="Path" fill="#86BC24"></path>
                                        <path d="M8.19172676,6.41396584 C8.19172676,5.21108159 7.94944972,4.31848197 7.46489564,3.73616698 C6.98034156,3.15597723 6.24500949,2.86481973 5.25783681,2.86481973 L4.20690702,2.86481973 L4.20690702,10.2234535 L5.0113093,10.2234535 C6.10793169,10.2234535 6.91127135,9.91104364 7.42345351,9.28409867 C7.93457306,8.65927894 8.19172676,7.70185958 8.19172676,6.41502846 M11.9385199,6.28857685 C11.9385199,8.48075901 11.3243264,10.1703226 10.0970019,11.3551423 C8.86967742,12.5420873 7.1429222,13.1350285 4.91886148,13.1350285 L0.597191651,13.1350285 L0.597191651,0 L5.22064516,0 C7.36607211,0 9.02163188,0.538747628 10.1883871,1.6173055 C11.3551423,2.69586338 11.9385199,4.25259962 11.9385199,6.28857685 M23.8451613,13.1339658 L27.247666,13.1339658 L27.247666,0 L23.8462239,0 L23.8451613,13.1339658 Z M31.9656926,8.46163188 C31.9656926,9.32235294 32.0825806,9.98117647 32.3163567,10.4327894 C32.5522581,10.8854649 32.9454269,11.11074 33.4990512,11.11074 C34.0462998,11.11074 34.4341556,10.8854649 34.6594307,10.4327894 C34.8847059,9.98117647 34.9973435,9.32341556 34.9973435,8.46163188 C34.9973435,7.60409867 34.8836433,6.95696395 34.6541176,6.5202277 C34.4256546,6.08242884 34.034611,5.86352941 33.4809867,5.86352941 C32.9390512,5.86352941 32.5522581,6.08136622 32.3174194,6.51491461 C32.0836433,6.94952562 31.9656926,7.59878558 31.9656926,8.46163188 M38.5889943,8.46163188 C38.5889943,10.1033776 38.1395066,11.3848956 37.2394687,12.3029981 C36.3404934,13.2221632 35.0823529,13.682277 33.4629222,13.682277 C31.9114991,13.682277 30.6756736,13.2125996 29.7586338,12.2721822 C28.8405313,11.3328273 28.3825427,10.0619355 28.3825427,8.46163188 C28.3825427,6.82413662 28.8309677,5.55111954 29.7320683,4.64470588 C30.6310436,3.7372296 31.8934345,3.28455408 33.5181784,3.28455408 C34.5223529,3.28455408 35.4096395,3.49388994 36.180038,3.91362429 C36.9493738,4.33335863 37.5444402,4.93373814 37.9620493,5.71795066 C38.3796584,6.50003795 38.5889943,7.41495256 38.5889943,8.46163188 M40.2902467,13.682277 L43.6916888,13.682277 L43.6916888,3.83074004 L40.2902467,3.83074004 L40.2902467,13.682277 Z M40.2902467,2.73624288 L43.6916888,2.73624288 L43.6916888,0 L40.2902467,0 L40.2902467,2.73624288 Z M50.5105123,10.9927894 C50.9812524,10.9927894 51.542315,10.8790892 52.1979507,10.6527514 L52.1979507,13.1339658 C51.7655823,13.3194569 51.315581,13.4607943 50.8548008,13.5558254 C50.4297533,13.6408349 49.9303226,13.682277 49.3586338,13.682277 C48.1876281,13.682277 47.3428463,13.4017457 46.8242884,12.8417457 C46.3078558,12.2817457 46.0485769,11.4220873 46.0485769,10.2617078 L46.0485769,6.19719165 L44.8265655,6.19719165 L44.8265655,3.64796964 L46.0485769,3.64796964 L46.0485769,1.12956357 L49.5658444,0.547248577 L49.5658444,3.64796964 L51.7920304,3.64796964 L51.7920304,6.19719165 L49.5647818,6.19719165 L49.5647818,10.03537 C49.5647818,10.6729412 49.8803795,10.9927894 50.5105123,10.9927894 M58.4493359,10.9927894 C58.9200759,10.9927894 59.4811385,10.8790892 60.1357116,10.6527514 L60.1357116,13.1339658 C59.7033761,13.3195456 59.2533657,13.4608859 58.7925617,13.5558254 C58.3675142,13.6408349 57.8702087,13.682277 57.2974573,13.682277 C56.1264516,13.682277 55.2816698,13.4017457 54.7641746,12.8417457 C54.2466793,12.2817457 53.9874004,11.4220873 53.9874004,10.2617078 L53.9874004,6.19719165 L52.765389,6.19719165 L52.765389,3.64796964 L53.9874004,3.64796964 L53.9874004,1.0913093 L57.5036053,0.547248577 L57.5036053,3.64796964 L59.7308539,3.64796964 L59.7308539,6.19719165 L57.5036053,6.19719165 L57.5036053,10.03537 C57.5036053,10.6729412 57.819203,10.9927894 58.4493359,10.9927894 M64.2544213,7.23749526 C64.3011765,6.68812144 64.4616319,6.28432638 64.7347249,6.02717268 C65.0088805,5.77001898 65.3467932,5.64144213 65.7516509,5.64144213 C66.1937002,5.64144213 66.5443643,5.78595825 66.8047059,6.07711575 C67.0671727,6.36614801 67.2031879,6.75294118 67.2148767,7.23749526 L64.2544213,7.23749526 L64.2544213,7.23749526 Z M69.1137761,4.46724858 C68.2944972,3.67878558 67.1319924,3.28349146 65.6283871,3.28349146 C64.0493359,3.28349146 62.8337002,3.7372296 61.9804175,4.64364326 C61.12926,5.55218216 60.7031499,6.85388994 60.7031499,8.54982922 C60.7031499,10.191575 61.1632638,11.4582163 62.0824288,12.3476281 C63.0015939,13.2370398 64.2926755,13.682277 65.9556736,13.682277 C66.7537002,13.682277 67.4412144,13.6291461 68.0171537,13.5228843 C68.5967883,13.4146298 69.1574311,13.2220208 69.6812144,12.9511954 L69.1509677,10.6878178 C68.7609867,10.8440228 68.3890702,10.9640987 68.0384061,11.0448577 C67.531537,11.1596205 66.9747249,11.2180645 66.3690323,11.2180645 C65.7048956,11.2180645 65.1810247,11.0586717 64.7963567,10.7398861 C64.4116888,10.420038 64.207666,9.97905123 64.1842884,9.41798861 L70.3421632,9.41798861 L70.3421632,7.87612903 C70.3421632,6.39271347 69.933055,5.25571157 69.1137761,4.46724858 L69.1137761,4.46724858 Z M16.4142694,7.23749526 C16.4588994,6.68812144 16.6097913,6.28432638 16.8658824,6.02717268 C17.1240987,5.77001898 17.4428843,5.64144213 17.8243643,5.64144213 C18.2387856,5.64144213 18.56926,5.78595825 18.8147249,6.07711575 C19.062315,6.36614801 19.1898292,6.75294118 19.201518,7.23749526 L16.4142694,7.23749526 Z M20.9888425,4.46724858 C20.2173814,3.67878558 19.1239469,3.28349146 17.7085389,3.28349146 C16.2208729,3.28349146 15.0764326,3.7372296 14.2762808,4.64364326 C13.4740038,5.55218216 13.072334,6.85388994 13.072334,8.54982922 C13.072334,10.191575 13.5048197,11.4582163 14.3708539,12.3476281 C15.2358254,13.2370398 16.4503985,13.682277 18.0156357,13.682277 C18.766907,13.682277 19.4140417,13.6291461 19.9559772,13.5228843 C20.4947249,13.4166224 21.015408,13.225351 21.522277,12.9511954 L21.0228463,10.6878178 C20.6562429,10.8440228 20.3055787,10.9640987 19.976167,11.0448577 C19.4979886,11.1596205 18.9751803,11.2180645 18.4045541,11.2180645 C17.780797,11.2180645 17.2866793,11.0586717 16.9243264,10.7398861 C16.5630361,10.420038 16.3707021,9.97905123 16.3483871,9.41798861 L22.1449715,9.41798861 L22.1449715,7.87612903 C22.1449715,6.39271347 21.759241,5.25571157 20.9888425,4.46724858 Z" id="Shape" fill="#0F0B0B"></path>
                                    </g>
                                    <path d="M46.9155977,23.0163188 L46.0591271,23.0163188 L46.0591271,18.0751423 L44.5193928,18.0751423 L44.5193928,17.2696774 L48.4553321,17.2696774 L48.4553321,18.0751423 L46.9145351,18.0751423 L46.9145351,23.0152562 L46.9155977,23.0163188 Z M50.8982922,23.0949526 C50.2819734,23.0949526 49.8006072,22.8973055 49.4531309,22.503074 C49.1056546,22.1099051 48.9324478,21.5658444 48.9324478,20.8740797 C48.9324478,20.1642505 49.0929032,19.6063757 49.4148767,19.2004554 C49.7379127,18.7945351 50.179962,18.591575 50.7431499,18.591575 C51.2670209,18.591575 51.6803795,18.7658444 51.9832258,19.1133207 C52.2860721,19.4618596 52.4380266,19.9421632 52.4380266,20.5521063 L52.4380266,21.051537 L49.798482,21.051537 C49.8101708,21.4733966 49.91537,21.7974953 50.1098292,22.023833 C50.3064137,22.2501708 50.5816319,22.363871 50.9376091,22.363871 C51.1713852,22.363871 51.389222,22.3394307 51.5911195,22.2905503 C51.7930171,22.2427324 52.0097913,22.1619734 52.2414421,22.0493359 L52.2414421,22.7995446 C52.0449659,22.9039028 51.8350849,22.9807757 51.617685,23.0280076 C51.3808474,23.0751382 51.1397596,23.0975733 50.8982922,23.0949526 L50.8982922,23.0949526 Z M50.7442125,19.290778 C50.4987256,19.2809605 50.2621192,19.3834248 50.1013283,19.5691841 C49.9398102,19.7551423 49.8441746,20.0261101 49.8133586,20.3831499 L51.6113093,20.3831499 C51.6059962,20.0239848 51.5262998,19.7519545 51.3743454,19.5681214 C51.2213283,19.3832258 51.0119924,19.290778 50.7442125,19.290778 L50.7442125,19.290778 Z M54.9914991,23.0949526 C54.3921822,23.0949526 53.9373814,22.9036812 53.6249715,22.5190133 C53.3136243,22.135408 53.1574194,21.5839089 53.1574194,20.8666414 C53.1574194,20.1355598 53.3210626,19.5734345 53.6462239,19.1802657 C53.9724478,18.7870968 54.4431879,18.591575 55.0595066,18.591575 C55.4771157,18.591575 55.8532827,18.6765844 56.1880076,18.8466034 L55.9329791,19.5893738 C55.5780645,19.4374194 55.2847818,19.3609108 55.0531309,19.3609108 C54.3677419,19.3609108 54.0245161,19.8603416 54.0245161,20.859203 C54.0245161,21.3458824 54.1095256,21.7124858 54.2806072,21.956888 C54.4506262,22.2012903 54.7014042,22.3245541 55.0308159,22.3245541 C55.4059203,22.3245541 55.7608349,22.2225427 56.0944972,22.0174573 L56.0944972,22.8239848 C55.9467742,22.9197582 55.7840749,22.9901535 55.6131309,23.0322581 C55.443112,23.0737002 55.2348387,23.0949526 54.9914991,23.0949526 Z M60.51074,23.0163188 L59.6659583,23.0163188 L59.6659583,20.343833 C59.6659583,20.0080455 59.6043264,19.7583302 59.4810626,19.5936243 C59.3577989,19.4278558 59.162277,19.3460342 58.8955598,19.3460342 C58.5417078,19.3460342 58.2824288,19.4618596 58.1166603,19.6935104 C57.9508918,19.9251613 57.8680076,20.3140797 57.8680076,20.8581404 L57.8680076,23.0152562 L57.0264137,23.0152562 L57.0264137,16.9009488 L57.8680076,16.9009488 L57.8680076,18.4534345 C57.8680076,18.7020873 57.8531309,18.9688046 57.8255028,19.2503985 L57.8786338,19.2503985 C57.9933966,19.0421252 58.1527894,18.878482 58.3568121,18.7637192 C58.5608349,18.6489564 58.7988615,18.591575 59.0708918,18.591575 C60.0304364,18.591575 60.51074,19.1218216 60.51074,20.182315 L60.51074,23.0163188 L60.51074,23.0163188 Z M65.1671347,23.0163188 L64.3212903,23.0163188 L64.3212903,20.343833 C64.3212903,20.0080455 64.2596584,19.7583302 64.1374573,19.5936243 C64.0141935,19.4278558 63.8186717,19.3460342 63.5519545,19.3460342 C63.1959772,19.3460342 62.9356357,19.460797 62.7709298,19.6913852 C62.6062239,19.9219734 62.5233397,20.307704 62.5233397,20.8507021 L62.5233397,23.0163188 L61.6817457,23.0163188 L61.6817457,18.6702087 L62.3405693,18.6702087 L62.4595825,19.2397723 L62.5020873,19.2397723 C62.6209675,19.0334751 62.7980061,18.8667853 63.0110816,18.7605313 C63.229981,18.6478937 63.4733207,18.5905123 63.7411006,18.5905123 C64.6910816,18.5905123 65.1671347,19.1218216 65.1671347,20.182315 L65.1671347,23.0163188 L65.1671347,23.0163188 Z M69.8511575,20.8347628 C69.8511575,21.544592 69.685389,22.0992789 69.353852,22.4977609 C69.0212524,22.8951803 68.5590133,23.0949526 67.9671347,23.0949526 C67.5973435,23.0949526 67.2700569,23.0025047 66.9863378,22.8186717 C66.6946217,22.6264789 66.4664566,22.3520892 66.3307021,22.0302087 C66.1708491,21.6523406 66.0926327,21.2449631 66.1011765,20.8347628 C66.1011765,20.1302467 66.2658824,19.5808729 66.5952941,19.1845161 C66.9247059,18.789222 67.3890702,18.591575 67.9883871,18.591575 C68.5622011,18.591575 69.0159393,18.7934725 69.3496015,19.1972676 C69.6843264,19.6031879 69.8511575,20.1483112 69.8511575,20.8347628 L69.8511575,20.8347628 Z M66.9682732,20.8347628 C66.9682732,21.8389374 67.306186,22.3404934 67.9820114,22.3404934 C68.6503985,22.3404934 68.9840607,21.8389374 68.9840607,20.8347628 C68.9840607,19.842277 68.6482732,19.3460342 67.9745731,19.3460342 C67.6207211,19.3460342 67.36463,19.4735484 67.2062998,19.7307021 C67.046907,19.9878558 66.9682732,20.3555218 66.9682732,20.8358254 L66.9682732,20.8347628 Z M71.6597343,23.0163188 L70.8181404,23.0163188 L70.8181404,16.9009488 L71.6597343,16.9009488 L71.6597343,23.0163188 Z M76.3766983,20.8347628 C76.3766983,21.544592 76.2109298,22.0992789 75.8783302,22.4977609 C75.5467932,22.8951803 75.0845541,23.0949526 74.4926755,23.0949526 C74.1228843,23.0949526 73.7955977,23.0025047 73.5118786,22.8186717 C73.2201625,22.6264789 72.9919974,22.3520892 72.8562429,22.0302087 C72.6963899,21.6523406 72.6181735,21.2449631 72.6267173,20.8347628 C72.6267173,20.1302467 72.7914231,19.5808729 73.1208349,19.1845161 C73.4502467,18.789222 73.914611,18.591575 74.5139279,18.591575 C75.0877419,18.591575 75.5414801,18.7934725 75.8751423,19.1972676 C76.2098672,19.6031879 76.3766983,20.1483112 76.3766983,20.8347628 L76.3766983,20.8347628 Z M73.493814,20.8347628 C73.493814,21.8389374 73.8317268,22.3404934 74.5075522,22.3404934 C75.1759393,22.3404934 75.5096015,21.8389374 75.5096015,20.8347628 C75.5096015,19.842277 75.173814,19.3460342 74.5001139,19.3460342 C74.1462619,19.3460342 73.8901708,19.4735484 73.7318406,19.7307021 C73.5724478,19.9878558 73.493814,20.3555218 73.493814,20.8358254 L73.493814,20.8347628 Z M80.6877419,18.6702087 L80.6877419,19.1770778 L80.0119165,19.3141556 C80.0735484,19.4055408 80.1256167,19.5181784 80.1659962,19.6520683 C80.2063757,19.7859583 80.2265655,19.9272865 80.2265655,20.0771157 C80.2265655,20.5244782 80.0862998,20.8772676 79.8036433,21.1333586 C79.5220493,21.3905123 79.1341935,21.5190892 78.6400759,21.5190892 C78.5136243,21.5190892 78.3988615,21.508463 78.2968501,21.4872106 C78.1151423,21.6104744 78.0237571,21.7549905 78.0237571,21.9196964 C78.0237571,22.0195825 78.0662619,22.0939658 78.1512713,22.1428463 C78.2362808,22.193852 78.3914231,22.2182922 78.6188235,22.2182922 L79.3095256,22.2182922 C79.7473245,22.2182922 80.0788615,22.3203036 80.3051992,22.5243264 C80.5325996,22.7294118 80.6452372,23.0237571 80.6452372,23.4094877 C80.6452372,23.9014801 80.4603416,24.2808349 80.0905503,24.5486148 C79.720759,24.8163947 79.1851992,24.949222 78.4859962,24.949222 C77.946186,24.949222 77.5349526,24.8450854 77.2501708,24.6346869 C76.9664516,24.425351 76.8251233,24.1267552 76.8251233,23.7388994 C76.8251233,23.4721822 76.9016319,23.246907 77.0557116,23.0651992 C77.2097913,22.8834915 77.4244402,22.7570398 77.7017837,22.6858444 C77.5864889,22.6306339 77.4900225,22.5426684 77.4244402,22.4329412 C77.353596,22.3233521 77.3156156,22.1957676 77.3149905,22.0652751 C77.3149905,21.9026945 77.3574953,21.7645541 77.4403795,21.6519165 C77.5243264,21.5392789 77.6475901,21.4287666 77.812296,21.3182543 C77.60092,21.2155749 77.4264727,21.0500355 77.3128653,20.8443264 C77.1812779,20.6100565 77.1152074,20.3446734 77.1215939,20.0760531 C77.1215939,19.6053131 77.2576091,19.2397723 77.5285769,18.9804934 C77.7995446,18.7212144 78.1852751,18.591575 78.6868311,18.591575 C78.7984061,18.591575 78.9163567,18.6000759 79.0396205,18.6170778 C79.1628843,18.6340797 79.2553321,18.6510816 79.3169639,18.6702087 L80.6877419,18.6702087 L80.6877419,18.6702087 Z M77.5763947,23.6921442 C77.5763947,23.8908539 77.6582163,24.043871 77.820797,24.1522581 C77.9855028,24.2585199 78.2150285,24.3127135 78.5114991,24.3127135 C78.9694877,24.3127135 79.3105882,24.2404554 79.5358634,24.0970019 C79.7590133,23.9524858 79.8716509,23.7612144 79.8716509,23.5231879 C79.8716509,23.3340417 79.8110816,23.2001518 79.6878178,23.1193928 C79.5645541,23.040759 79.3371537,23.0003795 79.0013662,23.0003795 L78.3637951,23.0003795 C78.1236433,23.0003795 77.9313093,23.063074 77.789981,23.1874004 C77.6468066,23.3151037 77.5687491,23.5004903 77.5774573,23.6921442 L77.5763947,23.6921442 Z M77.937685,20.0760531 C77.937685,20.3491461 78.0014421,20.558482 78.1289564,20.7051233 C78.2575332,20.8517647 78.4403036,20.9250854 78.6793928,20.9250854 C79.1671347,20.9250854 79.4104744,20.6403036 79.4104744,20.0686148 C79.4104744,19.7859583 79.3499051,19.5681214 79.2298292,19.4140417 C79.1086907,19.2610247 78.9259203,19.1845161 78.6793928,19.1845161 C78.4360531,19.1845161 78.2511575,19.259962 78.1268311,19.4119165 C78.0003795,19.563871 77.937685,19.7859583 77.937685,20.0760531 L77.937685,20.0760531 Z M80.8216319,18.6702087 L81.7376091,18.6702087 L82.5441366,21.1333586 C82.6652751,21.4840228 82.7460342,21.8144972 82.7874763,22.1237192 L82.816167,22.1237192 C82.8374194,21.9802657 82.8767362,21.8049336 82.9341176,21.5998482 C82.9914991,21.3937002 83.295408,20.4171537 83.8437192,18.6702087 L84.7533207,18.6702087 L83.0595066,23.5933207 C82.7513472,24.4976091 82.2381025,24.949222 81.5187097,24.949222 C81.333814,24.949222 81.1521063,24.9279696 80.9757116,24.882277 L80.9757116,24.1522581 C81.1021632,24.1841366 81.2466793,24.1990133 81.4081973,24.1990133 C81.8141176,24.1990133 82.0988994,23.940797 82.2646679,23.4243643 L82.4113093,23.0163188 L80.8216319,18.6702087 Z M88.4108539,23.0163188 L87.318482,23.0163188 L87.318482,17.27074 L90.3193169,17.27074 L90.3193169,18.2696015 L88.4108539,18.2696015 L88.4108539,19.7508918 L90.1864896,19.7508918 L90.1864896,20.7444402 L88.4108539,20.7444402 L88.4108539,23.0163188 L88.4108539,23.0163188 Z M93.8004554,23.0163188 L93.5889943,22.4191271 L93.5603036,22.4191271 C93.3764706,22.673093 93.1883871,22.8494877 92.9928653,22.9472486 C92.7984061,23.0460721 92.5444402,23.0949526 92.2320304,23.0949526 C91.8473624,23.0949526 91.5445161,22.973814 91.3234915,22.7336622 C91.1035294,22.4924478 90.9930171,22.149222 90.9930171,21.7029222 C90.9930171,21.2374953 91.1417837,20.8932068 91.4393169,20.6721822 C91.7357875,20.4500949 92.1831499,20.3278937 92.7835294,20.3045161 L93.478482,20.2811385 L93.478482,20.0888046 C93.478482,19.6425047 93.2702087,19.4193548 92.8547249,19.4193548 C92.5359393,19.4193548 92.1587097,19.5256167 91.7272865,19.7381404 L91.3659962,18.9294877 C91.8323967,18.6632677 92.3612943,18.5260918 92.8982922,18.5320683 C93.4349146,18.5320683 93.8472106,18.6595825 94.133055,18.9177989 C94.419962,19.1738899 94.5634156,19.563871 94.5634156,20.0888046 L94.5634156,23.0163188 L93.8004554,23.0163188 L93.8004554,23.0163188 Z M93.478482,20.9803416 L93.0555598,20.9962808 C92.7378368,21.006907 92.5019355,21.0696015 92.3467932,21.1843643 C92.1916509,21.3001898 92.1130171,21.4755218 92.1130171,21.7114231 C92.1130171,22.0493359 92.2904744,22.2182922 92.6443264,22.2182922 C92.8712193,22.2281997 93.0915616,22.1408359 93.250019,21.9781404 C93.4019734,21.8187476 93.478482,21.6062239 93.478482,21.3416319 L93.478482,20.9803416 L93.478482,20.9803416 Z M98.4812903,21.7114231 C98.4812903,22.1619734 98.3388994,22.5051992 98.053055,22.7411006 C97.7682732,22.9770019 97.3411006,23.0949526 96.7725996,23.0949526 C96.4814421,23.0949526 96.233852,23.0737002 96.0287666,23.0301328 C95.8296985,22.9888461 95.6360768,22.9246621 95.4517647,22.8388615 L95.4517647,21.8485009 C95.6536622,21.9537002 95.8831879,22.0418975 96.1371537,22.1120304 C96.3921822,22.1832258 96.6153321,22.2182922 96.8087287,22.2182922 C97.2050854,22.2182922 97.4037951,22.0929032 97.4037951,21.8410626 C97.4074197,21.7573822 97.3793384,21.675415 97.3251613,21.611537 C97.2446048,21.5314065 97.1525643,21.4637191 97.0520683,21.4107021 C96.8841721,21.3160944 96.7122177,21.2288763 96.5366983,21.1492979 C96.2285389,21.0079696 96.0022011,20.8772676 95.857685,20.756129 C95.7209024,20.6454249 95.6129787,20.5032281 95.5431499,20.3417078 C95.4724024,20.1581642 95.4388114,19.9623977 95.4443264,19.7657685 C95.4443264,19.3757875 95.5824668,19.0740038 95.8587476,18.8604175 C96.1339658,18.6468311 96.5250095,18.5395066 97.0308159,18.5395066 C97.5132448,18.5395066 97.9829222,18.6553321 98.4387856,18.8859203 L98.1093738,19.7508918 C97.9259021,19.6633929 97.7379074,19.5857121 97.546186,19.5181784 C97.3746822,19.4584304 97.1943647,19.4278986 97.0127514,19.4278558 C96.690778,19.4278558 96.52926,19.5234915 96.52926,19.7147628 C96.52926,19.8220873 96.5823909,19.9155977 96.6854649,19.9942315 C96.7896015,20.0728653 97.0170019,20.1897533 97.367666,20.343833 C97.6800759,20.4819734 97.9096015,20.6126755 98.0551803,20.7327514 C98.200759,20.8538899 98.3080835,20.9920304 98.3771537,21.1492979 C98.4472865,21.3065655 98.4812903,21.4935863 98.4812903,21.7114231 L98.4812903,21.7114231 Z M101.020949,22.1396584 C101.21222,22.1396584 101.440683,22.0939658 101.708463,22.001518 L101.708463,22.8941176 C101.436433,23.0280076 101.10277,23.0949526 100.705351,23.0949526 C100.268615,23.0949526 99.9508918,22.973814 99.7511195,22.731537 C99.5513472,22.48926 99.4525237,22.1258444 99.4525237,21.6402277 L99.4525237,19.5224288 L98.9286528,19.5224288 L98.9286528,19.0155598 L99.5311575,18.6149526 L99.8456926,17.6872865 L100.544896,17.6872865 L100.544896,18.6223909 L101.664896,18.6223909 L101.664896,19.5224288 L100.544896,19.5224288 L100.544896,21.6402277 C100.544896,21.8102467 100.5874,21.9366983 100.675598,22.0174573 C100.762732,22.0992789 100.877495,22.1396584 101.020949,22.1396584 L101.020949,22.1396584 Z M106.04926,19.3449715 C106.555066,19.3449715 106.957799,19.5011765 107.257457,19.8125237 C107.557116,20.1249336 107.706945,20.5521063 107.706945,21.0940417 C107.706945,21.7358634 107.5263,22.2310436 107.166072,22.5763947 C106.805844,22.9217457 106.290474,23.0949526 105.618899,23.0949526 C105.036584,23.0949526 104.566907,22.9908159 104.207742,22.7846679 L104.207742,21.7348008 C104.396888,21.8453131 104.61685,21.9345731 104.866565,22.0036433 C105.118406,22.0737761 105.35537,22.1077799 105.579583,22.1077799 C106.255408,22.1077799 106.593321,21.803871 106.593321,21.1960531 C106.593321,20.6179886 106.243719,20.3278937 105.544516,20.3278937 C105.417002,20.3278937 105.278861,20.3417078 105.124782,20.3693359 C104.971765,20.3969639 104.848501,20.4267173 104.752865,20.4575332 L104.311879,20.1982543 L104.509526,17.27074 L107.348843,17.27074 L107.348843,18.3004175 L105.479696,18.3004175 L105.382998,19.4278558 L105.508387,19.4002277 C105.653966,19.3640987 105.834611,19.3460342 106.04926,19.3460342 L106.04926,19.3449715 Z M111.96167,20.1429981 C111.96167,21.1471727 111.812903,21.8899431 111.512182,22.3713093 C111.212524,22.8537381 110.751347,23.0938899 110.128653,23.0938899 C109.524023,23.0938899 109.069222,22.8462998 108.762125,22.3479317 C108.455028,21.8506262 108.302011,21.1152941 108.302011,20.1429981 C108.302011,19.12926 108.450778,18.3822391 108.749374,17.9008729 C109.04797,17.4205693 109.508083,17.1804175 110.128653,17.1804175 C110.73222,17.1804175 111.189146,17.4322581 111.498368,17.9348767 C111.806528,18.4374953 111.96167,19.1738899 111.96167,20.1429981 Z M109.400759,20.1429981 C109.400759,20.8485769 109.457078,21.3533207 109.56759,21.6582922 C109.679165,21.9632638 109.865123,22.1152182 110.128653,22.1152182 C110.385806,22.1152182 110.572827,21.9611385 110.68759,21.6519165 C110.80129,21.3437571 110.858672,20.8400759 110.858672,20.1429981 C110.858672,19.438482 110.80129,18.9316129 110.685465,18.6245161 C110.568577,18.3163567 110.383681,18.162277 110.128653,18.162277 C109.868311,18.162277 109.682353,18.3163567 109.569715,18.6245161 C109.457078,18.9326755 109.401822,19.438482 109.401822,20.1440607 L109.400759,20.1429981 Z" id="Shape" fill="#0F0B0B" fill-rule="nonzero"></path>
                                    <path d="M48.3615579,32.9411765 L48.3615579,31.9962086 L46.3710938,31.9962086 L47.1230469,30.9225643 C47.5412454,30.4266238 47.8300973,30.0090954 47.9896025,29.6699793 C48.1491077,29.3308632 48.2288603,28.9964384 48.2288603,28.666705 C48.2288603,28.1359145 48.0847695,27.7264285 47.7965878,27.4382468 C47.5084061,27.1500651 47.1029412,27.0059743 46.580193,27.0059743 C46.2397365,27.0059743 45.9348001,27.0884076 45.6653837,27.2532744 C45.3959674,27.4181411 45.1868681,27.6493566 45.0380859,27.946921 C44.8893038,28.2444853 44.8149127,28.5728784 44.8149127,28.9321002 L44.8149127,28.9321002 L45.9569164,28.9321002 C45.9569164,28.621132 46.0112017,28.3798637 46.1197725,28.208295 C46.2283433,28.0367264 46.3751149,27.9509421 46.5600873,27.9509421 C46.7289752,27.9509421 46.8583218,28.024663 46.9481273,28.1721048 C47.0379328,28.3195466 47.0828355,28.5232843 47.0828355,28.783318 C47.0828355,28.9763327 47.035252,29.1780599 46.940085,29.3884995 C46.844918,29.5989392 46.6968061,29.8435585 46.4957491,30.1223575 L46.4957491,30.1223575 L44.91142,32.1369485 L44.91142,32.9411765 L48.3615579,32.9411765 Z M50.782284,33.0215993 C51.3264782,33.0215993 51.745347,32.8071385 52.0388902,32.3782169 C52.3324334,31.9492953 52.479205,31.3300398 52.479205,30.5204504 L52.479205,30.5204504 L52.479205,29.4548483 C52.4738434,28.6693857 52.3250613,28.0648744 52.0328585,27.6413143 C51.7406556,27.2177543 51.3211167,27.0059743 50.7742417,27.0059743 C50.2273667,27.0059743 49.8078278,27.2197649 49.515625,27.647346 C49.2234222,28.0749272 49.0773208,28.6921722 49.0773208,29.4990809 L49.0773208,29.4990809 L49.0773208,30.6048943 C49.0880438,31.3823146 49.2401769,31.9794539 49.5337201,32.396312 C49.8272633,32.8131702 50.2434513,33.0215993 50.782284,33.0215993 Z M50.782284,32.0766314 C50.5865885,32.0766314 50.4424977,31.9613588 50.3500115,31.7308134 C50.2575253,31.5002681 50.2112822,31.1490885 50.2112822,30.6772748 L50.2112822,30.6772748 L50.2112822,29.2176011 C50.224686,28.3731618 50.4123392,27.9509421 50.7742417,27.9509421 C50.9672564,27.9509421 51.1093367,28.0662148 51.2004825,28.2967601 C51.2916284,28.5273055 51.3372013,28.8731235 51.3372013,29.3342142 L51.3372013,29.3342142 L51.3372013,30.7617187 C51.3318398,31.2067249 51.2842563,31.5371285 51.1944508,31.7529297 C51.1046454,31.9687309 50.9672564,32.0766314 50.782284,32.0766314 Z M55.7483915,32.9411765 L55.7483915,27.0783548 L55.6277574,27.0783548 L53.4925322,27.9509421 L53.4925322,28.8999311 L54.6063879,28.4696691 L54.6063879,32.9411765 L55.7483915,32.9411765 Z M58.2495404,33.0014936 C59.0537684,32.9907705 59.6750345,32.7045994 60.1133387,32.1429802 C60.5516429,31.5813611 60.770795,30.8019301 60.770795,29.8046875 L60.770795,29.8046875 L60.770795,29.3905101 C60.770795,28.9240579 60.6997549,28.5078699 60.5576746,28.1419462 C60.4155944,27.7760225 60.2158778,27.4952129 59.9585248,27.2995175 C59.7011719,27.103822 59.4076287,27.0059743 59.0778952,27.0059743 C58.7588848,27.0059743 58.4700329,27.0944393 58.2113396,27.2713695 C57.9526463,27.4482996 57.7509191,27.6969401 57.6061581,28.0172909 C57.4613971,28.3376417 57.3890165,28.6908318 57.3890165,29.0768612 C57.3890165,29.6746706 57.5170228,30.1525161 57.7730354,30.5103975 C58.0290479,30.868279 58.3795573,31.0472197 58.8245634,31.0472197 C59.1114047,31.0472197 59.3754596,30.9239047 59.6167279,30.6772748 C59.571155,31.1142387 59.4364468,31.4466529 59.2126034,31.6745175 C58.98876,31.902382 58.6543352,32.0176547 58.209329,32.0203355 L58.209329,32.0203355 L58.1329274,32.0203355 L58.1329274,33.0014936 L58.2495404,33.0014936 Z M59.1140855,30.1545267 C58.9291131,30.1545267 58.784352,30.0573491 58.6798024,29.862994 C58.5752528,29.6686389 58.5229779,29.4025735 58.5229779,29.0647978 C58.5229779,28.7538297 58.5732422,28.490445 58.6737707,28.2746438 C58.7742992,28.0588427 58.9063266,27.9509421 59.0698529,27.9509421 C59.23606,27.9509421 59.3714384,28.0601831 59.4759881,28.278665 C59.5805377,28.4971469 59.6328125,28.7980622 59.6328125,29.1814108 L59.6328125,29.1814108 L59.6328125,29.704159 C59.5068168,30.0044041 59.3339078,30.1545267 59.1140855,30.1545267 Z" id="2019" fill="#000000" fill-rule="nonzero"></path>
                                    <line x1="38.885389" y1="3.49920304" x2="38.885389" y2="28.6938899" id="Path" stroke="#A4A4A4" stroke-linecap="square"></line>
                                </g>
                            </g>
                        </g>
                    </g>
                </g>
            </g>
        </g>
    </g>
</svg>