<svg width="20" height="20" viewBox="0 0 20 20" fill="none" xmlns="http://www.w3.org/2000/svg">
<g clip-path="url(#clip0_535_6721)">
<mask id="mask0_535_6721" style="mask-type:luminance" maskUnits="userSpaceOnUse" x="0" y="0" width="20" height="20">
<path d="M18.3428 18.2201L15.2303 15.1077C14.608 15.3449 13.9438 15.4688 13.281 15.4688C10.2656 15.4688 7.81235 13.0155 7.81235 10.0001C7.81235 6.9847 10.2656 4.53147 13.281 4.53147C16.2964 4.53147 18.7496 6.9847 18.7496 10.0001C18.7496 10.5918 18.6568 11.1687 18.4732 11.7216L19.9996 13.248V0.000305176H0V19.9999H19.9996V16.5633L18.3428 18.2201Z" fill="white"/>
</mask>
<g mask="url(#mask0_535_6721)">
<path fill-rule="evenodd" clip-rule="evenodd" d="M0 1.40642H14.0622V18.5936H3.12494C1.39909 18.5936 0 17.1945 0 15.4686V1.40642ZM1.56247 2.96889V13.9062H4.68741V17.0311H12.4998V2.96889H1.56247ZM3.12494 17.0311V15.4686H1.56247C1.56247 16.3316 2.26201 17.0311 3.12494 17.0311ZM3.12494 4.53136H8.59358V6.09383H3.12494V4.53136ZM3.12494 7.6563H10.5742V9.21876H3.12494V7.6563ZM3.12494 10.7812H10.5742V12.3437H3.12494V10.7812Z" fill="#0665FF"/>
</g>
<path fill-rule="evenodd" clip-rule="evenodd" d="M13.2812 7.6563C11.9868 7.6563 10.9375 8.7056 10.9375 10C10.9375 11.2944 11.9868 12.3437 13.2812 12.3437C14.5756 12.3437 15.6249 11.2944 15.6249 10C15.6249 8.7056 14.5756 7.6563 13.2812 7.6563ZM9.375 10C9.375 7.84267 11.1238 6.09383 13.2812 6.09383C15.4385 6.09383 17.1873 7.84267 17.1873 10C17.1873 10.7557 16.9728 11.4612 16.6013 12.059L20.0002 15.4579L18.8954 16.5628L15.5282 13.1956C14.8927 13.6433 14.1176 13.9062 13.2812 13.9062C11.1238 13.9062 9.375 12.1573 9.375 10Z" fill="#0665FF"/>
</g>
<defs>
<clipPath id="clip0_535_6721">
<rect width="20" height="20" fill="white"/>
</clipPath>
</defs>
</svg>
