<svg xmlns="http://www.w3.org/2000/svg" width="65" height="65" viewBox="0 0 65 65">
    <g fill="none" fill-rule="evenodd">
        <circle cx="32.5" cy="32.5" r="31.75" fill="#FFF" fill-rule="nonzero" stroke="#3ADC0D" stroke-width="1.5"/>
        <g fill-rule="nonzero">
            <path fill="#4B4B4B" d="M37.759 33.758a3.418 3.418 0 0 0-3.411 3.43 3.418 3.418 0 0 0 3.41 3.429 3.418 3.418 0 0 0 3.412-3.43 3.418 3.418 0 0 0-3.411-3.429zm0 5.462a1.995 1.995 0 0 1-2.004-1.99c0-1.101.895-1.99 2.004-1.99 1.108 0 2.004.889 2.004 1.99 0 1.058-.938 1.99-2.004 1.99zm7.59-3.81c-.981 0-1.749.804-1.749 1.778v3.26h-1.492V33.97H43.6v1.016s.64-1.016 1.92-1.016h.426v1.44h-.597zm-14.882-1.44l1.109 4.445 1.194-4.445h1.492l-1.876 6.478h-1.45l-1.151-4.53-1.151 4.53h-1.45l-1.919-6.478h1.45l1.28 4.445 1.065-4.445h1.407zM50.295 36.933c1.023-.592 1.748-1.693 1.748-2.963h-1.492c0 1.1-.896 1.99-1.962 1.99h-.213v-5.123h-1.492v9.61h1.492V37.4h.17c.171 0 .342.085.384.212l2.09 2.837h1.748l-2.473-3.515z"/>
            <path fill="#6FDA44" d="M21.811 33.758c-1.62 0-2.857 1.059-3.326 2.752a14.924 14.924 0 0 1-1.705-3.683h-1.706v4.488c0 .889-.725 1.608-1.62 1.608-.896 0-1.62-.72-1.62-1.608v-4.488h-1.706v4.488a3.328 3.328 0 0 0 3.326 3.344 3.328 3.328 0 0 0 3.326-3.344v-.763c.34.678.767 1.398 1.236 2.033l-1.066 4.953H18.7l.767-3.598c.682.423 1.45.677 2.345.677 1.876 0 3.412-1.524 3.412-3.472 0-1.863-1.536-3.387-3.412-3.387zm0 5.123c-.682 0-1.364-.296-1.918-.762l.17-.677v-.043c.128-.72.512-1.947 1.791-1.947.938 0 1.706.762 1.706 1.693-.043.974-.853 1.736-1.749 1.736z"/>
            <path fill="#4B4B4B" d="M52.981 34.181h-.469v-.169h1.152v.17h-.47v1.312h-.17v-1.313h-.043zm.981-.169h.17l.512.805.512-.805h.17v1.44h-.17v-1.186l-.512.762-.511-.762v1.186h-.171v-1.44z"/>
        </g>
        <path fill="#00B7FB" d="M25.625 20.639v-.596h2.512v.596h-.86v2.456h-.791v-2.456h-.861zm6.108.921c0 .917-.74 1.565-1.661 1.565s-1.67-.648-1.67-1.565c0-.917.749-1.56 1.67-1.56.925 0 1.66.643 1.66 1.56zm-2.522 0c0 .535.333.887.86.887.519 0 .857-.352.857-.887 0-.543-.338-.886-.856-.886-.528 0-.861.343-.861.886zm3.753-.152h.43c.314 0 .449-.148.449-.382 0-.235-.135-.383-.45-.383h-.43v.765zm1.684-.382c0 .504-.366.973-1.194.973h-.49v1.096h-.792v-3.052h1.282c.796 0 1.194.422 1.194.983zm3.11.008c0-.226-.14-.373-.436-.373h-.49v.756h.49c.296 0 .435-.144.435-.383zm-1.717-.99h1.327c.796 0 1.194.43 1.194.96 0 .382-.222.743-.722.882l.75 1.209h-.893l-.676-1.152h-.19v1.152h-.79v-3.052zm5.233 3.05l-.195-.538h-1.212l-.194.539h-.828l1.175-3.052h.916l1.175 3.052h-.837zm-.398-1.112l-.403-1.117-.398 1.117h.8zm1.416-1.343v-.596h2.512v.596h-.86v2.456h-.792v-2.456h-.86zm4.9-.596v.596h-1.199v.617h1.06v.574h-1.06v.67h1.199v.595h-1.99v-3.052h1.99zm1.73 0c1.037 0 1.703.618 1.703 1.526 0 .904-.666 1.526-1.703 1.526h-1.217v-3.052h1.217zm-.425 2.408h.374c.597 0 .949-.321.949-.882 0-.56-.352-.891-.949-.891h-.374v1.773z"/>
        <g fill-rule="nonzero">
            <path fill="#00B7FB" d="M13.75 18.75h6.875v4.038l-2.018 2.033a2 2 0 0 1-2.839 0l-2.018-2.033V18.75z"/>
            <path fill="#FFF" d="M18.86 20.986a.134.134 0 0 0-.147-.018l-.735.36-.69-.8a.134.134 0 0 0-.202 0l-.69.8-.734-.36a.134.134 0 0 0-.146.018.136.136 0 0 0-.041.143l.51 1.113c.017.057.07.096.128.096h2.149c.059 0 .111-.04.128-.096l.51-1.113a.136.136 0 0 0-.04-.143z"/>
            <path stroke="#FFF" stroke-linecap="square" stroke-width=".5" d="M15.755 23.077h2.865"/>
        </g>
    </g>
</svg>
