<svg width="57" height="45" viewBox="0 0 57 45" fill="none" xmlns="http://www.w3.org/2000/svg">
<path fill-rule="evenodd" clip-rule="evenodd" d="M25.9807 33.169C25.9807 36.3007 24.826 38.9887 22.5166 41.2331C20.2072 43.4774 17.268 44.5996 13.6989 44.5996C9.60495 44.5996 6.29836 43.1643 3.77901 40.2936C1.25966 37.4228 0 33.8476 0 29.5676C0 20.1725 2.51931 13.1524 7.55801 8.50708C12.5967 3.86174 18.2127 1.22595 24.4061 0.599609V10.1512C21.1519 10.6732 18.2127 12.1085 15.5884 14.4573C12.9641 16.806 11.5994 19.7028 11.4945 23.1477C12.3343 22.6257 13.4365 22.3647 14.8011 22.3647C18.2652 22.3647 20.9945 23.3303 22.989 25.2615C24.9834 27.1927 25.9807 29.8285 25.9807 33.169ZM57 33.169C57 36.3007 55.8453 38.9887 53.5359 41.2331C51.2265 43.4774 48.2873 44.5996 44.7182 44.5996C40.6243 44.5996 37.3177 43.1643 34.7983 40.2936C32.279 37.4228 31.0193 33.8476 31.0193 29.5676C31.0193 20.1725 33.5387 13.1524 38.5773 8.50708C43.616 3.86174 49.232 1.22595 55.4254 0.599609V10.1512C52.1713 10.6732 49.2321 12.1085 46.6077 14.4573C43.9834 16.806 42.6188 19.7028 42.5138 23.1477C43.3536 22.6257 44.4558 22.3647 45.8204 22.3647C49.2845 22.3647 52.0138 23.3303 54.0083 25.2615C56.0028 27.1927 57 29.8285 57 33.169Z" fill="#0665FF"/>
</svg>
